<?xml version="1.0" encoding="utf-8" standalone="no"?>
<!DOCTYPE svg PUBLIC "-//W3C//DTD SVG 1.1//EN"
  "http://www.w3.org/Graphics/SVG/1.1/DTD/svg11.dtd">
<svg xmlns:xlink="http://www.w3.org/1999/xlink" width="721.125pt" height="386.71875pt" viewBox="0 0 721.125 386.71875" xmlns="http://www.w3.org/2000/svg" version="1.1">
 <metadata>
  <rdf:RDF xmlns:dc="http://purl.org/dc/elements/1.1/" xmlns:cc="http://creativecommons.org/ns#" xmlns:rdf="http://www.w3.org/1999/02/22-rdf-syntax-ns#">
   <cc:Work>
    <dc:type rdf:resource="http://purl.org/dc/dcmitype/StillImage"/>
    <dc:date>2024-11-18T22:07:03.684155</dc:date>
    <dc:format>image/svg+xml</dc:format>
    <dc:creator>
     <cc:Agent>
      <dc:title>Matplotlib v3.7.2, https://matplotlib.org/</dc:title>
     </cc:Agent>
    </dc:creator>
   </cc:Work>
  </rdf:RDF>
 </metadata>
 <defs>
  <style type="text/css">*{stroke-linejoin: round; stroke-linecap: butt}</style>
 </defs>
 <g id="figure_1">
  <g id="patch_1">
   <path d="M 0 386.71875 
L 721.125 386.71875 
L 721.125 0 
L 0 0 
z
" style="fill: #ffffff"/>
  </g>
  <g id="axes_1">
   <g id="patch_2">
    <path d="M 35.335125 155.68369 
L 350.806359 155.68369 
L 350.806359 21.269531 
L 35.335125 21.269531 
z
" style="fill: #ffffff"/>
   </g>
   <g id="PathCollection_1">
    <defs>
     <path id="mabf4929cea" d="M 0 1 
C 0.265203 1 0.51958 0.894634 0.707107 0.707107 
C 0.894634 0.51958 1 0.265203 1 0 
C 1 -0.265203 0.894634 -0.51958 0.707107 -0.707107 
C 0.51958 -0.894634 0.265203 -1 0 -1 
C -0.265203 -1 -0.51958 -0.894634 -0.707107 -0.707107 
C -0.894634 -0.51958 -1 -0.265203 -1 0 
C -1 0.265203 -0.894634 0.51958 -0.707107 0.707107 
C -0.51958 0.894634 -0.265203 1 0 1 
z
" style="stroke: #1f77b4"/>
    </defs>
    <g clip-path="url(#p8b4ebb5489)">
     <use xlink:href="#mabf4929cea" x="49.674727" y="149.573956" style="fill: #1f77b4; stroke: #1f77b4"/>
     <use xlink:href="#mabf4929cea" x="58.636978" y="149.548343" style="fill: #1f77b4; stroke: #1f77b4"/>
     <use xlink:href="#mabf4929cea" x="67.599229" y="149.50614" style="fill: #1f77b4; stroke: #1f77b4"/>
     <use xlink:href="#mabf4929cea" x="76.561479" y="149.436623" style="fill: #1f77b4; stroke: #1f77b4"/>
     <use xlink:href="#mabf4929cea" x="85.52373" y="149.322185" style="fill: #1f77b4; stroke: #1f77b4"/>
     <use xlink:href="#mabf4929cea" x="94.485981" y="149.133985" style="fill: #1f77b4; stroke: #1f77b4"/>
     <use xlink:href="#mabf4929cea" x="103.448232" y="148.824986" style="fill: #1f77b4; stroke: #1f77b4"/>
     <use xlink:href="#mabf4929cea" x="112.410483" y="148.319009" style="fill: #1f77b4; stroke: #1f77b4"/>
     <use xlink:href="#mabf4929cea" x="121.372734" y="147.494116" style="fill: #1f77b4; stroke: #1f77b4"/>
     <use xlink:href="#mabf4929cea" x="130.334985" y="146.158883" style="fill: #1f77b4; stroke: #1f77b4"/>
     <use xlink:href="#mabf4929cea" x="139.297236" y="144.022418" style="fill: #1f77b4; stroke: #1f77b4"/>
     <use xlink:href="#mabf4929cea" x="148.259487" y="140.666463" style="fill: #1f77b4; stroke: #1f77b4"/>
     <use xlink:href="#mabf4929cea" x="157.221738" y="135.545157" style="fill: #1f77b4; stroke: #1f77b4"/>
     <use xlink:href="#mabf4929cea" x="166.183989" y="128.065703" style="fill: #1f77b4; stroke: #1f77b4"/>
     <use xlink:href="#mabf4929cea" x="175.14624" y="117.817147" style="fill: #1f77b4; stroke: #1f77b4"/>
     <use xlink:href="#mabf4929cea" x="184.108491" y="104.941881" style="fill: #1f77b4; stroke: #1f77b4"/>
     <use xlink:href="#mabf4929cea" x="193.070742" y="90.42862" style="fill: #1f77b4; stroke: #1f77b4"/>
     <use xlink:href="#mabf4929cea" x="202.032993" y="75.945737" style="fill: #1f77b4; stroke: #1f77b4"/>
     <use xlink:href="#mabf4929cea" x="210.995244" y="63.149761" style="fill: #1f77b4; stroke: #1f77b4"/>
     <use xlink:href="#mabf4929cea" x="219.957495" y="53.001844" style="fill: #1f77b4; stroke: #1f77b4"/>
     <use xlink:href="#mabf4929cea" x="228.919746" y="45.617483" style="fill: #1f77b4; stroke: #1f77b4"/>
     <use xlink:href="#mabf4929cea" x="237.881997" y="40.569982" style="fill: #1f77b4; stroke: #1f77b4"/>
     <use xlink:href="#mabf4929cea" x="246.844248" y="37.261541" style="fill: #1f77b4; stroke: #1f77b4"/>
     <use xlink:href="#mabf4929cea" x="255.806499" y="35.146404" style="fill: #1f77b4; stroke: #1f77b4"/>
     <use xlink:href="#mabf4929cea" x="264.76875" y="33.80631" style="fill: #1f77b4; stroke: #1f77b4"/>
     <use xlink:href="#mabf4929cea" x="273.731001" y="32.946802" style="fill: #1f77b4; stroke: #1f77b4"/>
     <use xlink:href="#mabf4929cea" x="282.693252" y="32.366605" style="fill: #1f77b4; stroke: #1f77b4"/>
     <use xlink:href="#mabf4929cea" x="291.655503" y="31.924255" style="fill: #1f77b4; stroke: #1f77b4"/>
     <use xlink:href="#mabf4929cea" x="300.617754" y="31.508818" style="fill: #1f77b4; stroke: #1f77b4"/>
     <use xlink:href="#mabf4929cea" x="309.580005" y="31.01366" style="fill: #1f77b4; stroke: #1f77b4"/>
     <use xlink:href="#mabf4929cea" x="318.542256" y="30.308542" style="fill: #1f77b4; stroke: #1f77b4"/>
     <use xlink:href="#mabf4929cea" x="327.504507" y="29.202021" style="fill: #1f77b4; stroke: #1f77b4"/>
     <use xlink:href="#mabf4929cea" x="336.466758" y="27.379266" style="fill: #1f77b4; stroke: #1f77b4"/>
    </g>
   </g>
   <g id="PathCollection_2">
    <defs>
     <path id="maa3f5be152" d="M 0 0.707107 
C 0.187527 0.707107 0.367398 0.632602 0.5 0.5 
C 0.632602 0.367398 0.707107 0.187527 0.707107 0 
C 0.707107 -0.187527 0.632602 -0.367398 0.5 -0.5 
C 0.367398 -0.632602 0.187527 -0.707107 0 -0.707107 
C -0.187527 -0.707107 -0.367398 -0.632602 -0.5 -0.5 
C -0.632602 -0.367398 -0.707107 -0.187527 -0.707107 0 
C -0.707107 0.187527 -0.632602 0.367398 -0.5 0.5 
C -0.367398 0.632602 -0.187527 0.707107 0 0.707107 
z
" style="stroke: #ff7f0e"/>
    </defs>
    <g clip-path="url(#p8b4ebb5489)">
     <use xlink:href="#maa3f5be152" x="49.674727" y="149.573956" style="fill: #ff7f0e; stroke: #ff7f0e"/>
     <use xlink:href="#maa3f5be152" x="58.636978" y="149.548343" style="fill: #ff7f0e; stroke: #ff7f0e"/>
     <use xlink:href="#maa3f5be152" x="67.599229" y="149.506141" style="fill: #ff7f0e; stroke: #ff7f0e"/>
     <use xlink:href="#maa3f5be152" x="76.561479" y="149.436626" style="fill: #ff7f0e; stroke: #ff7f0e"/>
     <use xlink:href="#maa3f5be152" x="85.52373" y="149.322195" style="fill: #ff7f0e; stroke: #ff7f0e"/>
     <use xlink:href="#maa3f5be152" x="94.485981" y="149.134015" style="fill: #ff7f0e; stroke: #ff7f0e"/>
     <use xlink:href="#maa3f5be152" x="103.448232" y="148.825072" style="fill: #ff7f0e; stroke: #ff7f0e"/>
     <use xlink:href="#maa3f5be152" x="112.410483" y="148.319248" style="fill: #ff7f0e; stroke: #ff7f0e"/>
     <use xlink:href="#maa3f5be152" x="121.372734" y="147.494767" style="fill: #ff7f0e; stroke: #ff7f0e"/>
     <use xlink:href="#maa3f5be152" x="130.334985" y="146.160616" style="fill: #ff7f0e; stroke: #ff7f0e"/>
     <use xlink:href="#maa3f5be152" x="139.297236" y="144.026914" style="fill: #ff7f0e; stroke: #ff7f0e"/>
     <use xlink:href="#maa3f5be152" x="148.259487" y="140.677722" style="fill: #ff7f0e; stroke: #ff7f0e"/>
     <use xlink:href="#maa3f5be152" x="157.221738" y="135.571916" style="fill: #ff7f0e; stroke: #ff7f0e"/>
     <use xlink:href="#maa3f5be152" x="166.183989" y="128.124591" style="fill: #ff7f0e; stroke: #ff7f0e"/>
     <use xlink:href="#maa3f5be152" x="175.14624" y="117.933426" style="fill: #ff7f0e; stroke: #ff7f0e"/>
     <use xlink:href="#maa3f5be152" x="184.108491" y="105.140946" style="fill: #ff7f0e; stroke: #ff7f0e"/>
     <use xlink:href="#maa3f5be152" x="193.070742" y="90.715814" style="fill: #ff7f0e; stroke: #ff7f0e"/>
     <use xlink:href="#maa3f5be152" x="202.032993" y="76.290682" style="fill: #ff7f0e; stroke: #ff7f0e"/>
     <use xlink:href="#maa3f5be152" x="210.995244" y="63.498202" style="fill: #ff7f0e; stroke: #ff7f0e"/>
     <use xlink:href="#maa3f5be152" x="219.957495" y="53.307037" style="fill: #ff7f0e; stroke: #ff7f0e"/>
     <use xlink:href="#maa3f5be152" x="228.919746" y="45.859712" style="fill: #ff7f0e; stroke: #ff7f0e"/>
     <use xlink:href="#maa3f5be152" x="237.881997" y="40.753906" style="fill: #ff7f0e; stroke: #ff7f0e"/>
     <use xlink:href="#maa3f5be152" x="246.844248" y="37.404714" style="fill: #ff7f0e; stroke: #ff7f0e"/>
     <use xlink:href="#maa3f5be152" x="255.806499" y="35.271012" style="fill: #ff7f0e; stroke: #ff7f0e"/>
     <use xlink:href="#maa3f5be152" x="264.76875" y="33.93686" style="fill: #ff7f0e; stroke: #ff7f0e"/>
     <use xlink:href="#maa3f5be152" x="273.731001" y="33.11238" style="fill: #ff7f0e; stroke: #ff7f0e"/>
     <use xlink:href="#maa3f5be152" x="282.693252" y="32.606556" style="fill: #ff7f0e; stroke: #ff7f0e"/>
     <use xlink:href="#maa3f5be152" x="291.655503" y="32.297613" style="fill: #ff7f0e; stroke: #ff7f0e"/>
     <use xlink:href="#maa3f5be152" x="300.617754" y="32.109433" style="fill: #ff7f0e; stroke: #ff7f0e"/>
     <use xlink:href="#maa3f5be152" x="309.580005" y="31.995002" style="fill: #ff7f0e; stroke: #ff7f0e"/>
     <use xlink:href="#maa3f5be152" x="318.542256" y="31.925487" style="fill: #ff7f0e; stroke: #ff7f0e"/>
     <use xlink:href="#maa3f5be152" x="327.504507" y="31.883284" style="fill: #ff7f0e; stroke: #ff7f0e"/>
     <use xlink:href="#maa3f5be152" x="336.466758" y="31.857672" style="fill: #ff7f0e; stroke: #ff7f0e"/>
    </g>
   </g>
   <g id="matplotlib.axis_1">
    <g id="xtick_1">
     <g id="line2d_1">
      <defs>
       <path id="m41ccd5c858" d="M 0 0 
L 0 3.5 
" style="stroke: #000000; stroke-width: 0.8"/>
      </defs>
      <g>
       <use xlink:href="#m41ccd5c858" x="49.674727" y="155.68369" style="stroke: #000000; stroke-width: 0.8"/>
      </g>
     </g>
     <g id="text_1">
      <!-- −8 -->
      <g transform="translate(42.303633 170.282128) scale(0.1 -0.1)">
       <defs>
        <path id="DejaVuSans-2212" d="M 678 2272 
L 4684 2272 
L 4684 1741 
L 678 1741 
L 678 2272 
z
" transform="scale(0.015625)"/>
        <path id="DejaVuSans-38" d="M 2034 2216 
Q 1584 2216 1326 1975 
Q 1069 1734 1069 1313 
Q 1069 891 1326 650 
Q 1584 409 2034 409 
Q 2484 409 2743 651 
Q 3003 894 3003 1313 
Q 3003 1734 2745 1975 
Q 2488 2216 2034 2216 
z
M 1403 2484 
Q 997 2584 770 2862 
Q 544 3141 544 3541 
Q 544 4100 942 4425 
Q 1341 4750 2034 4750 
Q 2731 4750 3128 4425 
Q 3525 4100 3525 3541 
Q 3525 3141 3298 2862 
Q 3072 2584 2669 2484 
Q 3125 2378 3379 2068 
Q 3634 1759 3634 1313 
Q 3634 634 3220 271 
Q 2806 -91 2034 -91 
Q 1263 -91 848 271 
Q 434 634 434 1313 
Q 434 1759 690 2068 
Q 947 2378 1403 2484 
z
M 1172 3481 
Q 1172 3119 1398 2916 
Q 1625 2713 2034 2713 
Q 2441 2713 2670 2916 
Q 2900 3119 2900 3481 
Q 2900 3844 2670 4047 
Q 2441 4250 2034 4250 
Q 1625 4250 1398 4047 
Q 1172 3844 1172 3481 
z
" transform="scale(0.015625)"/>
       </defs>
       <use xlink:href="#DejaVuSans-2212"/>
       <use xlink:href="#DejaVuSans-38" x="83.789062"/>
      </g>
     </g>
    </g>
    <g id="xtick_2">
     <g id="line2d_2">
      <g>
       <use xlink:href="#m41ccd5c858" x="85.52373" y="155.68369" style="stroke: #000000; stroke-width: 0.8"/>
      </g>
     </g>
     <g id="text_2">
      <!-- −6 -->
      <g transform="translate(78.152637 170.282128) scale(0.1 -0.1)">
       <defs>
        <path id="DejaVuSans-36" d="M 2113 2584 
Q 1688 2584 1439 2293 
Q 1191 2003 1191 1497 
Q 1191 994 1439 701 
Q 1688 409 2113 409 
Q 2538 409 2786 701 
Q 3034 994 3034 1497 
Q 3034 2003 2786 2293 
Q 2538 2584 2113 2584 
z
M 3366 4563 
L 3366 3988 
Q 3128 4100 2886 4159 
Q 2644 4219 2406 4219 
Q 1781 4219 1451 3797 
Q 1122 3375 1075 2522 
Q 1259 2794 1537 2939 
Q 1816 3084 2150 3084 
Q 2853 3084 3261 2657 
Q 3669 2231 3669 1497 
Q 3669 778 3244 343 
Q 2819 -91 2113 -91 
Q 1303 -91 875 529 
Q 447 1150 447 2328 
Q 447 3434 972 4092 
Q 1497 4750 2381 4750 
Q 2619 4750 2861 4703 
Q 3103 4656 3366 4563 
z
" transform="scale(0.015625)"/>
       </defs>
       <use xlink:href="#DejaVuSans-2212"/>
       <use xlink:href="#DejaVuSans-36" x="83.789062"/>
      </g>
     </g>
    </g>
    <g id="xtick_3">
     <g id="line2d_3">
      <g>
       <use xlink:href="#m41ccd5c858" x="121.372734" y="155.68369" style="stroke: #000000; stroke-width: 0.8"/>
      </g>
     </g>
     <g id="text_3">
      <!-- −4 -->
      <g transform="translate(114.001641 170.282128) scale(0.1 -0.1)">
       <defs>
        <path id="DejaVuSans-34" d="M 2419 4116 
L 825 1625 
L 2419 1625 
L 2419 4116 
z
M 2253 4666 
L 3047 4666 
L 3047 1625 
L 3713 1625 
L 3713 1100 
L 3047 1100 
L 3047 0 
L 2419 0 
L 2419 1100 
L 313 1100 
L 313 1709 
L 2253 4666 
z
" transform="scale(0.015625)"/>
       </defs>
       <use xlink:href="#DejaVuSans-2212"/>
       <use xlink:href="#DejaVuSans-34" x="83.789062"/>
      </g>
     </g>
    </g>
    <g id="xtick_4">
     <g id="line2d_4">
      <g>
       <use xlink:href="#m41ccd5c858" x="157.221738" y="155.68369" style="stroke: #000000; stroke-width: 0.8"/>
      </g>
     </g>
     <g id="text_4">
      <!-- −2 -->
      <g transform="translate(149.850645 170.282128) scale(0.1 -0.1)">
       <defs>
        <path id="DejaVuSans-32" d="M 1228 531 
L 3431 531 
L 3431 0 
L 469 0 
L 469 531 
Q 828 903 1448 1529 
Q 2069 2156 2228 2338 
Q 2531 2678 2651 2914 
Q 2772 3150 2772 3378 
Q 2772 3750 2511 3984 
Q 2250 4219 1831 4219 
Q 1534 4219 1204 4116 
Q 875 4013 500 3803 
L 500 4441 
Q 881 4594 1212 4672 
Q 1544 4750 1819 4750 
Q 2544 4750 2975 4387 
Q 3406 4025 3406 3419 
Q 3406 3131 3298 2873 
Q 3191 2616 2906 2266 
Q 2828 2175 2409 1742 
Q 1991 1309 1228 531 
z
" transform="scale(0.015625)"/>
       </defs>
       <use xlink:href="#DejaVuSans-2212"/>
       <use xlink:href="#DejaVuSans-32" x="83.789062"/>
      </g>
     </g>
    </g>
    <g id="xtick_5">
     <g id="line2d_5">
      <g>
       <use xlink:href="#m41ccd5c858" x="193.070742" y="155.68369" style="stroke: #000000; stroke-width: 0.8"/>
      </g>
     </g>
     <g id="text_5">
      <!-- 0 -->
      <g transform="translate(189.889492 170.282128) scale(0.1 -0.1)">
       <defs>
        <path id="DejaVuSans-30" d="M 2034 4250 
Q 1547 4250 1301 3770 
Q 1056 3291 1056 2328 
Q 1056 1369 1301 889 
Q 1547 409 2034 409 
Q 2525 409 2770 889 
Q 3016 1369 3016 2328 
Q 3016 3291 2770 3770 
Q 2525 4250 2034 4250 
z
M 2034 4750 
Q 2819 4750 3233 4129 
Q 3647 3509 3647 2328 
Q 3647 1150 3233 529 
Q 2819 -91 2034 -91 
Q 1250 -91 836 529 
Q 422 1150 422 2328 
Q 422 3509 836 4129 
Q 1250 4750 2034 4750 
z
" transform="scale(0.015625)"/>
       </defs>
       <use xlink:href="#DejaVuSans-30"/>
      </g>
     </g>
    </g>
    <g id="xtick_6">
     <g id="line2d_6">
      <g>
       <use xlink:href="#m41ccd5c858" x="228.919746" y="155.68369" style="stroke: #000000; stroke-width: 0.8"/>
      </g>
     </g>
     <g id="text_6">
      <!-- 2 -->
      <g transform="translate(225.738496 170.282128) scale(0.1 -0.1)">
       <use xlink:href="#DejaVuSans-32"/>
      </g>
     </g>
    </g>
    <g id="xtick_7">
     <g id="line2d_7">
      <g>
       <use xlink:href="#m41ccd5c858" x="264.76875" y="155.68369" style="stroke: #000000; stroke-width: 0.8"/>
      </g>
     </g>
     <g id="text_7">
      <!-- 4 -->
      <g transform="translate(261.5875 170.282128) scale(0.1 -0.1)">
       <use xlink:href="#DejaVuSans-34"/>
      </g>
     </g>
    </g>
    <g id="xtick_8">
     <g id="line2d_8">
      <g>
       <use xlink:href="#m41ccd5c858" x="300.617754" y="155.68369" style="stroke: #000000; stroke-width: 0.8"/>
      </g>
     </g>
     <g id="text_8">
      <!-- 6 -->
      <g transform="translate(297.436504 170.282128) scale(0.1 -0.1)">
       <use xlink:href="#DejaVuSans-36"/>
      </g>
     </g>
    </g>
    <g id="xtick_9">
     <g id="line2d_9">
      <g>
       <use xlink:href="#m41ccd5c858" x="336.466758" y="155.68369" style="stroke: #000000; stroke-width: 0.8"/>
      </g>
     </g>
     <g id="text_9">
      <!-- 8 -->
      <g transform="translate(333.285508 170.282128) scale(0.1 -0.1)">
       <use xlink:href="#DejaVuSans-38"/>
      </g>
     </g>
    </g>
    <g id="text_10">
     <!-- x -->
     <g transform="translate(188.63168 187.759471) scale(0.15 -0.15)">
      <defs>
       <path id="DejaVuSans-78" d="M 3513 3500 
L 2247 1797 
L 3578 0 
L 2900 0 
L 1881 1375 
L 863 0 
L 184 0 
L 1544 1831 
L 300 3500 
L 978 3500 
L 1906 2253 
L 2834 3500 
L 3513 3500 
z
" transform="scale(0.015625)"/>
      </defs>
      <use xlink:href="#DejaVuSans-78"/>
     </g>
    </g>
   </g>
   <g id="matplotlib.axis_2">
    <g id="ytick_1">
     <g id="line2d_10">
      <defs>
       <path id="m118f8c6db7" d="M 0 0 
L -3.5 0 
" style="stroke: #000000; stroke-width: 0.8"/>
      </defs>
      <g>
       <use xlink:href="#m118f8c6db7" x="35.335125" y="149.613458" style="stroke: #000000; stroke-width: 0.8"/>
      </g>
     </g>
     <g id="text_11">
      <!-- 0.00 -->
      <g transform="translate(6.0695 153.412677) scale(0.1 -0.1)">
       <defs>
        <path id="DejaVuSans-2e" d="M 684 794 
L 1344 794 
L 1344 0 
L 684 0 
L 684 794 
z
" transform="scale(0.015625)"/>
       </defs>
       <use xlink:href="#DejaVuSans-30"/>
       <use xlink:href="#DejaVuSans-2e" x="63.623047"/>
       <use xlink:href="#DejaVuSans-30" x="95.410156"/>
       <use xlink:href="#DejaVuSans-30" x="159.033203"/>
      </g>
     </g>
    </g>
    <g id="ytick_2">
     <g id="line2d_11">
      <g>
       <use xlink:href="#m118f8c6db7" x="35.335125" y="120.164636" style="stroke: #000000; stroke-width: 0.8"/>
      </g>
     </g>
     <g id="text_12">
      <!-- 0.25 -->
      <g transform="translate(6.0695 123.963855) scale(0.1 -0.1)">
       <defs>
        <path id="DejaVuSans-35" d="M 691 4666 
L 3169 4666 
L 3169 4134 
L 1269 4134 
L 1269 2991 
Q 1406 3038 1543 3061 
Q 1681 3084 1819 3084 
Q 2600 3084 3056 2656 
Q 3513 2228 3513 1497 
Q 3513 744 3044 326 
Q 2575 -91 1722 -91 
Q 1428 -91 1123 -41 
Q 819 9 494 109 
L 494 744 
Q 775 591 1075 516 
Q 1375 441 1709 441 
Q 2250 441 2565 725 
Q 2881 1009 2881 1497 
Q 2881 1984 2565 2268 
Q 2250 2553 1709 2553 
Q 1456 2553 1204 2497 
Q 953 2441 691 2322 
L 691 4666 
z
" transform="scale(0.015625)"/>
       </defs>
       <use xlink:href="#DejaVuSans-30"/>
       <use xlink:href="#DejaVuSans-2e" x="63.623047"/>
       <use xlink:href="#DejaVuSans-32" x="95.410156"/>
       <use xlink:href="#DejaVuSans-35" x="159.033203"/>
      </g>
     </g>
    </g>
    <g id="ytick_3">
     <g id="line2d_12">
      <g>
       <use xlink:href="#m118f8c6db7" x="35.335125" y="90.715814" style="stroke: #000000; stroke-width: 0.8"/>
      </g>
     </g>
     <g id="text_13">
      <!-- 0.50 -->
      <g transform="translate(6.0695 94.515033) scale(0.1 -0.1)">
       <use xlink:href="#DejaVuSans-30"/>
       <use xlink:href="#DejaVuSans-2e" x="63.623047"/>
       <use xlink:href="#DejaVuSans-35" x="95.410156"/>
       <use xlink:href="#DejaVuSans-30" x="159.033203"/>
      </g>
     </g>
    </g>
    <g id="ytick_4">
     <g id="line2d_13">
      <g>
       <use xlink:href="#m118f8c6db7" x="35.335125" y="61.266992" style="stroke: #000000; stroke-width: 0.8"/>
      </g>
     </g>
     <g id="text_14">
      <!-- 0.75 -->
      <g transform="translate(6.0695 65.06621) scale(0.1 -0.1)">
       <defs>
        <path id="DejaVuSans-37" d="M 525 4666 
L 3525 4666 
L 3525 4397 
L 1831 0 
L 1172 0 
L 2766 4134 
L 525 4134 
L 525 4666 
z
" transform="scale(0.015625)"/>
       </defs>
       <use xlink:href="#DejaVuSans-30"/>
       <use xlink:href="#DejaVuSans-2e" x="63.623047"/>
       <use xlink:href="#DejaVuSans-37" x="95.410156"/>
       <use xlink:href="#DejaVuSans-35" x="159.033203"/>
      </g>
     </g>
    </g>
    <g id="ytick_5">
     <g id="line2d_14">
      <g>
       <use xlink:href="#m118f8c6db7" x="35.335125" y="31.818169" style="stroke: #000000; stroke-width: 0.8"/>
      </g>
     </g>
     <g id="text_15">
      <!-- 1.00 -->
      <g transform="translate(6.0695 35.617388) scale(0.1 -0.1)">
       <defs>
        <path id="DejaVuSans-31" d="M 794 531 
L 1825 531 
L 1825 4091 
L 703 3866 
L 703 4441 
L 1819 4666 
L 2450 4666 
L 2450 531 
L 3481 531 
L 3481 0 
L 794 0 
L 794 531 
z
" transform="scale(0.015625)"/>
       </defs>
       <use xlink:href="#DejaVuSans-31"/>
       <use xlink:href="#DejaVuSans-2e" x="63.623047"/>
       <use xlink:href="#DejaVuSans-30" x="95.410156"/>
       <use xlink:href="#DejaVuSans-30" x="159.033203"/>
      </g>
     </g>
    </g>
   </g>
   <g id="line2d_15">
    <path d="M 49.674727 149.573956 
L 58.636978 149.548343 
L 67.599229 149.50614 
L 76.561479 149.436623 
L 85.52373 149.322185 
L 94.485981 149.133985 
L 103.448232 148.824986 
L 112.410483 148.319009 
L 121.372734 147.494116 
L 130.334985 146.158883 
L 139.297236 144.022418 
L 148.259487 140.666463 
L 157.221738 135.545157 
L 166.183989 128.065703 
L 175.14624 117.817147 
L 184.108491 104.941881 
L 193.070742 90.42862 
L 202.032993 75.945737 
L 210.995244 63.149761 
L 219.957495 53.001844 
L 228.919746 45.617483 
L 237.881997 40.569982 
L 246.844248 37.261541 
L 255.806499 35.146404 
L 264.76875 33.80631 
L 273.731001 32.946802 
L 282.693252 32.366605 
L 291.655503 31.924255 
L 300.617754 31.508818 
L 309.580005 31.01366 
L 318.542256 30.308542 
L 327.504507 29.202021 
L 336.466758 27.379266 
" clip-path="url(#p8b4ebb5489)" style="fill: none; stroke: #1f77b4; stroke-width: 2; stroke-linecap: square"/>
   </g>
   <g id="line2d_16">
    <path d="M 49.674727 149.573956 
L 58.636978 149.548343 
L 67.599229 149.506141 
L 76.561479 149.436626 
L 85.52373 149.322195 
L 94.485981 149.134015 
L 103.448232 148.825072 
L 112.410483 148.319248 
L 121.372734 147.494767 
L 130.334985 146.160616 
L 139.297236 144.026914 
L 148.259487 140.677722 
L 157.221738 135.571916 
L 166.183989 128.124591 
L 175.14624 117.933426 
L 184.108491 105.140946 
L 193.070742 90.715814 
L 202.032993 76.290682 
L 210.995244 63.498202 
L 219.957495 53.307037 
L 228.919746 45.859712 
L 237.881997 40.753906 
L 246.844248 37.404714 
L 255.806499 35.271012 
L 264.76875 33.93686 
L 273.731001 33.11238 
L 282.693252 32.606556 
L 291.655503 32.297613 
L 300.617754 32.109433 
L 309.580005 31.995002 
L 318.542256 31.925487 
L 327.504507 31.883284 
L 336.466758 31.857672 
" clip-path="url(#p8b4ebb5489)" style="fill: none; stroke: #ff7f0e; stroke-linecap: square"/>
   </g>
   <g id="patch_3">
    <path d="M 35.335125 155.68369 
L 35.335125 21.269531 
" style="fill: none; stroke: #000000; stroke-width: 0.8; stroke-linejoin: miter; stroke-linecap: square"/>
   </g>
   <g id="patch_4">
    <path d="M 350.806359 155.68369 
L 350.806359 21.269531 
" style="fill: none; stroke: #000000; stroke-width: 0.8; stroke-linejoin: miter; stroke-linecap: square"/>
   </g>
   <g id="patch_5">
    <path d="M 35.335125 155.68369 
L 350.806359 155.68369 
" style="fill: none; stroke: #000000; stroke-width: 0.8; stroke-linejoin: miter; stroke-linecap: square"/>
   </g>
   <g id="patch_6">
    <path d="M 35.335125 21.269531 
L 350.806359 21.269531 
" style="fill: none; stroke: #000000; stroke-width: 0.8; stroke-linejoin: miter; stroke-linecap: square"/>
   </g>
   <g id="text_16">
    <!-- a -->
    <g transform="translate(13.252139 12.505064) scale(0.15 -0.15)">
     <defs>
      <path id="DejaVuSans-Bold-61" d="M 2106 1575 
Q 1756 1575 1579 1456 
Q 1403 1338 1403 1106 
Q 1403 894 1545 773 
Q 1688 653 1941 653 
Q 2256 653 2472 879 
Q 2688 1106 2688 1447 
L 2688 1575 
L 2106 1575 
z
M 3816 1997 
L 3816 0 
L 2688 0 
L 2688 519 
Q 2463 200 2181 54 
Q 1900 -91 1497 -91 
Q 953 -91 614 226 
Q 275 544 275 1050 
Q 275 1666 698 1953 
Q 1122 2241 2028 2241 
L 2688 2241 
L 2688 2328 
Q 2688 2594 2478 2717 
Q 2269 2841 1825 2841 
Q 1466 2841 1156 2769 
Q 847 2697 581 2553 
L 581 3406 
Q 941 3494 1303 3539 
Q 1666 3584 2028 3584 
Q 2975 3584 3395 3211 
Q 3816 2838 3816 1997 
z
" transform="scale(0.015625)"/>
     </defs>
     <use xlink:href="#DejaVuSans-Bold-61"/>
    </g>
   </g>
   <g id="text_17">
    <!-- $\mathrm{x_0}$ = -8.0, $\mathrm{\Delta x}$ = 0.5 -->
    <g transform="translate(136.190742 15.269531) scale(0.12 -0.12)">
     <defs>
      <path id="DejaVuSans-20" transform="scale(0.015625)"/>
      <path id="DejaVuSans-3d" d="M 678 2906 
L 4684 2906 
L 4684 2381 
L 678 2381 
L 678 2906 
z
M 678 1631 
L 4684 1631 
L 4684 1100 
L 678 1100 
L 678 1631 
z
" transform="scale(0.015625)"/>
      <path id="DejaVuSans-2d" d="M 313 2009 
L 1997 2009 
L 1997 1497 
L 313 1497 
L 313 2009 
z
" transform="scale(0.015625)"/>
      <path id="DejaVuSans-2c" d="M 750 794 
L 1409 794 
L 1409 256 
L 897 -744 
L 494 -744 
L 750 256 
L 750 794 
z
" transform="scale(0.015625)"/>
      <path id="DejaVuSans-394" d="M 2188 4044 
L 906 525 
L 3472 525 
L 2188 4044 
z
M 50 0 
L 1831 4666 
L 2547 4666 
L 4325 0 
L 50 0 
z
" transform="scale(0.015625)"/>
     </defs>
     <use xlink:href="#DejaVuSans-78" transform="translate(0 0.78125)"/>
     <use xlink:href="#DejaVuSans-30" transform="translate(60.136719 -15.625) scale(0.7)"/>
     <use xlink:href="#DejaVuSans-20" transform="translate(107.407227 0.78125)"/>
     <use xlink:href="#DejaVuSans-3d" transform="translate(139.194336 0.78125)"/>
     <use xlink:href="#DejaVuSans-20" transform="translate(222.983398 0.78125)"/>
     <use xlink:href="#DejaVuSans-2d" transform="translate(254.770508 0.78125)"/>
     <use xlink:href="#DejaVuSans-38" transform="translate(290.854492 0.78125)"/>
     <use xlink:href="#DejaVuSans-2e" transform="translate(354.477539 0.78125)"/>
     <use xlink:href="#DejaVuSans-30" transform="translate(386.264648 0.78125)"/>
     <use xlink:href="#DejaVuSans-2c" transform="translate(449.887695 0.78125)"/>
     <use xlink:href="#DejaVuSans-20" transform="translate(481.674805 0.78125)"/>
     <use xlink:href="#DejaVuSans-394" transform="translate(513.461914 0.78125)"/>
     <use xlink:href="#DejaVuSans-78" transform="translate(581.870117 0.78125)"/>
     <use xlink:href="#DejaVuSans-20" transform="translate(641.049805 0.78125)"/>
     <use xlink:href="#DejaVuSans-3d" transform="translate(672.836914 0.78125)"/>
     <use xlink:href="#DejaVuSans-20" transform="translate(756.625977 0.78125)"/>
     <use xlink:href="#DejaVuSans-30" transform="translate(788.413086 0.78125)"/>
     <use xlink:href="#DejaVuSans-2e" transform="translate(852.036133 0.78125)"/>
     <use xlink:href="#DejaVuSans-35" transform="translate(883.823242 0.78125)"/>
    </g>
   </g>
   <g id="legend_1">
    <g id="patch_7">
     <path d="M 256.406359 150.68369 
L 343.806359 150.68369 
Q 345.806359 150.68369 345.806359 148.68369 
L 345.806359 116.205565 
Q 345.806359 114.205565 343.806359 114.205565 
L 256.406359 114.205565 
Q 254.406359 114.205565 254.406359 116.205565 
L 254.406359 148.68369 
Q 254.406359 150.68369 256.406359 150.68369 
z
" style="fill: #ffffff; opacity: 0.8; stroke: #cccccc; stroke-linejoin: miter"/>
    </g>
    <g id="line2d_17">
     <path d="M 258.406359 122.304003 
L 268.406359 122.304003 
L 278.406359 122.304003 
" style="fill: none; stroke: #1f77b4; stroke-width: 2; stroke-linecap: square"/>
    </g>
    <g id="text_18">
     <!-- EdSr f(x) -->
     <g transform="translate(286.406359 125.804003) scale(0.1 -0.1)">
      <defs>
       <path id="DejaVuSans-45" d="M 628 4666 
L 3578 4666 
L 3578 4134 
L 1259 4134 
L 1259 2753 
L 3481 2753 
L 3481 2222 
L 1259 2222 
L 1259 531 
L 3634 531 
L 3634 0 
L 628 0 
L 628 4666 
z
" transform="scale(0.015625)"/>
       <path id="DejaVuSans-64" d="M 2906 2969 
L 2906 4863 
L 3481 4863 
L 3481 0 
L 2906 0 
L 2906 525 
Q 2725 213 2448 61 
Q 2172 -91 1784 -91 
Q 1150 -91 751 415 
Q 353 922 353 1747 
Q 353 2572 751 3078 
Q 1150 3584 1784 3584 
Q 2172 3584 2448 3432 
Q 2725 3281 2906 2969 
z
M 947 1747 
Q 947 1113 1208 752 
Q 1469 391 1925 391 
Q 2381 391 2643 752 
Q 2906 1113 2906 1747 
Q 2906 2381 2643 2742 
Q 2381 3103 1925 3103 
Q 1469 3103 1208 2742 
Q 947 2381 947 1747 
z
" transform="scale(0.015625)"/>
       <path id="DejaVuSans-53" d="M 3425 4513 
L 3425 3897 
Q 3066 4069 2747 4153 
Q 2428 4238 2131 4238 
Q 1616 4238 1336 4038 
Q 1056 3838 1056 3469 
Q 1056 3159 1242 3001 
Q 1428 2844 1947 2747 
L 2328 2669 
Q 3034 2534 3370 2195 
Q 3706 1856 3706 1288 
Q 3706 609 3251 259 
Q 2797 -91 1919 -91 
Q 1588 -91 1214 -16 
Q 841 59 441 206 
L 441 856 
Q 825 641 1194 531 
Q 1563 422 1919 422 
Q 2459 422 2753 634 
Q 3047 847 3047 1241 
Q 3047 1584 2836 1778 
Q 2625 1972 2144 2069 
L 1759 2144 
Q 1053 2284 737 2584 
Q 422 2884 422 3419 
Q 422 4038 858 4394 
Q 1294 4750 2059 4750 
Q 2388 4750 2728 4690 
Q 3069 4631 3425 4513 
z
" transform="scale(0.015625)"/>
       <path id="DejaVuSans-72" d="M 2631 2963 
Q 2534 3019 2420 3045 
Q 2306 3072 2169 3072 
Q 1681 3072 1420 2755 
Q 1159 2438 1159 1844 
L 1159 0 
L 581 0 
L 581 3500 
L 1159 3500 
L 1159 2956 
Q 1341 3275 1631 3429 
Q 1922 3584 2338 3584 
Q 2397 3584 2469 3576 
Q 2541 3569 2628 3553 
L 2631 2963 
z
" transform="scale(0.015625)"/>
       <path id="DejaVuSans-66" d="M 2375 4863 
L 2375 4384 
L 1825 4384 
Q 1516 4384 1395 4259 
Q 1275 4134 1275 3809 
L 1275 3500 
L 2222 3500 
L 2222 3053 
L 1275 3053 
L 1275 0 
L 697 0 
L 697 3053 
L 147 3053 
L 147 3500 
L 697 3500 
L 697 3744 
Q 697 4328 969 4595 
Q 1241 4863 1831 4863 
L 2375 4863 
z
" transform="scale(0.015625)"/>
       <path id="DejaVuSans-28" d="M 1984 4856 
Q 1566 4138 1362 3434 
Q 1159 2731 1159 2009 
Q 1159 1288 1364 580 
Q 1569 -128 1984 -844 
L 1484 -844 
Q 1016 -109 783 600 
Q 550 1309 550 2009 
Q 550 2706 781 3412 
Q 1013 4119 1484 4856 
L 1984 4856 
z
" transform="scale(0.015625)"/>
       <path id="DejaVuSans-29" d="M 513 4856 
L 1013 4856 
Q 1481 4119 1714 3412 
Q 1947 2706 1947 2009 
Q 1947 1309 1714 600 
Q 1481 -109 1013 -844 
L 513 -844 
Q 928 -128 1133 580 
Q 1338 1288 1338 2009 
Q 1338 2731 1133 3434 
Q 928 4138 513 4856 
z
" transform="scale(0.015625)"/>
      </defs>
      <use xlink:href="#DejaVuSans-45"/>
      <use xlink:href="#DejaVuSans-64" x="63.183594"/>
      <use xlink:href="#DejaVuSans-53" x="126.660156"/>
      <use xlink:href="#DejaVuSans-72" x="190.136719"/>
      <use xlink:href="#DejaVuSans-20" x="231.25"/>
      <use xlink:href="#DejaVuSans-66" x="263.037109"/>
      <use xlink:href="#DejaVuSans-28" x="298.242188"/>
      <use xlink:href="#DejaVuSans-78" x="337.255859"/>
      <use xlink:href="#DejaVuSans-29" x="396.435547"/>
     </g>
    </g>
    <g id="line2d_18">
     <path d="M 258.406359 138.88369 
L 268.406359 138.88369 
L 278.406359 138.88369 
" style="fill: none; stroke: #ff7f0e; stroke-linecap: square"/>
    </g>
    <g id="text_19">
     <!-- $\mathrm{f(x) = \frac{1}{1 + e^{-x}}}$ -->
     <g transform="translate(286.406359 142.38369) scale(0.1 -0.1)">
      <defs>
       <path id="DejaVuSans-2b" d="M 2944 4013 
L 2944 2272 
L 4684 2272 
L 4684 1741 
L 2944 1741 
L 2944 0 
L 2419 0 
L 2419 1741 
L 678 1741 
L 678 2272 
L 2419 2272 
L 2419 4013 
L 2944 4013 
z
" transform="scale(0.015625)"/>
       <path id="DejaVuSans-65" d="M 3597 1894 
L 3597 1613 
L 953 1613 
Q 991 1019 1311 708 
Q 1631 397 2203 397 
Q 2534 397 2845 478 
Q 3156 559 3463 722 
L 3463 178 
Q 3153 47 2828 -22 
Q 2503 -91 2169 -91 
Q 1331 -91 842 396 
Q 353 884 353 1716 
Q 353 2575 817 3079 
Q 1281 3584 2069 3584 
Q 2775 3584 3186 3129 
Q 3597 2675 3597 1894 
z
M 3022 2063 
Q 3016 2534 2758 2815 
Q 2500 3097 2075 3097 
Q 1594 3097 1305 2825 
Q 1016 2553 972 2059 
L 3022 2063 
z
" transform="scale(0.015625)"/>
      </defs>
      <use xlink:href="#DejaVuSans-66" transform="translate(0 0.16875)"/>
      <use xlink:href="#DejaVuSans-28" transform="translate(35.205078 0.16875)"/>
      <use xlink:href="#DejaVuSans-78" transform="translate(74.21875 0.16875)"/>
      <use xlink:href="#DejaVuSans-29" transform="translate(133.398438 0.16875)"/>
      <use xlink:href="#DejaVuSans-3d" transform="translate(191.894531 0.16875)"/>
      <use xlink:href="#DejaVuSans-31" transform="translate(396.166016 43.965625) scale(0.7)"/>
      <use xlink:href="#DejaVuSans-31" transform="translate(295.166016 -40.878125) scale(0.7)"/>
      <use xlink:href="#DejaVuSans-2b" transform="translate(353.339844 -40.878125) scale(0.7)"/>
      <use xlink:href="#DejaVuSans-65" transform="translate(425.629883 -40.878125) scale(0.7)"/>
      <use xlink:href="#DejaVuSans-2212" transform="translate(469.366211 -14.08125) scale(0.49)"/>
      <use xlink:href="#DejaVuSans-78" transform="translate(510.422852 -14.08125) scale(0.49)"/>
      <path d="M 295.166016 18.965625 
L 295.166016 25.215625 
L 541.334961 25.215625 
L 541.334961 18.965625 
L 295.166016 18.965625 
z
"/>
     </g>
    </g>
   </g>
  </g>
  <g id="axes_2">
   <g id="patch_8">
    <path d="M 398.442516 155.68369 
L 713.91375 155.68369 
L 713.91375 21.269531 
L 398.442516 21.269531 
z
" style="fill: #ffffff"/>
   </g>
   <g id="matplotlib.axis_3">
    <g id="xtick_10">
     <g id="line2d_19">
      <g>
       <use xlink:href="#m41ccd5c858" x="412.782117" y="155.68369" style="stroke: #000000; stroke-width: 0.8"/>
      </g>
     </g>
     <g id="text_20">
      <!-- −8 -->
      <g transform="translate(405.411023 170.282128) scale(0.1 -0.1)">
       <use xlink:href="#DejaVuSans-2212"/>
       <use xlink:href="#DejaVuSans-38" x="83.789062"/>
      </g>
     </g>
    </g>
    <g id="xtick_11">
     <g id="line2d_20">
      <g>
       <use xlink:href="#m41ccd5c858" x="448.631121" y="155.68369" style="stroke: #000000; stroke-width: 0.8"/>
      </g>
     </g>
     <g id="text_21">
      <!-- −6 -->
      <g transform="translate(441.260027 170.282128) scale(0.1 -0.1)">
       <use xlink:href="#DejaVuSans-2212"/>
       <use xlink:href="#DejaVuSans-36" x="83.789062"/>
      </g>
     </g>
    </g>
    <g id="xtick_12">
     <g id="line2d_21">
      <g>
       <use xlink:href="#m41ccd5c858" x="484.480125" y="155.68369" style="stroke: #000000; stroke-width: 0.8"/>
      </g>
     </g>
     <g id="text_22">
      <!-- −4 -->
      <g transform="translate(477.109031 170.282128) scale(0.1 -0.1)">
       <use xlink:href="#DejaVuSans-2212"/>
       <use xlink:href="#DejaVuSans-34" x="83.789062"/>
      </g>
     </g>
    </g>
    <g id="xtick_13">
     <g id="line2d_22">
      <g>
       <use xlink:href="#m41ccd5c858" x="520.329129" y="155.68369" style="stroke: #000000; stroke-width: 0.8"/>
      </g>
     </g>
     <g id="text_23">
      <!-- −2 -->
      <g transform="translate(512.958035 170.282128) scale(0.1 -0.1)">
       <use xlink:href="#DejaVuSans-2212"/>
       <use xlink:href="#DejaVuSans-32" x="83.789062"/>
      </g>
     </g>
    </g>
    <g id="xtick_14">
     <g id="line2d_23">
      <g>
       <use xlink:href="#m41ccd5c858" x="556.178133" y="155.68369" style="stroke: #000000; stroke-width: 0.8"/>
      </g>
     </g>
     <g id="text_24">
      <!-- 0 -->
      <g transform="translate(552.996883 170.282128) scale(0.1 -0.1)">
       <use xlink:href="#DejaVuSans-30"/>
      </g>
     </g>
    </g>
    <g id="xtick_15">
     <g id="line2d_24">
      <g>
       <use xlink:href="#m41ccd5c858" x="592.027137" y="155.68369" style="stroke: #000000; stroke-width: 0.8"/>
      </g>
     </g>
     <g id="text_25">
      <!-- 2 -->
      <g transform="translate(588.845887 170.282128) scale(0.1 -0.1)">
       <use xlink:href="#DejaVuSans-32"/>
      </g>
     </g>
    </g>
    <g id="xtick_16">
     <g id="line2d_25">
      <g>
       <use xlink:href="#m41ccd5c858" x="627.876141" y="155.68369" style="stroke: #000000; stroke-width: 0.8"/>
      </g>
     </g>
     <g id="text_26">
      <!-- 4 -->
      <g transform="translate(624.694891 170.282128) scale(0.1 -0.1)">
       <use xlink:href="#DejaVuSans-34"/>
      </g>
     </g>
    </g>
    <g id="xtick_17">
     <g id="line2d_26">
      <g>
       <use xlink:href="#m41ccd5c858" x="663.725145" y="155.68369" style="stroke: #000000; stroke-width: 0.8"/>
      </g>
     </g>
     <g id="text_27">
      <!-- 6 -->
      <g transform="translate(660.543895 170.282128) scale(0.1 -0.1)">
       <use xlink:href="#DejaVuSans-36"/>
      </g>
     </g>
    </g>
    <g id="xtick_18">
     <g id="line2d_27">
      <g>
       <use xlink:href="#m41ccd5c858" x="699.574148" y="155.68369" style="stroke: #000000; stroke-width: 0.8"/>
      </g>
     </g>
     <g id="text_28">
      <!-- 8 -->
      <g transform="translate(696.392898 170.282128) scale(0.1 -0.1)">
       <use xlink:href="#DejaVuSans-38"/>
      </g>
     </g>
    </g>
    <g id="text_29">
     <!-- x -->
     <g transform="translate(551.73907 187.759471) scale(0.15 -0.15)">
      <use xlink:href="#DejaVuSans-78"/>
     </g>
    </g>
   </g>
   <g id="matplotlib.axis_4">
    <g id="ytick_6">
     <g id="line2d_28">
      <g>
       <use xlink:href="#m118f8c6db7" x="398.442516" y="132.798063" style="stroke: #000000; stroke-width: 0.8"/>
      </g>
     </g>
     <g id="text_30">
      <!-- $\mathdefault{10^{-8}}$ -->
      <g transform="translate(367.942516 136.597282) scale(0.1 -0.1)">
       <use xlink:href="#DejaVuSans-31" transform="translate(0 0.765625)"/>
       <use xlink:href="#DejaVuSans-30" transform="translate(63.623047 0.765625)"/>
       <use xlink:href="#DejaVuSans-2212" transform="translate(128.203125 39.046875) scale(0.7)"/>
       <use xlink:href="#DejaVuSans-38" transform="translate(186.855469 39.046875) scale(0.7)"/>
      </g>
     </g>
    </g>
    <g id="ytick_7">
     <g id="line2d_29">
      <g>
       <use xlink:href="#m118f8c6db7" x="398.442516" y="100.828067" style="stroke: #000000; stroke-width: 0.8"/>
      </g>
     </g>
     <g id="text_31">
      <!-- $\mathdefault{10^{-6}}$ -->
      <g transform="translate(367.942516 104.627286) scale(0.1 -0.1)">
       <use xlink:href="#DejaVuSans-31" transform="translate(0 0.765625)"/>
       <use xlink:href="#DejaVuSans-30" transform="translate(63.623047 0.765625)"/>
       <use xlink:href="#DejaVuSans-2212" transform="translate(128.203125 39.046875) scale(0.7)"/>
       <use xlink:href="#DejaVuSans-36" transform="translate(186.855469 39.046875) scale(0.7)"/>
      </g>
     </g>
    </g>
    <g id="ytick_8">
     <g id="line2d_30">
      <g>
       <use xlink:href="#m118f8c6db7" x="398.442516" y="68.858071" style="stroke: #000000; stroke-width: 0.8"/>
      </g>
     </g>
     <g id="text_32">
      <!-- $\mathdefault{10^{-4}}$ -->
      <g transform="translate(367.942516 72.65729) scale(0.1 -0.1)">
       <use xlink:href="#DejaVuSans-31" transform="translate(0 0.684375)"/>
       <use xlink:href="#DejaVuSans-30" transform="translate(63.623047 0.684375)"/>
       <use xlink:href="#DejaVuSans-2212" transform="translate(128.203125 38.965625) scale(0.7)"/>
       <use xlink:href="#DejaVuSans-34" transform="translate(186.855469 38.965625) scale(0.7)"/>
      </g>
     </g>
    </g>
    <g id="ytick_9">
     <g id="line2d_31">
      <g>
       <use xlink:href="#m118f8c6db7" x="398.442516" y="36.888075" style="stroke: #000000; stroke-width: 0.8"/>
      </g>
     </g>
     <g id="text_33">
      <!-- $\mathdefault{10^{-2}}$ -->
      <g transform="translate(367.942516 40.687293) scale(0.1 -0.1)">
       <use xlink:href="#DejaVuSans-31" transform="translate(0 0.765625)"/>
       <use xlink:href="#DejaVuSans-30" transform="translate(63.623047 0.765625)"/>
       <use xlink:href="#DejaVuSans-2212" transform="translate(128.203125 39.046875) scale(0.7)"/>
       <use xlink:href="#DejaVuSans-32" transform="translate(186.855469 39.046875) scale(0.7)"/>
      </g>
     </g>
    </g>
   </g>
   <g id="line2d_32">
    <path d="M 421.609629 387.71875 
L 421.744368 149.573956 
L 430.706619 135.746696 
L 439.66887 126.131291 
L 448.631121 117.894946 
L 457.593372 110.278096 
L 466.555623 102.988695 
L 475.517874 95.899758 
L 484.480125 88.960287 
L 493.442376 82.164843 
L 502.404627 75.545055 
L 511.366878 69.171692 
L 520.329129 63.161975 
L 529.29138 57.686155 
L 538.253631 52.963021 
L 547.215882 49.230604 
L 556.178133 46.686118 
L 565.140384 45.414133 
L 574.102635 45.34412 
L 583.064886 46.264131 
L 592.027137 47.868185 
L 600.989388 49.779803 
L 609.951639 51.518628 
L 618.91389 52.482735 
L 627.876141 52.159321 
L 636.838392 50.509303 
L 645.800643 47.933814 
L 654.762894 44.86463 
L 663.725145 41.564195 
L 672.687396 38.15581 
L 681.649646 34.689062 
L 690.611897 31.17805 
L 699.574148 27.616846 
" clip-path="url(#pa711bd98e2)" style="fill: none; stroke: #1f77b4; stroke-width: 2; stroke-linecap: square"/>
   </g>
   <g id="line2d_33">
    <path d="M 421.60228 387.71875 
L 421.744368 136.375612 
L 430.706619 126.89524 
L 439.66887 118.933155 
L 448.631121 111.489867 
L 457.593372 104.299287 
L 466.555623 97.263562 
L 475.517874 90.348682 
L 484.480125 83.557809 
L 493.442376 76.926649 
L 502.404627 70.529253 
L 511.366878 64.491609 
L 520.329129 59.011866 
L 529.29138 54.38447 
L 538.253631 51.023999 
L 547.215882 49.500302 
L 556.178133 50.727006 
L 565.140384 57.9253 
L 574.102635 57.694122 
L 583.064886 52.416858 
L 592.027137 52.002034 
L 600.989388 53.697472 
L 609.951639 57.388099 
L 618.91389 67.611811 
L 627.876141 60.640447 
L 636.838392 53.697928 
L 645.800643 49.228493 
L 654.762894 45.398494 
L 663.725145 41.775843 
L 672.687396 38.214441 
L 681.649646 34.653145 
L 690.611897 31.054517 
L 699.574148 27.379266 
" clip-path="url(#pa711bd98e2)" style="fill: none; stroke: #ff7f0e; stroke-linecap: square"/>
   </g>
   <g id="patch_9">
    <path d="M 398.442516 155.68369 
L 398.442516 21.269531 
" style="fill: none; stroke: #000000; stroke-width: 0.8; stroke-linejoin: miter; stroke-linecap: square"/>
   </g>
   <g id="patch_10">
    <path d="M 713.91375 155.68369 
L 713.91375 21.269531 
" style="fill: none; stroke: #000000; stroke-width: 0.8; stroke-linejoin: miter; stroke-linecap: square"/>
   </g>
   <g id="patch_11">
    <path d="M 398.442516 155.68369 
L 713.91375 155.68369 
" style="fill: none; stroke: #000000; stroke-width: 0.8; stroke-linejoin: miter; stroke-linecap: square"/>
   </g>
   <g id="patch_12">
    <path d="M 398.442516 21.269531 
L 713.91375 21.269531 
" style="fill: none; stroke: #000000; stroke-width: 0.8; stroke-linejoin: miter; stroke-linecap: square"/>
   </g>
   <g id="text_34">
    <!-- a -->
    <g transform="translate(376.359529 12.505064) scale(0.15 -0.15)">
     <use xlink:href="#DejaVuSans-Bold-61"/>
    </g>
   </g>
   <g id="text_35">
    <!-- AbsVE compared with $\mathrm{f(x) = \frac{1}{1 + e^{-x}}}$ -->
    <g transform="translate(455.258133 15.269531) scale(0.12 -0.12)">
     <defs>
      <path id="DejaVuSans-41" d="M 2188 4044 
L 1331 1722 
L 3047 1722 
L 2188 4044 
z
M 1831 4666 
L 2547 4666 
L 4325 0 
L 3669 0 
L 3244 1197 
L 1141 1197 
L 716 0 
L 50 0 
L 1831 4666 
z
" transform="scale(0.015625)"/>
      <path id="DejaVuSans-62" d="M 3116 1747 
Q 3116 2381 2855 2742 
Q 2594 3103 2138 3103 
Q 1681 3103 1420 2742 
Q 1159 2381 1159 1747 
Q 1159 1113 1420 752 
Q 1681 391 2138 391 
Q 2594 391 2855 752 
Q 3116 1113 3116 1747 
z
M 1159 2969 
Q 1341 3281 1617 3432 
Q 1894 3584 2278 3584 
Q 2916 3584 3314 3078 
Q 3713 2572 3713 1747 
Q 3713 922 3314 415 
Q 2916 -91 2278 -91 
Q 1894 -91 1617 61 
Q 1341 213 1159 525 
L 1159 0 
L 581 0 
L 581 4863 
L 1159 4863 
L 1159 2969 
z
" transform="scale(0.015625)"/>
      <path id="DejaVuSans-73" d="M 2834 3397 
L 2834 2853 
Q 2591 2978 2328 3040 
Q 2066 3103 1784 3103 
Q 1356 3103 1142 2972 
Q 928 2841 928 2578 
Q 928 2378 1081 2264 
Q 1234 2150 1697 2047 
L 1894 2003 
Q 2506 1872 2764 1633 
Q 3022 1394 3022 966 
Q 3022 478 2636 193 
Q 2250 -91 1575 -91 
Q 1294 -91 989 -36 
Q 684 19 347 128 
L 347 722 
Q 666 556 975 473 
Q 1284 391 1588 391 
Q 1994 391 2212 530 
Q 2431 669 2431 922 
Q 2431 1156 2273 1281 
Q 2116 1406 1581 1522 
L 1381 1569 
Q 847 1681 609 1914 
Q 372 2147 372 2553 
Q 372 3047 722 3315 
Q 1072 3584 1716 3584 
Q 2034 3584 2315 3537 
Q 2597 3491 2834 3397 
z
" transform="scale(0.015625)"/>
      <path id="DejaVuSans-56" d="M 1831 0 
L 50 4666 
L 709 4666 
L 2188 738 
L 3669 4666 
L 4325 4666 
L 2547 0 
L 1831 0 
z
" transform="scale(0.015625)"/>
      <path id="DejaVuSans-63" d="M 3122 3366 
L 3122 2828 
Q 2878 2963 2633 3030 
Q 2388 3097 2138 3097 
Q 1578 3097 1268 2742 
Q 959 2388 959 1747 
Q 959 1106 1268 751 
Q 1578 397 2138 397 
Q 2388 397 2633 464 
Q 2878 531 3122 666 
L 3122 134 
Q 2881 22 2623 -34 
Q 2366 -91 2075 -91 
Q 1284 -91 818 406 
Q 353 903 353 1747 
Q 353 2603 823 3093 
Q 1294 3584 2113 3584 
Q 2378 3584 2631 3529 
Q 2884 3475 3122 3366 
z
" transform="scale(0.015625)"/>
      <path id="DejaVuSans-6f" d="M 1959 3097 
Q 1497 3097 1228 2736 
Q 959 2375 959 1747 
Q 959 1119 1226 758 
Q 1494 397 1959 397 
Q 2419 397 2687 759 
Q 2956 1122 2956 1747 
Q 2956 2369 2687 2733 
Q 2419 3097 1959 3097 
z
M 1959 3584 
Q 2709 3584 3137 3096 
Q 3566 2609 3566 1747 
Q 3566 888 3137 398 
Q 2709 -91 1959 -91 
Q 1206 -91 779 398 
Q 353 888 353 1747 
Q 353 2609 779 3096 
Q 1206 3584 1959 3584 
z
" transform="scale(0.015625)"/>
      <path id="DejaVuSans-6d" d="M 3328 2828 
Q 3544 3216 3844 3400 
Q 4144 3584 4550 3584 
Q 5097 3584 5394 3201 
Q 5691 2819 5691 2113 
L 5691 0 
L 5113 0 
L 5113 2094 
Q 5113 2597 4934 2840 
Q 4756 3084 4391 3084 
Q 3944 3084 3684 2787 
Q 3425 2491 3425 1978 
L 3425 0 
L 2847 0 
L 2847 2094 
Q 2847 2600 2669 2842 
Q 2491 3084 2119 3084 
Q 1678 3084 1418 2786 
Q 1159 2488 1159 1978 
L 1159 0 
L 581 0 
L 581 3500 
L 1159 3500 
L 1159 2956 
Q 1356 3278 1631 3431 
Q 1906 3584 2284 3584 
Q 2666 3584 2933 3390 
Q 3200 3197 3328 2828 
z
" transform="scale(0.015625)"/>
      <path id="DejaVuSans-70" d="M 1159 525 
L 1159 -1331 
L 581 -1331 
L 581 3500 
L 1159 3500 
L 1159 2969 
Q 1341 3281 1617 3432 
Q 1894 3584 2278 3584 
Q 2916 3584 3314 3078 
Q 3713 2572 3713 1747 
Q 3713 922 3314 415 
Q 2916 -91 2278 -91 
Q 1894 -91 1617 61 
Q 1341 213 1159 525 
z
M 3116 1747 
Q 3116 2381 2855 2742 
Q 2594 3103 2138 3103 
Q 1681 3103 1420 2742 
Q 1159 2381 1159 1747 
Q 1159 1113 1420 752 
Q 1681 391 2138 391 
Q 2594 391 2855 752 
Q 3116 1113 3116 1747 
z
" transform="scale(0.015625)"/>
      <path id="DejaVuSans-61" d="M 2194 1759 
Q 1497 1759 1228 1600 
Q 959 1441 959 1056 
Q 959 750 1161 570 
Q 1363 391 1709 391 
Q 2188 391 2477 730 
Q 2766 1069 2766 1631 
L 2766 1759 
L 2194 1759 
z
M 3341 1997 
L 3341 0 
L 2766 0 
L 2766 531 
Q 2569 213 2275 61 
Q 1981 -91 1556 -91 
Q 1019 -91 701 211 
Q 384 513 384 1019 
Q 384 1609 779 1909 
Q 1175 2209 1959 2209 
L 2766 2209 
L 2766 2266 
Q 2766 2663 2505 2880 
Q 2244 3097 1772 3097 
Q 1472 3097 1187 3025 
Q 903 2953 641 2809 
L 641 3341 
Q 956 3463 1253 3523 
Q 1550 3584 1831 3584 
Q 2591 3584 2966 3190 
Q 3341 2797 3341 1997 
z
" transform="scale(0.015625)"/>
      <path id="DejaVuSans-77" d="M 269 3500 
L 844 3500 
L 1563 769 
L 2278 3500 
L 2956 3500 
L 3675 769 
L 4391 3500 
L 4966 3500 
L 4050 0 
L 3372 0 
L 2619 2869 
L 1863 0 
L 1184 0 
L 269 3500 
z
" transform="scale(0.015625)"/>
      <path id="DejaVuSans-69" d="M 603 3500 
L 1178 3500 
L 1178 0 
L 603 0 
L 603 3500 
z
M 603 4863 
L 1178 4863 
L 1178 4134 
L 603 4134 
L 603 4863 
z
" transform="scale(0.015625)"/>
      <path id="DejaVuSans-74" d="M 1172 4494 
L 1172 3500 
L 2356 3500 
L 2356 3053 
L 1172 3053 
L 1172 1153 
Q 1172 725 1289 603 
Q 1406 481 1766 481 
L 2356 481 
L 2356 0 
L 1766 0 
Q 1100 0 847 248 
Q 594 497 594 1153 
L 594 3053 
L 172 3053 
L 172 3500 
L 594 3500 
L 594 4494 
L 1172 4494 
z
" transform="scale(0.015625)"/>
      <path id="DejaVuSans-68" d="M 3513 2113 
L 3513 0 
L 2938 0 
L 2938 2094 
Q 2938 2591 2744 2837 
Q 2550 3084 2163 3084 
Q 1697 3084 1428 2787 
Q 1159 2491 1159 1978 
L 1159 0 
L 581 0 
L 581 4863 
L 1159 4863 
L 1159 2956 
Q 1366 3272 1645 3428 
Q 1925 3584 2291 3584 
Q 2894 3584 3203 3211 
Q 3513 2838 3513 2113 
z
" transform="scale(0.015625)"/>
     </defs>
     <use xlink:href="#DejaVuSans-41" transform="translate(0 0.16875)"/>
     <use xlink:href="#DejaVuSans-62" transform="translate(68.408203 0.16875)"/>
     <use xlink:href="#DejaVuSans-73" transform="translate(131.884766 0.16875)"/>
     <use xlink:href="#DejaVuSans-56" transform="translate(183.984375 0.16875)"/>
     <use xlink:href="#DejaVuSans-45" transform="translate(252.392578 0.16875)"/>
     <use xlink:href="#DejaVuSans-20" transform="translate(315.576172 0.16875)"/>
     <use xlink:href="#DejaVuSans-63" transform="translate(347.363281 0.16875)"/>
     <use xlink:href="#DejaVuSans-6f" transform="translate(402.34375 0.16875)"/>
     <use xlink:href="#DejaVuSans-6d" transform="translate(463.525391 0.16875)"/>
     <use xlink:href="#DejaVuSans-70" transform="translate(560.9375 0.16875)"/>
     <use xlink:href="#DejaVuSans-61" transform="translate(624.414062 0.16875)"/>
     <use xlink:href="#DejaVuSans-72" transform="translate(685.693359 0.16875)"/>
     <use xlink:href="#DejaVuSans-65" transform="translate(726.806641 0.16875)"/>
     <use xlink:href="#DejaVuSans-64" transform="translate(788.330078 0.16875)"/>
     <use xlink:href="#DejaVuSans-20" transform="translate(851.806641 0.16875)"/>
     <use xlink:href="#DejaVuSans-77" transform="translate(883.59375 0.16875)"/>
     <use xlink:href="#DejaVuSans-69" transform="translate(965.380859 0.16875)"/>
     <use xlink:href="#DejaVuSans-74" transform="translate(993.164062 0.16875)"/>
     <use xlink:href="#DejaVuSans-68" transform="translate(1032.373047 0.16875)"/>
     <use xlink:href="#DejaVuSans-20" transform="translate(1095.751953 0.16875)"/>
     <use xlink:href="#DejaVuSans-66" transform="translate(1127.539062 0.16875)"/>
     <use xlink:href="#DejaVuSans-28" transform="translate(1162.744141 0.16875)"/>
     <use xlink:href="#DejaVuSans-78" transform="translate(1201.757812 0.16875)"/>
     <use xlink:href="#DejaVuSans-29" transform="translate(1260.9375 0.16875)"/>
     <use xlink:href="#DejaVuSans-3d" transform="translate(1319.433594 0.16875)"/>
     <use xlink:href="#DejaVuSans-31" transform="translate(1523.705078 43.965625) scale(0.7)"/>
     <use xlink:href="#DejaVuSans-31" transform="translate(1422.705078 -40.878125) scale(0.7)"/>
     <use xlink:href="#DejaVuSans-2b" transform="translate(1480.878906 -40.878125) scale(0.7)"/>
     <use xlink:href="#DejaVuSans-65" transform="translate(1553.168945 -40.878125) scale(0.7)"/>
     <use xlink:href="#DejaVuSans-2212" transform="translate(1596.905273 -14.08125) scale(0.49)"/>
     <use xlink:href="#DejaVuSans-78" transform="translate(1637.961914 -14.08125) scale(0.49)"/>
     <path d="M 1422.705078 18.965625 
L 1422.705078 25.215625 
L 1668.874023 25.215625 
L 1668.874023 18.965625 
L 1422.705078 18.965625 
z
"/>
    </g>
   </g>
   <g id="legend_2">
    <g id="patch_13">
     <path d="M 591.871562 150.68369 
L 706.91375 150.68369 
Q 708.91375 150.68369 708.91375 148.68369 
L 708.91375 129.78369 
Q 708.91375 127.78369 706.91375 127.78369 
L 591.871562 127.78369 
Q 589.871562 127.78369 589.871562 129.78369 
L 589.871562 148.68369 
Q 589.871562 150.68369 591.871562 150.68369 
z
" style="fill: #ffffff; opacity: 0.8; stroke: #cccccc; stroke-linejoin: miter"/>
    </g>
    <g id="line2d_34">
     <path d="M 593.871562 138.98369 
L 603.871562 138.98369 
L 613.871562 138.98369 
" style="fill: none; stroke: #1f77b4; stroke-width: 2; stroke-linecap: square"/>
    </g>
    <g id="text_36">
     <!-- f(x) -->
     <g transform="translate(621.871562 142.48369) scale(0.1 -0.1)">
      <use xlink:href="#DejaVuSans-66"/>
      <use xlink:href="#DejaVuSans-28" x="35.205078"/>
      <use xlink:href="#DejaVuSans-78" x="74.21875"/>
      <use xlink:href="#DejaVuSans-29" x="133.398438"/>
     </g>
    </g>
    <g id="line2d_35">
     <path d="M 659.11375 138.98369 
L 669.11375 138.98369 
L 679.11375 138.98369 
" style="fill: none; stroke: #ff7f0e; stroke-linecap: square"/>
    </g>
    <g id="text_37">
     <!-- $\mathrm{\frac{df(x)}{dx}}}$ -->
     <g transform="translate(687.11375 142.48369) scale(0.1 -0.1)">
      <use xlink:href="#DejaVuSans-64" transform="translate(0 53.810938) scale(0.7)"/>
      <use xlink:href="#DejaVuSans-66" transform="translate(44.433594 53.810938) scale(0.7)"/>
      <use xlink:href="#DejaVuSans-28" transform="translate(69.077148 53.810938) scale(0.7)"/>
      <use xlink:href="#DejaVuSans-78" transform="translate(96.386719 53.810938) scale(0.7)"/>
      <use xlink:href="#DejaVuSans-29" transform="translate(137.8125 53.810938) scale(0.7)"/>
      <use xlink:href="#DejaVuSans-64" transform="translate(40 -39.859375) scale(0.7)"/>
      <use xlink:href="#DejaVuSans-78" transform="translate(84.433594 -39.859375) scale(0.7)"/>
      <path d="M 0 19.579688 
L 0 25.829688 
L 165.12207 25.829688 
L 165.12207 19.579688 
L 0 19.579688 
z
"/>
     </g>
    </g>
   </g>
  </g>
  <g id="axes_3">
   <g id="patch_14">
    <path d="M 35.335125 348.433594 
L 350.806359 348.433594 
L 350.806359 214.019435 
L 35.335125 214.019435 
z
" style="fill: #ffffff"/>
   </g>
   <g id="PathCollection_3">
    <g clip-path="url(#p5d200df4f9)">
     <use xlink:href="#mabf4929cea" x="49.674727" y="342.323859" style="fill: #1f77b4; stroke: #1f77b4"/>
     <use xlink:href="#mabf4929cea" x="67.599229" y="342.27311" style="fill: #1f77b4; stroke: #1f77b4"/>
     <use xlink:href="#mabf4929cea" x="85.52373" y="342.135434" style="fill: #1f77b4; stroke: #1f77b4"/>
     <use xlink:href="#mabf4929cea" x="103.448232" y="341.763223" style="fill: #1f77b4; stroke: #1f77b4"/>
     <use xlink:href="#mabf4929cea" x="121.372734" y="340.766221" style="fill: #1f77b4; stroke: #1f77b4"/>
     <use xlink:href="#mabf4929cea" x="139.297236" y="338.160859" style="fill: #1f77b4; stroke: #1f77b4"/>
     <use xlink:href="#mabf4929cea" x="157.221738" y="331.773656" style="fill: #1f77b4; stroke: #1f77b4"/>
     <use xlink:href="#mabf4929cea" x="175.14624" y="318.328057" style="fill: #1f77b4; stroke: #1f77b4"/>
     <use xlink:href="#mabf4929cea" x="193.070742" y="297.471399" style="fill: #1f77b4; stroke: #1f77b4"/>
     <use xlink:href="#mabf4929cea" x="210.995244" y="276.880285" style="fill: #1f77b4; stroke: #1f77b4"/>
     <use xlink:href="#mabf4929cea" x="228.919746" y="263.946979" style="fill: #1f77b4; stroke: #1f77b4"/>
     <use xlink:href="#mabf4929cea" x="246.844248" y="257.854031" style="fill: #1f77b4; stroke: #1f77b4"/>
     <use xlink:href="#mabf4929cea" x="264.76875" y="255.15135" style="fill: #1f77b4; stroke: #1f77b4"/>
     <use xlink:href="#mabf4929cea" x="282.693252" y="253.430931" style="fill: #1f77b4; stroke: #1f77b4"/>
     <use xlink:href="#mabf4929cea" x="300.617754" y="250.832636" style="fill: #1f77b4; stroke: #1f77b4"/>
     <use xlink:href="#mabf4929cea" x="318.542256" y="243.992722" style="fill: #1f77b4; stroke: #1f77b4"/>
     <use xlink:href="#mabf4929cea" x="336.466758" y="220.129169" style="fill: #1f77b4; stroke: #1f77b4"/>
    </g>
   </g>
   <g id="PathCollection_4">
    <g clip-path="url(#p5d200df4f9)">
     <use xlink:href="#maa3f5be152" x="49.674727" y="342.323859" style="fill: #ff7f0e; stroke: #ff7f0e"/>
     <use xlink:href="#maa3f5be152" x="67.599229" y="342.273112" style="fill: #ff7f0e; stroke: #ff7f0e"/>
     <use xlink:href="#maa3f5be152" x="85.52373" y="342.135461" style="fill: #ff7f0e; stroke: #ff7f0e"/>
     <use xlink:href="#maa3f5be152" x="103.448232" y="341.763452" style="fill: #ff7f0e; stroke: #ff7f0e"/>
     <use xlink:href="#maa3f5be152" x="121.372734" y="340.767955" style="fill: #ff7f0e; stroke: #ff7f0e"/>
     <use xlink:href="#maa3f5be152" x="139.297236" y="338.17288" style="fill: #ff7f0e; stroke: #ff7f0e"/>
     <use xlink:href="#maa3f5be152" x="157.221738" y="331.84581" style="fill: #ff7f0e; stroke: #ff7f0e"/>
     <use xlink:href="#maa3f5be152" x="175.14624" y="318.64652" style="fill: #ff7f0e; stroke: #ff7f0e"/>
     <use xlink:href="#maa3f5be152" x="193.070742" y="298.278953" style="fill: #ff7f0e; stroke: #ff7f0e"/>
     <use xlink:href="#maa3f5be152" x="210.995244" y="277.911386" style="fill: #ff7f0e; stroke: #ff7f0e"/>
     <use xlink:href="#maa3f5be152" x="228.919746" y="264.712097" style="fill: #ff7f0e; stroke: #ff7f0e"/>
     <use xlink:href="#maa3f5be152" x="246.844248" y="258.385026" style="fill: #ff7f0e; stroke: #ff7f0e"/>
     <use xlink:href="#maa3f5be152" x="264.76875" y="255.789951" style="fill: #ff7f0e; stroke: #ff7f0e"/>
     <use xlink:href="#maa3f5be152" x="282.693252" y="254.794454" style="fill: #ff7f0e; stroke: #ff7f0e"/>
     <use xlink:href="#maa3f5be152" x="300.617754" y="254.422445" style="fill: #ff7f0e; stroke: #ff7f0e"/>
     <use xlink:href="#maa3f5be152" x="318.542256" y="254.284794" style="fill: #ff7f0e; stroke: #ff7f0e"/>
     <use xlink:href="#maa3f5be152" x="336.466758" y="254.234047" style="fill: #ff7f0e; stroke: #ff7f0e"/>
    </g>
   </g>
   <g id="matplotlib.axis_5">
    <g id="xtick_19">
     <g id="line2d_36">
      <g>
       <use xlink:href="#m41ccd5c858" x="49.674727" y="348.433594" style="stroke: #000000; stroke-width: 0.8"/>
      </g>
     </g>
     <g id="text_38">
      <!-- −8 -->
      <g transform="translate(42.303633 363.032031) scale(0.1 -0.1)">
       <use xlink:href="#DejaVuSans-2212"/>
       <use xlink:href="#DejaVuSans-38" x="83.789062"/>
      </g>
     </g>
    </g>
    <g id="xtick_20">
     <g id="line2d_37">
      <g>
       <use xlink:href="#m41ccd5c858" x="85.52373" y="348.433594" style="stroke: #000000; stroke-width: 0.8"/>
      </g>
     </g>
     <g id="text_39">
      <!-- −6 -->
      <g transform="translate(78.152637 363.032031) scale(0.1 -0.1)">
       <use xlink:href="#DejaVuSans-2212"/>
       <use xlink:href="#DejaVuSans-36" x="83.789062"/>
      </g>
     </g>
    </g>
    <g id="xtick_21">
     <g id="line2d_38">
      <g>
       <use xlink:href="#m41ccd5c858" x="121.372734" y="348.433594" style="stroke: #000000; stroke-width: 0.8"/>
      </g>
     </g>
     <g id="text_40">
      <!-- −4 -->
      <g transform="translate(114.001641 363.032031) scale(0.1 -0.1)">
       <use xlink:href="#DejaVuSans-2212"/>
       <use xlink:href="#DejaVuSans-34" x="83.789062"/>
      </g>
     </g>
    </g>
    <g id="xtick_22">
     <g id="line2d_39">
      <g>
       <use xlink:href="#m41ccd5c858" x="157.221738" y="348.433594" style="stroke: #000000; stroke-width: 0.8"/>
      </g>
     </g>
     <g id="text_41">
      <!-- −2 -->
      <g transform="translate(149.850645 363.032031) scale(0.1 -0.1)">
       <use xlink:href="#DejaVuSans-2212"/>
       <use xlink:href="#DejaVuSans-32" x="83.789062"/>
      </g>
     </g>
    </g>
    <g id="xtick_23">
     <g id="line2d_40">
      <g>
       <use xlink:href="#m41ccd5c858" x="193.070742" y="348.433594" style="stroke: #000000; stroke-width: 0.8"/>
      </g>
     </g>
     <g id="text_42">
      <!-- 0 -->
      <g transform="translate(189.889492 363.032031) scale(0.1 -0.1)">
       <use xlink:href="#DejaVuSans-30"/>
      </g>
     </g>
    </g>
    <g id="xtick_24">
     <g id="line2d_41">
      <g>
       <use xlink:href="#m41ccd5c858" x="228.919746" y="348.433594" style="stroke: #000000; stroke-width: 0.8"/>
      </g>
     </g>
     <g id="text_43">
      <!-- 2 -->
      <g transform="translate(225.738496 363.032031) scale(0.1 -0.1)">
       <use xlink:href="#DejaVuSans-32"/>
      </g>
     </g>
    </g>
    <g id="xtick_25">
     <g id="line2d_42">
      <g>
       <use xlink:href="#m41ccd5c858" x="264.76875" y="348.433594" style="stroke: #000000; stroke-width: 0.8"/>
      </g>
     </g>
     <g id="text_44">
      <!-- 4 -->
      <g transform="translate(261.5875 363.032031) scale(0.1 -0.1)">
       <use xlink:href="#DejaVuSans-34"/>
      </g>
     </g>
    </g>
    <g id="xtick_26">
     <g id="line2d_43">
      <g>
       <use xlink:href="#m41ccd5c858" x="300.617754" y="348.433594" style="stroke: #000000; stroke-width: 0.8"/>
      </g>
     </g>
     <g id="text_45">
      <!-- 6 -->
      <g transform="translate(297.436504 363.032031) scale(0.1 -0.1)">
       <use xlink:href="#DejaVuSans-36"/>
      </g>
     </g>
    </g>
    <g id="xtick_27">
     <g id="line2d_44">
      <g>
       <use xlink:href="#m41ccd5c858" x="336.466758" y="348.433594" style="stroke: #000000; stroke-width: 0.8"/>
      </g>
     </g>
     <g id="text_46">
      <!-- 8 -->
      <g transform="translate(333.285508 363.032031) scale(0.1 -0.1)">
       <use xlink:href="#DejaVuSans-38"/>
      </g>
     </g>
    </g>
    <g id="text_47">
     <!-- x -->
     <g transform="translate(188.63168 380.509375) scale(0.15 -0.15)">
      <use xlink:href="#DejaVuSans-78"/>
     </g>
    </g>
   </g>
   <g id="matplotlib.axis_6">
    <g id="ytick_10">
     <g id="line2d_45">
      <g>
       <use xlink:href="#m118f8c6db7" x="35.335125" y="342.35342" style="stroke: #000000; stroke-width: 0.8"/>
      </g>
     </g>
     <g id="text_48">
      <!-- 0.00 -->
      <g transform="translate(6.0695 346.152639) scale(0.1 -0.1)">
       <use xlink:href="#DejaVuSans-30"/>
       <use xlink:href="#DejaVuSans-2e" x="63.623047"/>
       <use xlink:href="#DejaVuSans-30" x="95.410156"/>
       <use xlink:href="#DejaVuSans-30" x="159.033203"/>
      </g>
     </g>
    </g>
    <g id="ytick_11">
     <g id="line2d_46">
      <g>
       <use xlink:href="#m118f8c6db7" x="35.335125" y="320.316187" style="stroke: #000000; stroke-width: 0.8"/>
      </g>
     </g>
     <g id="text_49">
      <!-- 0.25 -->
      <g transform="translate(6.0695 324.115405) scale(0.1 -0.1)">
       <use xlink:href="#DejaVuSans-30"/>
       <use xlink:href="#DejaVuSans-2e" x="63.623047"/>
       <use xlink:href="#DejaVuSans-32" x="95.410156"/>
       <use xlink:href="#DejaVuSans-35" x="159.033203"/>
      </g>
     </g>
    </g>
    <g id="ytick_12">
     <g id="line2d_47">
      <g>
       <use xlink:href="#m118f8c6db7" x="35.335125" y="298.278953" style="stroke: #000000; stroke-width: 0.8"/>
      </g>
     </g>
     <g id="text_50">
      <!-- 0.50 -->
      <g transform="translate(6.0695 302.078172) scale(0.1 -0.1)">
       <use xlink:href="#DejaVuSans-30"/>
       <use xlink:href="#DejaVuSans-2e" x="63.623047"/>
       <use xlink:href="#DejaVuSans-35" x="95.410156"/>
       <use xlink:href="#DejaVuSans-30" x="159.033203"/>
      </g>
     </g>
    </g>
    <g id="ytick_13">
     <g id="line2d_48">
      <g>
       <use xlink:href="#m118f8c6db7" x="35.335125" y="276.24172" style="stroke: #000000; stroke-width: 0.8"/>
      </g>
     </g>
     <g id="text_51">
      <!-- 0.75 -->
      <g transform="translate(6.0695 280.040938) scale(0.1 -0.1)">
       <use xlink:href="#DejaVuSans-30"/>
       <use xlink:href="#DejaVuSans-2e" x="63.623047"/>
       <use xlink:href="#DejaVuSans-37" x="95.410156"/>
       <use xlink:href="#DejaVuSans-35" x="159.033203"/>
      </g>
     </g>
    </g>
    <g id="ytick_14">
     <g id="line2d_49">
      <g>
       <use xlink:href="#m118f8c6db7" x="35.335125" y="254.204486" style="stroke: #000000; stroke-width: 0.8"/>
      </g>
     </g>
     <g id="text_52">
      <!-- 1.00 -->
      <g transform="translate(6.0695 258.003705) scale(0.1 -0.1)">
       <use xlink:href="#DejaVuSans-31"/>
       <use xlink:href="#DejaVuSans-2e" x="63.623047"/>
       <use xlink:href="#DejaVuSans-30" x="95.410156"/>
       <use xlink:href="#DejaVuSans-30" x="159.033203"/>
      </g>
     </g>
    </g>
    <g id="ytick_15">
     <g id="line2d_50">
      <g>
       <use xlink:href="#m118f8c6db7" x="35.335125" y="232.167253" style="stroke: #000000; stroke-width: 0.8"/>
      </g>
     </g>
     <g id="text_53">
      <!-- 1.25 -->
      <g transform="translate(6.0695 235.966471) scale(0.1 -0.1)">
       <use xlink:href="#DejaVuSans-31"/>
       <use xlink:href="#DejaVuSans-2e" x="63.623047"/>
       <use xlink:href="#DejaVuSans-32" x="95.410156"/>
       <use xlink:href="#DejaVuSans-35" x="159.033203"/>
      </g>
     </g>
    </g>
   </g>
   <g id="line2d_51">
    <path d="M 49.674727 342.323859 
L 67.599229 342.27311 
L 85.52373 342.135434 
L 103.448232 341.763223 
L 121.372734 340.766221 
L 139.297236 338.160859 
L 157.221738 331.773656 
L 175.14624 318.328057 
L 193.070742 297.471399 
L 210.995244 276.880285 
L 228.919746 263.946979 
L 246.844248 257.854031 
L 264.76875 255.15135 
L 282.693252 253.430931 
L 300.617754 250.832636 
L 318.542256 243.992722 
L 336.466758 220.129169 
" clip-path="url(#p5d200df4f9)" style="fill: none; stroke: #1f77b4; stroke-width: 2; stroke-linecap: square"/>
   </g>
   <g id="line2d_52">
    <path d="M 49.674727 342.323859 
L 67.599229 342.273112 
L 85.52373 342.135461 
L 103.448232 341.763452 
L 121.372734 340.767955 
L 139.297236 338.17288 
L 157.221738 331.84581 
L 175.14624 318.64652 
L 193.070742 298.278953 
L 210.995244 277.911386 
L 228.919746 264.712097 
L 246.844248 258.385026 
L 264.76875 255.789951 
L 282.693252 254.794454 
L 300.617754 254.422445 
L 318.542256 254.284794 
L 336.466758 254.234047 
" clip-path="url(#p5d200df4f9)" style="fill: none; stroke: #ff7f0e; stroke-linecap: square"/>
   </g>
   <g id="patch_15">
    <path d="M 35.335125 348.433594 
L 35.335125 214.019435 
" style="fill: none; stroke: #000000; stroke-width: 0.8; stroke-linejoin: miter; stroke-linecap: square"/>
   </g>
   <g id="patch_16">
    <path d="M 350.806359 348.433594 
L 350.806359 214.019435 
" style="fill: none; stroke: #000000; stroke-width: 0.8; stroke-linejoin: miter; stroke-linecap: square"/>
   </g>
   <g id="patch_17">
    <path d="M 35.335125 348.433594 
L 350.806359 348.433594 
" style="fill: none; stroke: #000000; stroke-width: 0.8; stroke-linejoin: miter; stroke-linecap: square"/>
   </g>
   <g id="patch_18">
    <path d="M 35.335125 214.019435 
L 350.806359 214.019435 
" style="fill: none; stroke: #000000; stroke-width: 0.8; stroke-linejoin: miter; stroke-linecap: square"/>
   </g>
   <g id="text_54">
    <!-- b -->
    <g transform="translate(13.252139 205.254967) scale(0.15 -0.15)">
     <defs>
      <path id="DejaVuSans-Bold-62" d="M 2400 722 
Q 2759 722 2948 984 
Q 3138 1247 3138 1747 
Q 3138 2247 2948 2509 
Q 2759 2772 2400 2772 
Q 2041 2772 1848 2508 
Q 1656 2244 1656 1747 
Q 1656 1250 1848 986 
Q 2041 722 2400 722 
z
M 1656 2988 
Q 1888 3294 2169 3439 
Q 2450 3584 2816 3584 
Q 3463 3584 3878 3070 
Q 4294 2556 4294 1747 
Q 4294 938 3878 423 
Q 3463 -91 2816 -91 
Q 2450 -91 2169 54 
Q 1888 200 1656 506 
L 1656 0 
L 538 0 
L 538 4863 
L 1656 4863 
L 1656 2988 
z
" transform="scale(0.015625)"/>
     </defs>
     <use xlink:href="#DejaVuSans-Bold-62"/>
    </g>
   </g>
   <g id="text_55">
    <!-- $\mathrm{x_0}$ = -8.0, $\mathrm{\Delta x}$ = 1.0 -->
    <g transform="translate(136.190742 208.019435) scale(0.12 -0.12)">
     <use xlink:href="#DejaVuSans-78" transform="translate(0 0.78125)"/>
     <use xlink:href="#DejaVuSans-30" transform="translate(60.136719 -15.625) scale(0.7)"/>
     <use xlink:href="#DejaVuSans-20" transform="translate(107.407227 0.78125)"/>
     <use xlink:href="#DejaVuSans-3d" transform="translate(139.194336 0.78125)"/>
     <use xlink:href="#DejaVuSans-20" transform="translate(222.983398 0.78125)"/>
     <use xlink:href="#DejaVuSans-2d" transform="translate(254.770508 0.78125)"/>
     <use xlink:href="#DejaVuSans-38" transform="translate(290.854492 0.78125)"/>
     <use xlink:href="#DejaVuSans-2e" transform="translate(354.477539 0.78125)"/>
     <use xlink:href="#DejaVuSans-30" transform="translate(386.264648 0.78125)"/>
     <use xlink:href="#DejaVuSans-2c" transform="translate(449.887695 0.78125)"/>
     <use xlink:href="#DejaVuSans-20" transform="translate(481.674805 0.78125)"/>
     <use xlink:href="#DejaVuSans-394" transform="translate(513.461914 0.78125)"/>
     <use xlink:href="#DejaVuSans-78" transform="translate(581.870117 0.78125)"/>
     <use xlink:href="#DejaVuSans-20" transform="translate(641.049805 0.78125)"/>
     <use xlink:href="#DejaVuSans-3d" transform="translate(672.836914 0.78125)"/>
     <use xlink:href="#DejaVuSans-20" transform="translate(756.625977 0.78125)"/>
     <use xlink:href="#DejaVuSans-31" transform="translate(788.413086 0.78125)"/>
     <use xlink:href="#DejaVuSans-2e" transform="translate(852.036133 0.78125)"/>
     <use xlink:href="#DejaVuSans-30" transform="translate(883.823242 0.78125)"/>
    </g>
   </g>
   <g id="legend_3">
    <g id="patch_19">
     <path d="M 256.406359 343.433594 
L 343.806359 343.433594 
Q 345.806359 343.433594 345.806359 341.433594 
L 345.806359 308.955469 
Q 345.806359 306.955469 343.806359 306.955469 
L 256.406359 306.955469 
Q 254.406359 306.955469 254.406359 308.955469 
L 254.406359 341.433594 
Q 254.406359 343.433594 256.406359 343.433594 
z
" style="fill: #ffffff; opacity: 0.8; stroke: #cccccc; stroke-linejoin: miter"/>
    </g>
    <g id="line2d_53">
     <path d="M 258.406359 315.053906 
L 268.406359 315.053906 
L 278.406359 315.053906 
" style="fill: none; stroke: #1f77b4; stroke-width: 2; stroke-linecap: square"/>
    </g>
    <g id="text_56">
     <!-- EdSr f(x) -->
     <g transform="translate(286.406359 318.553906) scale(0.1 -0.1)">
      <use xlink:href="#DejaVuSans-45"/>
      <use xlink:href="#DejaVuSans-64" x="63.183594"/>
      <use xlink:href="#DejaVuSans-53" x="126.660156"/>
      <use xlink:href="#DejaVuSans-72" x="190.136719"/>
      <use xlink:href="#DejaVuSans-20" x="231.25"/>
      <use xlink:href="#DejaVuSans-66" x="263.037109"/>
      <use xlink:href="#DejaVuSans-28" x="298.242188"/>
      <use xlink:href="#DejaVuSans-78" x="337.255859"/>
      <use xlink:href="#DejaVuSans-29" x="396.435547"/>
     </g>
    </g>
    <g id="line2d_54">
     <path d="M 258.406359 331.633594 
L 268.406359 331.633594 
L 278.406359 331.633594 
" style="fill: none; stroke: #ff7f0e; stroke-linecap: square"/>
    </g>
    <g id="text_57">
     <!-- $\mathrm{f(x) = \frac{1}{1 + e^{-x}}}$ -->
     <g transform="translate(286.406359 335.133594) scale(0.1 -0.1)">
      <use xlink:href="#DejaVuSans-66" transform="translate(0 0.16875)"/>
      <use xlink:href="#DejaVuSans-28" transform="translate(35.205078 0.16875)"/>
      <use xlink:href="#DejaVuSans-78" transform="translate(74.21875 0.16875)"/>
      <use xlink:href="#DejaVuSans-29" transform="translate(133.398438 0.16875)"/>
      <use xlink:href="#DejaVuSans-3d" transform="translate(191.894531 0.16875)"/>
      <use xlink:href="#DejaVuSans-31" transform="translate(396.166016 43.965625) scale(0.7)"/>
      <use xlink:href="#DejaVuSans-31" transform="translate(295.166016 -40.878125) scale(0.7)"/>
      <use xlink:href="#DejaVuSans-2b" transform="translate(353.339844 -40.878125) scale(0.7)"/>
      <use xlink:href="#DejaVuSans-65" transform="translate(425.629883 -40.878125) scale(0.7)"/>
      <use xlink:href="#DejaVuSans-2212" transform="translate(469.366211 -14.08125) scale(0.49)"/>
      <use xlink:href="#DejaVuSans-78" transform="translate(510.422852 -14.08125) scale(0.49)"/>
      <path d="M 295.166016 18.965625 
L 295.166016 25.215625 
L 541.334961 25.215625 
L 541.334961 18.965625 
L 295.166016 18.965625 
z
"/>
     </g>
    </g>
   </g>
  </g>
  <g id="axes_4">
   <g id="patch_20">
    <path d="M 398.442516 348.433594 
L 713.91375 348.433594 
L 713.91375 214.019435 
L 398.442516 214.019435 
z
" style="fill: #ffffff"/>
   </g>
   <g id="matplotlib.axis_7">
    <g id="xtick_28">
     <g id="line2d_55">
      <g>
       <use xlink:href="#m41ccd5c858" x="412.782117" y="348.433594" style="stroke: #000000; stroke-width: 0.8"/>
      </g>
     </g>
     <g id="text_58">
      <!-- −8 -->
      <g transform="translate(405.411023 363.032031) scale(0.1 -0.1)">
       <use xlink:href="#DejaVuSans-2212"/>
       <use xlink:href="#DejaVuSans-38" x="83.789062"/>
      </g>
     </g>
    </g>
    <g id="xtick_29">
     <g id="line2d_56">
      <g>
       <use xlink:href="#m41ccd5c858" x="448.631121" y="348.433594" style="stroke: #000000; stroke-width: 0.8"/>
      </g>
     </g>
     <g id="text_59">
      <!-- −6 -->
      <g transform="translate(441.260027 363.032031) scale(0.1 -0.1)">
       <use xlink:href="#DejaVuSans-2212"/>
       <use xlink:href="#DejaVuSans-36" x="83.789062"/>
      </g>
     </g>
    </g>
    <g id="xtick_30">
     <g id="line2d_57">
      <g>
       <use xlink:href="#m41ccd5c858" x="484.480125" y="348.433594" style="stroke: #000000; stroke-width: 0.8"/>
      </g>
     </g>
     <g id="text_60">
      <!-- −4 -->
      <g transform="translate(477.109031 363.032031) scale(0.1 -0.1)">
       <use xlink:href="#DejaVuSans-2212"/>
       <use xlink:href="#DejaVuSans-34" x="83.789062"/>
      </g>
     </g>
    </g>
    <g id="xtick_31">
     <g id="line2d_58">
      <g>
       <use xlink:href="#m41ccd5c858" x="520.329129" y="348.433594" style="stroke: #000000; stroke-width: 0.8"/>
      </g>
     </g>
     <g id="text_61">
      <!-- −2 -->
      <g transform="translate(512.958035 363.032031) scale(0.1 -0.1)">
       <use xlink:href="#DejaVuSans-2212"/>
       <use xlink:href="#DejaVuSans-32" x="83.789062"/>
      </g>
     </g>
    </g>
    <g id="xtick_32">
     <g id="line2d_59">
      <g>
       <use xlink:href="#m41ccd5c858" x="556.178133" y="348.433594" style="stroke: #000000; stroke-width: 0.8"/>
      </g>
     </g>
     <g id="text_62">
      <!-- 0 -->
      <g transform="translate(552.996883 363.032031) scale(0.1 -0.1)">
       <use xlink:href="#DejaVuSans-30"/>
      </g>
     </g>
    </g>
    <g id="xtick_33">
     <g id="line2d_60">
      <g>
       <use xlink:href="#m41ccd5c858" x="592.027137" y="348.433594" style="stroke: #000000; stroke-width: 0.8"/>
      </g>
     </g>
     <g id="text_63">
      <!-- 2 -->
      <g transform="translate(588.845887 363.032031) scale(0.1 -0.1)">
       <use xlink:href="#DejaVuSans-32"/>
      </g>
     </g>
    </g>
    <g id="xtick_34">
     <g id="line2d_61">
      <g>
       <use xlink:href="#m41ccd5c858" x="627.876141" y="348.433594" style="stroke: #000000; stroke-width: 0.8"/>
      </g>
     </g>
     <g id="text_64">
      <!-- 4 -->
      <g transform="translate(624.694891 363.032031) scale(0.1 -0.1)">
       <use xlink:href="#DejaVuSans-34"/>
      </g>
     </g>
    </g>
    <g id="xtick_35">
     <g id="line2d_62">
      <g>
       <use xlink:href="#m41ccd5c858" x="663.725145" y="348.433594" style="stroke: #000000; stroke-width: 0.8"/>
      </g>
     </g>
     <g id="text_65">
      <!-- 6 -->
      <g transform="translate(660.543895 363.032031) scale(0.1 -0.1)">
       <use xlink:href="#DejaVuSans-36"/>
      </g>
     </g>
    </g>
    <g id="xtick_36">
     <g id="line2d_63">
      <g>
       <use xlink:href="#m41ccd5c858" x="699.574148" y="348.433594" style="stroke: #000000; stroke-width: 0.8"/>
      </g>
     </g>
     <g id="text_66">
      <!-- 8 -->
      <g transform="translate(696.392898 363.032031) scale(0.1 -0.1)">
       <use xlink:href="#DejaVuSans-38"/>
      </g>
     </g>
    </g>
    <g id="text_67">
     <!-- x -->
     <g transform="translate(551.73907 380.509375) scale(0.15 -0.15)">
      <use xlink:href="#DejaVuSans-78"/>
     </g>
    </g>
   </g>
   <g id="matplotlib.axis_8">
    <g id="ytick_16">
     <g id="line2d_64">
      <g>
       <use xlink:href="#m118f8c6db7" x="398.442516" y="331.631743" style="stroke: #000000; stroke-width: 0.8"/>
      </g>
     </g>
     <g id="text_68">
      <!-- $\mathdefault{10^{-7}}$ -->
      <g transform="translate(367.942516 335.430962) scale(0.1 -0.1)">
       <use xlink:href="#DejaVuSans-31" transform="translate(0 0.684375)"/>
       <use xlink:href="#DejaVuSans-30" transform="translate(63.623047 0.684375)"/>
       <use xlink:href="#DejaVuSans-2212" transform="translate(128.203125 38.965625) scale(0.7)"/>
       <use xlink:href="#DejaVuSans-37" transform="translate(186.855469 38.965625) scale(0.7)"/>
      </g>
     </g>
    </g>
    <g id="ytick_17">
     <g id="line2d_65">
      <g>
       <use xlink:href="#m118f8c6db7" x="398.442516" y="298.416733" style="stroke: #000000; stroke-width: 0.8"/>
      </g>
     </g>
     <g id="text_69">
      <!-- $\mathdefault{10^{-5}}$ -->
      <g transform="translate(367.942516 302.215952) scale(0.1 -0.1)">
       <use xlink:href="#DejaVuSans-31" transform="translate(0 0.684375)"/>
       <use xlink:href="#DejaVuSans-30" transform="translate(63.623047 0.684375)"/>
       <use xlink:href="#DejaVuSans-2212" transform="translate(128.203125 38.965625) scale(0.7)"/>
       <use xlink:href="#DejaVuSans-35" transform="translate(186.855469 38.965625) scale(0.7)"/>
      </g>
     </g>
    </g>
    <g id="ytick_18">
     <g id="line2d_66">
      <g>
       <use xlink:href="#m118f8c6db7" x="398.442516" y="265.201722" style="stroke: #000000; stroke-width: 0.8"/>
      </g>
     </g>
     <g id="text_70">
      <!-- $\mathdefault{10^{-3}}$ -->
      <g transform="translate(367.942516 269.000941) scale(0.1 -0.1)">
       <defs>
        <path id="DejaVuSans-33" d="M 2597 2516 
Q 3050 2419 3304 2112 
Q 3559 1806 3559 1356 
Q 3559 666 3084 287 
Q 2609 -91 1734 -91 
Q 1441 -91 1130 -33 
Q 819 25 488 141 
L 488 750 
Q 750 597 1062 519 
Q 1375 441 1716 441 
Q 2309 441 2620 675 
Q 2931 909 2931 1356 
Q 2931 1769 2642 2001 
Q 2353 2234 1838 2234 
L 1294 2234 
L 1294 2753 
L 1863 2753 
Q 2328 2753 2575 2939 
Q 2822 3125 2822 3475 
Q 2822 3834 2567 4026 
Q 2313 4219 1838 4219 
Q 1578 4219 1281 4162 
Q 984 4106 628 3988 
L 628 4550 
Q 988 4650 1302 4700 
Q 1616 4750 1894 4750 
Q 2613 4750 3031 4423 
Q 3450 4097 3450 3541 
Q 3450 3153 3228 2886 
Q 3006 2619 2597 2516 
z
" transform="scale(0.015625)"/>
       </defs>
       <use xlink:href="#DejaVuSans-31" transform="translate(0 0.765625)"/>
       <use xlink:href="#DejaVuSans-30" transform="translate(63.623047 0.765625)"/>
       <use xlink:href="#DejaVuSans-2212" transform="translate(128.203125 39.046875) scale(0.7)"/>
       <use xlink:href="#DejaVuSans-33" transform="translate(186.855469 39.046875) scale(0.7)"/>
      </g>
     </g>
    </g>
    <g id="ytick_19">
     <g id="line2d_67">
      <g>
       <use xlink:href="#m118f8c6db7" x="398.442516" y="231.986711" style="stroke: #000000; stroke-width: 0.8"/>
      </g>
     </g>
     <g id="text_71">
      <!-- $\mathdefault{10^{-1}}$ -->
      <g transform="translate(367.942516 235.78593) scale(0.1 -0.1)">
       <use xlink:href="#DejaVuSans-31" transform="translate(0 0.684375)"/>
       <use xlink:href="#DejaVuSans-30" transform="translate(63.623047 0.684375)"/>
       <use xlink:href="#DejaVuSans-2212" transform="translate(128.203125 38.965625) scale(0.7)"/>
       <use xlink:href="#DejaVuSans-31" transform="translate(186.855469 38.965625) scale(0.7)"/>
      </g>
     </g>
    </g>
   </g>
   <g id="line2d_68">
    <path d="M 430.657247 387.71875 
L 430.706619 342.323859 
L 448.631121 323.648414 
L 466.555623 308.131511 
L 484.480125 293.538575 
L 502.404627 279.572115 
L 520.329129 266.645874 
L 538.253631 255.937355 
L 556.178133 249.226058 
L 574.102635 247.463512 
L 592.027137 249.615389 
L 609.951639 252.249969 
L 627.876141 250.919057 
L 645.800643 245.448002 
L 663.725145 238.466059 
L 681.649646 230.869263 
L 699.574148 222.228151 
" clip-path="url(#pfe5a75aaf3)" style="fill: none; stroke: #1f77b4; stroke-width: 2; stroke-linecap: square"/>
   </g>
   <g id="line2d_69">
    <path d="M 430.646855 387.71875 
L 430.706619 332.737144 
L 448.631121 316.741184 
L 466.555623 301.954342 
L 484.480125 287.687268 
L 502.404627 274.076251 
L 520.329129 261.92793 
L 538.253631 253.266761 
L 556.178133 252.507495 
L 574.102635 260.632628 
L 592.027137 254.798848 
L 609.951639 264.206751 
L 627.876141 255.418417 
L 645.800643 246.170412 
L 663.725145 238.376189 
L 681.649646 230.185217 
L 699.574148 220.129169 
" clip-path="url(#pfe5a75aaf3)" style="fill: none; stroke: #ff7f0e; stroke-linecap: square"/>
   </g>
   <g id="patch_21">
    <path d="M 398.442516 348.433594 
L 398.442516 214.019435 
" style="fill: none; stroke: #000000; stroke-width: 0.8; stroke-linejoin: miter; stroke-linecap: square"/>
   </g>
   <g id="patch_22">
    <path d="M 713.91375 348.433594 
L 713.91375 214.019435 
" style="fill: none; stroke: #000000; stroke-width: 0.8; stroke-linejoin: miter; stroke-linecap: square"/>
   </g>
   <g id="patch_23">
    <path d="M 398.442516 348.433594 
L 713.91375 348.433594 
" style="fill: none; stroke: #000000; stroke-width: 0.8; stroke-linejoin: miter; stroke-linecap: square"/>
   </g>
   <g id="patch_24">
    <path d="M 398.442516 214.019435 
L 713.91375 214.019435 
" style="fill: none; stroke: #000000; stroke-width: 0.8; stroke-linejoin: miter; stroke-linecap: square"/>
   </g>
   <g id="text_72">
    <!-- b -->
    <g transform="translate(376.359529 205.254967) scale(0.15 -0.15)">
     <use xlink:href="#DejaVuSans-Bold-62"/>
    </g>
   </g>
   <g id="text_73">
    <!-- AbsVE compared with $\mathrm{f(x) = \frac{1}{1 + e^{-x}}}$ -->
    <g transform="translate(455.258133 208.019435) scale(0.12 -0.12)">
     <use xlink:href="#DejaVuSans-41" transform="translate(0 0.16875)"/>
     <use xlink:href="#DejaVuSans-62" transform="translate(68.408203 0.16875)"/>
     <use xlink:href="#DejaVuSans-73" transform="translate(131.884766 0.16875)"/>
     <use xlink:href="#DejaVuSans-56" transform="translate(183.984375 0.16875)"/>
     <use xlink:href="#DejaVuSans-45" transform="translate(252.392578 0.16875)"/>
     <use xlink:href="#DejaVuSans-20" transform="translate(315.576172 0.16875)"/>
     <use xlink:href="#DejaVuSans-63" transform="translate(347.363281 0.16875)"/>
     <use xlink:href="#DejaVuSans-6f" transform="translate(402.34375 0.16875)"/>
     <use xlink:href="#DejaVuSans-6d" transform="translate(463.525391 0.16875)"/>
     <use xlink:href="#DejaVuSans-70" transform="translate(560.9375 0.16875)"/>
     <use xlink:href="#DejaVuSans-61" transform="translate(624.414062 0.16875)"/>
     <use xlink:href="#DejaVuSans-72" transform="translate(685.693359 0.16875)"/>
     <use xlink:href="#DejaVuSans-65" transform="translate(726.806641 0.16875)"/>
     <use xlink:href="#DejaVuSans-64" transform="translate(788.330078 0.16875)"/>
     <use xlink:href="#DejaVuSans-20" transform="translate(851.806641 0.16875)"/>
     <use xlink:href="#DejaVuSans-77" transform="translate(883.59375 0.16875)"/>
     <use xlink:href="#DejaVuSans-69" transform="translate(965.380859 0.16875)"/>
     <use xlink:href="#DejaVuSans-74" transform="translate(993.164062 0.16875)"/>
     <use xlink:href="#DejaVuSans-68" transform="translate(1032.373047 0.16875)"/>
     <use xlink:href="#DejaVuSans-20" transform="translate(1095.751953 0.16875)"/>
     <use xlink:href="#DejaVuSans-66" transform="translate(1127.539062 0.16875)"/>
     <use xlink:href="#DejaVuSans-28" transform="translate(1162.744141 0.16875)"/>
     <use xlink:href="#DejaVuSans-78" transform="translate(1201.757812 0.16875)"/>
     <use xlink:href="#DejaVuSans-29" transform="translate(1260.9375 0.16875)"/>
     <use xlink:href="#DejaVuSans-3d" transform="translate(1319.433594 0.16875)"/>
     <use xlink:href="#DejaVuSans-31" transform="translate(1523.705078 43.965625) scale(0.7)"/>
     <use xlink:href="#DejaVuSans-31" transform="translate(1422.705078 -40.878125) scale(0.7)"/>
     <use xlink:href="#DejaVuSans-2b" transform="translate(1480.878906 -40.878125) scale(0.7)"/>
     <use xlink:href="#DejaVuSans-65" transform="translate(1553.168945 -40.878125) scale(0.7)"/>
     <use xlink:href="#DejaVuSans-2212" transform="translate(1596.905273 -14.08125) scale(0.49)"/>
     <use xlink:href="#DejaVuSans-78" transform="translate(1637.961914 -14.08125) scale(0.49)"/>
     <path d="M 1422.705078 18.965625 
L 1422.705078 25.215625 
L 1668.874023 25.215625 
L 1668.874023 18.965625 
L 1422.705078 18.965625 
z
"/>
    </g>
   </g>
   <g id="legend_4">
    <g id="patch_25">
     <path d="M 591.871562 343.433594 
L 706.91375 343.433594 
Q 708.91375 343.433594 708.91375 341.433594 
L 708.91375 322.533594 
Q 708.91375 320.533594 706.91375 320.533594 
L 591.871562 320.533594 
Q 589.871562 320.533594 589.871562 322.533594 
L 589.871562 341.433594 
Q 589.871562 343.433594 591.871562 343.433594 
z
" style="fill: #ffffff; opacity: 0.8; stroke: #cccccc; stroke-linejoin: miter"/>
    </g>
    <g id="line2d_70">
     <path d="M 593.871562 331.733594 
L 603.871562 331.733594 
L 613.871562 331.733594 
" style="fill: none; stroke: #1f77b4; stroke-width: 2; stroke-linecap: square"/>
    </g>
    <g id="text_74">
     <!-- f(x) -->
     <g transform="translate(621.871562 335.233594) scale(0.1 -0.1)">
      <use xlink:href="#DejaVuSans-66"/>
      <use xlink:href="#DejaVuSans-28" x="35.205078"/>
      <use xlink:href="#DejaVuSans-78" x="74.21875"/>
      <use xlink:href="#DejaVuSans-29" x="133.398438"/>
     </g>
    </g>
    <g id="line2d_71">
     <path d="M 659.11375 331.733594 
L 669.11375 331.733594 
L 679.11375 331.733594 
" style="fill: none; stroke: #ff7f0e; stroke-linecap: square"/>
    </g>
    <g id="text_75">
     <!-- $\mathrm{\frac{df(x)}{dx}}}$ -->
     <g transform="translate(687.11375 335.233594) scale(0.1 -0.1)">
      <use xlink:href="#DejaVuSans-64" transform="translate(0 53.810938) scale(0.7)"/>
      <use xlink:href="#DejaVuSans-66" transform="translate(44.433594 53.810938) scale(0.7)"/>
      <use xlink:href="#DejaVuSans-28" transform="translate(69.077148 53.810938) scale(0.7)"/>
      <use xlink:href="#DejaVuSans-78" transform="translate(96.386719 53.810938) scale(0.7)"/>
      <use xlink:href="#DejaVuSans-29" transform="translate(137.8125 53.810938) scale(0.7)"/>
      <use xlink:href="#DejaVuSans-64" transform="translate(40 -39.859375) scale(0.7)"/>
      <use xlink:href="#DejaVuSans-78" transform="translate(84.433594 -39.859375) scale(0.7)"/>
      <path d="M 0 19.579688 
L 0 25.829688 
L 165.12207 25.829688 
L 165.12207 19.579688 
L 0 19.579688 
z
"/>
     </g>
    </g>
   </g>
  </g>
 </g>
 <defs>
  <clipPath id="p8b4ebb5489">
   <rect x="35.335125" y="21.269531" width="315.471234" height="134.414159"/>
  </clipPath>
  <clipPath id="pa711bd98e2">
   <rect x="398.442516" y="21.269531" width="315.471234" height="134.414159"/>
  </clipPath>
  <clipPath id="p5d200df4f9">
   <rect x="35.335125" y="214.019435" width="315.471234" height="134.414159"/>
  </clipPath>
  <clipPath id="pfe5a75aaf3">
   <rect x="398.442516" y="214.019435" width="315.471234" height="134.414159"/>
  </clipPath>
 </defs>
</svg>
