<?xml version="1.0" encoding="utf-8" standalone="no"?>
<!DOCTYPE svg PUBLIC "-//W3C//DTD SVG 1.1//EN"
  "http://www.w3.org/Graphics/SVG/1.1/DTD/svg11.dtd">
<svg xmlns:xlink="http://www.w3.org/1999/xlink" width="575.15625pt" height="306pt" viewBox="0 0 575.15625 306" xmlns="http://www.w3.org/2000/svg" version="1.1">
 <metadata>
  <rdf:RDF xmlns:dc="http://purl.org/dc/elements/1.1/" xmlns:cc="http://creativecommons.org/ns#" xmlns:rdf="http://www.w3.org/1999/02/22-rdf-syntax-ns#">
   <cc:Work>
    <dc:type rdf:resource="http://purl.org/dc/dcmitype/StillImage"/>
    <dc:date>2024-12-05T15:40:22.490018</dc:date>
    <dc:format>image/svg+xml</dc:format>
    <dc:creator>
     <cc:Agent>
      <dc:title>Matplotlib v3.7.2, https://matplotlib.org/</dc:title>
     </cc:Agent>
    </dc:creator>
   </cc:Work>
  </rdf:RDF>
 </metadata>
 <defs>
  <style type="text/css">*{stroke-linejoin: round; stroke-linecap: butt}</style>
 </defs>
 <g id="figure_1">
  <g id="patch_1">
   <path d="M 0 306 
L 575.15625 306 
L 575.15625 0 
L 0 0 
z
" style="fill: #ffffff"/>
  </g>
  <g id="axes_1">
   <g id="patch_2">
    <path d="M 29.908125 135.033586 
L 288.7558 135.033586 
L 288.7558 24.174 
L 29.908125 24.174 
z
" style="fill: #ffffff"/>
   </g>
   <g id="matplotlib.axis_1">
    <g id="xtick_1">
     <g id="line2d_1">
      <defs>
       <path id="mfc5b583ca8" d="M 0 0 
L 0 3.5 
" style="stroke: #000000; stroke-width: 0.8"/>
      </defs>
      <g>
       <use xlink:href="#mfc5b583ca8" x="41.337763" y="135.033586" style="stroke: #000000; stroke-width: 0.8"/>
      </g>
     </g>
     <g id="text_1">
      <!-- 0 -->
      <g transform="translate(38.156513 149.632023) scale(0.1 -0.1)">
       <defs>
        <path id="DejaVuSans-30" d="M 2034 4250 
Q 1547 4250 1301 3770 
Q 1056 3291 1056 2328 
Q 1056 1369 1301 889 
Q 1547 409 2034 409 
Q 2525 409 2770 889 
Q 3016 1369 3016 2328 
Q 3016 3291 2770 3770 
Q 2525 4250 2034 4250 
z
M 2034 4750 
Q 2819 4750 3233 4129 
Q 3647 3509 3647 2328 
Q 3647 1150 3233 529 
Q 2819 -91 2034 -91 
Q 1250 -91 836 529 
Q 422 1150 422 2328 
Q 422 3509 836 4129 
Q 1250 4750 2034 4750 
z
" transform="scale(0.015625)"/>
       </defs>
       <use xlink:href="#DejaVuSans-30"/>
      </g>
     </g>
    </g>
    <g id="xtick_2">
     <g id="line2d_2">
      <g>
       <use xlink:href="#mfc5b583ca8" x="74.954344" y="135.033586" style="stroke: #000000; stroke-width: 0.8"/>
      </g>
     </g>
     <g id="text_2">
      <!-- 5 -->
      <g transform="translate(71.773094 149.632023) scale(0.1 -0.1)">
       <defs>
        <path id="DejaVuSans-35" d="M 691 4666 
L 3169 4666 
L 3169 4134 
L 1269 4134 
L 1269 2991 
Q 1406 3038 1543 3061 
Q 1681 3084 1819 3084 
Q 2600 3084 3056 2656 
Q 3513 2228 3513 1497 
Q 3513 744 3044 326 
Q 2575 -91 1722 -91 
Q 1428 -91 1123 -41 
Q 819 9 494 109 
L 494 744 
Q 775 591 1075 516 
Q 1375 441 1709 441 
Q 2250 441 2565 725 
Q 2881 1009 2881 1497 
Q 2881 1984 2565 2268 
Q 2250 2553 1709 2553 
Q 1456 2553 1204 2497 
Q 953 2441 691 2322 
L 691 4666 
z
" transform="scale(0.015625)"/>
       </defs>
       <use xlink:href="#DejaVuSans-35"/>
      </g>
     </g>
    </g>
    <g id="xtick_3">
     <g id="line2d_3">
      <g>
       <use xlink:href="#mfc5b583ca8" x="108.570925" y="135.033586" style="stroke: #000000; stroke-width: 0.8"/>
      </g>
     </g>
     <g id="text_3">
      <!-- 10 -->
      <g transform="translate(102.208425 149.632023) scale(0.1 -0.1)">
       <defs>
        <path id="DejaVuSans-31" d="M 794 531 
L 1825 531 
L 1825 4091 
L 703 3866 
L 703 4441 
L 1819 4666 
L 2450 4666 
L 2450 531 
L 3481 531 
L 3481 0 
L 794 0 
L 794 531 
z
" transform="scale(0.015625)"/>
       </defs>
       <use xlink:href="#DejaVuSans-31"/>
       <use xlink:href="#DejaVuSans-30" x="63.623047"/>
      </g>
     </g>
    </g>
    <g id="xtick_4">
     <g id="line2d_4">
      <g>
       <use xlink:href="#mfc5b583ca8" x="142.187506" y="135.033586" style="stroke: #000000; stroke-width: 0.8"/>
      </g>
     </g>
     <g id="text_4">
      <!-- 15 -->
      <g transform="translate(135.825006 149.632023) scale(0.1 -0.1)">
       <use xlink:href="#DejaVuSans-31"/>
       <use xlink:href="#DejaVuSans-35" x="63.623047"/>
      </g>
     </g>
    </g>
    <g id="xtick_5">
     <g id="line2d_5">
      <g>
       <use xlink:href="#mfc5b583ca8" x="175.804087" y="135.033586" style="stroke: #000000; stroke-width: 0.8"/>
      </g>
     </g>
     <g id="text_5">
      <!-- 20 -->
      <g transform="translate(169.441587 149.632023) scale(0.1 -0.1)">
       <defs>
        <path id="DejaVuSans-32" d="M 1228 531 
L 3431 531 
L 3431 0 
L 469 0 
L 469 531 
Q 828 903 1448 1529 
Q 2069 2156 2228 2338 
Q 2531 2678 2651 2914 
Q 2772 3150 2772 3378 
Q 2772 3750 2511 3984 
Q 2250 4219 1831 4219 
Q 1534 4219 1204 4116 
Q 875 4013 500 3803 
L 500 4441 
Q 881 4594 1212 4672 
Q 1544 4750 1819 4750 
Q 2544 4750 2975 4387 
Q 3406 4025 3406 3419 
Q 3406 3131 3298 2873 
Q 3191 2616 2906 2266 
Q 2828 2175 2409 1742 
Q 1991 1309 1228 531 
z
" transform="scale(0.015625)"/>
       </defs>
       <use xlink:href="#DejaVuSans-32"/>
       <use xlink:href="#DejaVuSans-30" x="63.623047"/>
      </g>
     </g>
    </g>
    <g id="xtick_6">
     <g id="line2d_6">
      <g>
       <use xlink:href="#mfc5b583ca8" x="209.420668" y="135.033586" style="stroke: #000000; stroke-width: 0.8"/>
      </g>
     </g>
     <g id="text_6">
      <!-- 25 -->
      <g transform="translate(203.058168 149.632023) scale(0.1 -0.1)">
       <use xlink:href="#DejaVuSans-32"/>
       <use xlink:href="#DejaVuSans-35" x="63.623047"/>
      </g>
     </g>
    </g>
    <g id="xtick_7">
     <g id="line2d_7">
      <g>
       <use xlink:href="#mfc5b583ca8" x="243.037249" y="135.033586" style="stroke: #000000; stroke-width: 0.8"/>
      </g>
     </g>
     <g id="text_7">
      <!-- 30 -->
      <g transform="translate(236.674749 149.632023) scale(0.1 -0.1)">
       <defs>
        <path id="DejaVuSans-33" d="M 2597 2516 
Q 3050 2419 3304 2112 
Q 3559 1806 3559 1356 
Q 3559 666 3084 287 
Q 2609 -91 1734 -91 
Q 1441 -91 1130 -33 
Q 819 25 488 141 
L 488 750 
Q 750 597 1062 519 
Q 1375 441 1716 441 
Q 2309 441 2620 675 
Q 2931 909 2931 1356 
Q 2931 1769 2642 2001 
Q 2353 2234 1838 2234 
L 1294 2234 
L 1294 2753 
L 1863 2753 
Q 2328 2753 2575 2939 
Q 2822 3125 2822 3475 
Q 2822 3834 2567 4026 
Q 2313 4219 1838 4219 
Q 1578 4219 1281 4162 
Q 984 4106 628 3988 
L 628 4550 
Q 988 4650 1302 4700 
Q 1616 4750 1894 4750 
Q 2613 4750 3031 4423 
Q 3450 4097 3450 3541 
Q 3450 3153 3228 2886 
Q 3006 2619 2597 2516 
z
" transform="scale(0.015625)"/>
       </defs>
       <use xlink:href="#DejaVuSans-33"/>
       <use xlink:href="#DejaVuSans-30" x="63.623047"/>
      </g>
     </g>
    </g>
    <g id="xtick_8">
     <g id="line2d_8">
      <g>
       <use xlink:href="#mfc5b583ca8" x="276.653831" y="135.033586" style="stroke: #000000; stroke-width: 0.8"/>
      </g>
     </g>
     <g id="text_8">
      <!-- 35 -->
      <g transform="translate(270.291331 149.632023) scale(0.1 -0.1)">
       <use xlink:href="#DejaVuSans-33"/>
       <use xlink:href="#DejaVuSans-35" x="63.623047"/>
      </g>
     </g>
    </g>
    <g id="text_9">
     <!-- radius ($\mathrm{\AA}$) -->
     <g transform="translate(126.451962 166.056086) scale(0.12 -0.12)">
      <defs>
       <path id="DejaVuSans-Bold-72" d="M 3138 2547 
Q 2991 2616 2845 2648 
Q 2700 2681 2553 2681 
Q 2122 2681 1889 2404 
Q 1656 2128 1656 1613 
L 1656 0 
L 538 0 
L 538 3500 
L 1656 3500 
L 1656 2925 
Q 1872 3269 2151 3426 
Q 2431 3584 2822 3584 
Q 2878 3584 2943 3579 
Q 3009 3575 3134 3559 
L 3138 2547 
z
" transform="scale(0.015625)"/>
       <path id="DejaVuSans-Bold-61" d="M 2106 1575 
Q 1756 1575 1579 1456 
Q 1403 1338 1403 1106 
Q 1403 894 1545 773 
Q 1688 653 1941 653 
Q 2256 653 2472 879 
Q 2688 1106 2688 1447 
L 2688 1575 
L 2106 1575 
z
M 3816 1997 
L 3816 0 
L 2688 0 
L 2688 519 
Q 2463 200 2181 54 
Q 1900 -91 1497 -91 
Q 953 -91 614 226 
Q 275 544 275 1050 
Q 275 1666 698 1953 
Q 1122 2241 2028 2241 
L 2688 2241 
L 2688 2328 
Q 2688 2594 2478 2717 
Q 2269 2841 1825 2841 
Q 1466 2841 1156 2769 
Q 847 2697 581 2553 
L 581 3406 
Q 941 3494 1303 3539 
Q 1666 3584 2028 3584 
Q 2975 3584 3395 3211 
Q 3816 2838 3816 1997 
z
" transform="scale(0.015625)"/>
       <path id="DejaVuSans-Bold-64" d="M 2919 2988 
L 2919 4863 
L 4044 4863 
L 4044 0 
L 2919 0 
L 2919 506 
Q 2688 197 2409 53 
Q 2131 -91 1766 -91 
Q 1119 -91 703 423 
Q 288 938 288 1747 
Q 288 2556 703 3070 
Q 1119 3584 1766 3584 
Q 2128 3584 2408 3439 
Q 2688 3294 2919 2988 
z
M 2181 722 
Q 2541 722 2730 984 
Q 2919 1247 2919 1747 
Q 2919 2247 2730 2509 
Q 2541 2772 2181 2772 
Q 1825 2772 1636 2509 
Q 1447 2247 1447 1747 
Q 1447 1247 1636 984 
Q 1825 722 2181 722 
z
" transform="scale(0.015625)"/>
       <path id="DejaVuSans-Bold-69" d="M 538 3500 
L 1656 3500 
L 1656 0 
L 538 0 
L 538 3500 
z
M 538 4863 
L 1656 4863 
L 1656 3950 
L 538 3950 
L 538 4863 
z
" transform="scale(0.015625)"/>
       <path id="DejaVuSans-Bold-75" d="M 500 1363 
L 500 3500 
L 1625 3500 
L 1625 3150 
Q 1625 2866 1622 2436 
Q 1619 2006 1619 1863 
Q 1619 1441 1641 1255 
Q 1663 1069 1716 984 
Q 1784 875 1895 815 
Q 2006 756 2150 756 
Q 2500 756 2700 1025 
Q 2900 1294 2900 1772 
L 2900 3500 
L 4019 3500 
L 4019 0 
L 2900 0 
L 2900 506 
Q 2647 200 2364 54 
Q 2081 -91 1741 -91 
Q 1134 -91 817 281 
Q 500 653 500 1363 
z
" transform="scale(0.015625)"/>
       <path id="DejaVuSans-Bold-73" d="M 3272 3391 
L 3272 2541 
Q 2913 2691 2578 2766 
Q 2244 2841 1947 2841 
Q 1628 2841 1473 2761 
Q 1319 2681 1319 2516 
Q 1319 2381 1436 2309 
Q 1553 2238 1856 2203 
L 2053 2175 
Q 2913 2066 3209 1816 
Q 3506 1566 3506 1031 
Q 3506 472 3093 190 
Q 2681 -91 1863 -91 
Q 1516 -91 1145 -36 
Q 775 19 384 128 
L 384 978 
Q 719 816 1070 734 
Q 1422 653 1784 653 
Q 2113 653 2278 743 
Q 2444 834 2444 1013 
Q 2444 1163 2330 1236 
Q 2216 1309 1875 1350 
L 1678 1375 
Q 931 1469 631 1722 
Q 331 1975 331 2491 
Q 331 3047 712 3315 
Q 1094 3584 1881 3584 
Q 2191 3584 2531 3537 
Q 2872 3491 3272 3391 
z
" transform="scale(0.015625)"/>
       <path id="DejaVuSans-Bold-20" transform="scale(0.015625)"/>
       <path id="DejaVuSans-Bold-28" d="M 2413 -844 
L 1484 -844 
Q 1006 -72 778 623 
Q 550 1319 550 2003 
Q 550 2688 779 3389 
Q 1009 4091 1484 4856 
L 2413 4856 
Q 2013 4116 1813 3408 
Q 1613 2700 1613 2009 
Q 1613 1319 1811 609 
Q 2009 -100 2413 -844 
z
" transform="scale(0.015625)"/>
       <path id="DejaVuSans-c5" d="M 2663 5081 
Q 2663 5278 2523 5417 
Q 2384 5556 2188 5556 
Q 1988 5556 1852 5420 
Q 1716 5284 1716 5081 
Q 1716 4884 1853 4746 
Q 1991 4609 2188 4609 
Q 2384 4609 2523 4746 
Q 2663 4884 2663 5081 
z
M 2188 4044 
L 1338 1722 
L 3041 1722 
L 2188 4044 
z
M 1716 4366 
Q 1525 4494 1428 4673 
Q 1331 4853 1331 5081 
Q 1331 5441 1579 5691 
Q 1828 5941 2188 5941 
Q 2544 5941 2795 5689 
Q 3047 5438 3047 5081 
Q 3047 4863 2948 4678 
Q 2850 4494 2663 4366 
L 4325 0 
L 3669 0 
L 3244 1197 
L 1141 1197 
L 716 0 
L 50 0 
L 1716 4366 
z
" transform="scale(0.015625)"/>
       <path id="DejaVuSans-Bold-29" d="M 513 -844 
Q 913 -100 1113 609 
Q 1313 1319 1313 2009 
Q 1313 2700 1113 3408 
Q 913 4116 513 4856 
L 1441 4856 
Q 1916 4091 2145 3389 
Q 2375 2688 2375 2003 
Q 2375 1319 2147 623 
Q 1919 -72 1441 -844 
L 513 -844 
z
" transform="scale(0.015625)"/>
      </defs>
      <use xlink:href="#DejaVuSans-Bold-72" transform="translate(0 0.171875)"/>
      <use xlink:href="#DejaVuSans-Bold-61" transform="translate(49.316406 0.171875)"/>
      <use xlink:href="#DejaVuSans-Bold-64" transform="translate(116.796875 0.171875)"/>
      <use xlink:href="#DejaVuSans-Bold-69" transform="translate(188.378906 0.171875)"/>
      <use xlink:href="#DejaVuSans-Bold-75" transform="translate(222.65625 0.171875)"/>
      <use xlink:href="#DejaVuSans-Bold-73" transform="translate(293.847656 0.171875)"/>
      <use xlink:href="#DejaVuSans-Bold-20" transform="translate(353.369141 0.171875)"/>
      <use xlink:href="#DejaVuSans-Bold-28" transform="translate(388.183594 0.171875)"/>
      <use xlink:href="#DejaVuSans-c5" transform="translate(433.886719 0.171875)"/>
      <use xlink:href="#DejaVuSans-Bold-29" transform="translate(502.294922 0.171875)"/>
     </g>
    </g>
   </g>
   <g id="matplotlib.axis_2">
    <g id="ytick_1">
     <g id="line2d_9">
      <defs>
       <path id="m118e094673" d="M 0 0 
L -3.5 0 
" style="stroke: #000000; stroke-width: 0.8"/>
      </defs>
      <g>
       <use xlink:href="#m118e094673" x="29.908125" y="129.994514" style="stroke: #000000; stroke-width: 0.8"/>
      </g>
     </g>
     <g id="text_10">
      <!-- 0.00 -->
      <g transform="translate(0.6425 133.793733) scale(0.1 -0.1)">
       <defs>
        <path id="DejaVuSans-2e" d="M 684 794 
L 1344 794 
L 1344 0 
L 684 0 
L 684 794 
z
" transform="scale(0.015625)"/>
       </defs>
       <use xlink:href="#DejaVuSans-30"/>
       <use xlink:href="#DejaVuSans-2e" x="63.623047"/>
       <use xlink:href="#DejaVuSans-30" x="95.410156"/>
       <use xlink:href="#DejaVuSans-30" x="159.033203"/>
      </g>
     </g>
    </g>
    <g id="ytick_2">
     <g id="line2d_10">
      <g>
       <use xlink:href="#m118e094673" x="29.908125" y="107.300476" style="stroke: #000000; stroke-width: 0.8"/>
      </g>
     </g>
     <g id="text_11">
      <!-- 0.25 -->
      <g transform="translate(0.6425 111.099694) scale(0.1 -0.1)">
       <use xlink:href="#DejaVuSans-30"/>
       <use xlink:href="#DejaVuSans-2e" x="63.623047"/>
       <use xlink:href="#DejaVuSans-32" x="95.410156"/>
       <use xlink:href="#DejaVuSans-35" x="159.033203"/>
      </g>
     </g>
    </g>
    <g id="ytick_3">
     <g id="line2d_11">
      <g>
       <use xlink:href="#m118e094673" x="29.908125" y="84.606437" style="stroke: #000000; stroke-width: 0.8"/>
      </g>
     </g>
     <g id="text_12">
      <!-- 0.50 -->
      <g transform="translate(0.6425 88.405656) scale(0.1 -0.1)">
       <use xlink:href="#DejaVuSans-30"/>
       <use xlink:href="#DejaVuSans-2e" x="63.623047"/>
       <use xlink:href="#DejaVuSans-35" x="95.410156"/>
       <use xlink:href="#DejaVuSans-30" x="159.033203"/>
      </g>
     </g>
    </g>
    <g id="ytick_4">
     <g id="line2d_12">
      <g>
       <use xlink:href="#m118e094673" x="29.908125" y="61.912399" style="stroke: #000000; stroke-width: 0.8"/>
      </g>
     </g>
     <g id="text_13">
      <!-- 0.75 -->
      <g transform="translate(0.6425 65.711618) scale(0.1 -0.1)">
       <defs>
        <path id="DejaVuSans-37" d="M 525 4666 
L 3525 4666 
L 3525 4397 
L 1831 0 
L 1172 0 
L 2766 4134 
L 525 4134 
L 525 4666 
z
" transform="scale(0.015625)"/>
       </defs>
       <use xlink:href="#DejaVuSans-30"/>
       <use xlink:href="#DejaVuSans-2e" x="63.623047"/>
       <use xlink:href="#DejaVuSans-37" x="95.410156"/>
       <use xlink:href="#DejaVuSans-35" x="159.033203"/>
      </g>
     </g>
    </g>
    <g id="ytick_5">
     <g id="line2d_13">
      <g>
       <use xlink:href="#m118e094673" x="29.908125" y="39.21836" style="stroke: #000000; stroke-width: 0.8"/>
      </g>
     </g>
     <g id="text_14">
      <!-- 1.00 -->
      <g transform="translate(0.6425 43.017579) scale(0.1 -0.1)">
       <use xlink:href="#DejaVuSans-31"/>
       <use xlink:href="#DejaVuSans-2e" x="63.623047"/>
       <use xlink:href="#DejaVuSans-30" x="95.410156"/>
       <use xlink:href="#DejaVuSans-30" x="159.033203"/>
      </g>
     </g>
    </g>
   </g>
   <g id="line2d_14">
    <path d="M 41.673928 129.994514 
L 69.911857 129.896879 
L 70.584188 129.422011 
L 71.25652 127.303022 
L 71.928851 120.84453 
L 72.601183 106.683615 
L 73.945846 61.291682 
L 74.618178 43.533489 
L 75.29051 34.892234 
L 75.962841 35.240728 
L 76.635173 41.838406 
L 77.979836 61.457521 
L 79.324499 79.089752 
L 79.996831 85.963921 
L 80.669163 91.246852 
L 82.013826 98.4514 
L 82.686157 101.442742 
L 83.358489 103.568774 
L 84.030821 104.953371 
L 85.375484 106.787427 
L 86.720147 106.912856 
L 87.392479 106.426248 
L 88.06481 106.13116 
L 88.737142 105.111969 
L 89.409474 104.581462 
L 90.081805 103.430692 
L 90.754137 102.510095 
L 91.426468 101.784848 
L 93.443463 98.900845 
L 94.115795 97.646924 
L 96.13279 92.682479 
L 97.477453 88.475731 
L 99.494448 80.762573 
L 101.511443 74.855337 
L 102.183774 73.155747 
L 106.890096 64.75814 
L 107.562427 64.061786 
L 108.234759 63.717215 
L 108.907091 63.736925 
L 110.251754 65.318675 
L 111.596417 68.365322 
L 113.613412 73.711213 
L 115.630407 77.787767 
L 116.302739 78.459933 
L 116.97507 79.351234 
L 117.647402 79.905692 
L 118.319733 80.267734 
L 120.336728 79.816046 
L 121.00906 79.221819 
L 122.353723 77.609406 
L 123.698386 75.36123 
L 125.04305 72.564594 
L 126.387713 69.334488 
L 128.404708 64.389782 
L 129.077039 62.617826 
L 131.766366 57.53976 
L 132.438697 56.860692 
L 133.111029 55.976049 
L 133.783361 55.641833 
L 134.455692 55.141218 
L 135.128024 55.121289 
L 135.800356 54.945577 
L 137.145019 55.128773 
L 137.81735 55.206485 
L 139.834345 56.212478 
L 140.506677 56.627027 
L 141.179009 56.847104 
L 141.85134 57.259636 
L 142.523672 57.508143 
L 145.212998 59.287459 
L 145.88533 59.568433 
L 146.557662 59.692808 
L 147.229993 60.030967 
L 147.902325 60.010083 
L 149.246988 60.178294 
L 150.591651 59.653116 
L 151.263983 59.134704 
L 151.936315 58.848717 
L 154.625641 56.019515 
L 156.642636 52.98952 
L 159.331962 49.315325 
L 160.004294 48.3279 
L 161.348957 46.960881 
L 162.021289 46.179694 
L 163.365952 45.212458 
L 164.038284 44.836758 
L 164.710615 44.776047 
L 165.382947 44.586535 
L 168.072274 44.778144 
L 169.416937 45.078697 
L 170.7616 45.177097 
L 171.433932 45.628024 
L 172.106263 45.714403 
L 172.778595 45.930805 
L 173.450926 45.94309 
L 174.123258 46.285622 
L 176.812585 46.338391 
L 177.484916 46.169496 
L 178.157248 46.137336 
L 178.829579 45.861537 
L 179.501911 45.842189 
L 182.191238 44.534925 
L 182.863569 44.215673 
L 184.208232 43.235621 
L 184.880564 42.957084 
L 185.552896 42.327127 
L 186.225227 41.933268 
L 188.242222 40.240244 
L 188.914554 40.031026 
L 190.931549 38.882421 
L 192.276212 38.310829 
L 193.620875 37.943901 
L 194.293207 37.798381 
L 194.965538 37.835324 
L 195.63787 37.569357 
L 198.327197 37.595328 
L 198.999528 37.75427 
L 199.67186 37.760252 
L 202.361186 38.2071 
L 204.378181 38.34662 
L 205.722844 38.462906 
L 207.067508 38.360967 
L 207.739839 38.467733 
L 209.084503 38.085803 
L 209.756834 38.148073 
L 210.429166 37.890153 
L 211.773829 37.733962 
L 212.446161 37.437484 
L 213.118492 37.419998 
L 217.152482 36.213918 
L 217.824814 36.177076 
L 219.841808 35.756605 
L 220.51414 35.746359 
L 221.858803 35.510308 
L 225.892793 35.494066 
L 226.565125 35.533184 
L 227.237456 35.69625 
L 227.909788 35.555914 
L 228.58212 35.548293 
L 230.599114 35.821828 
L 233.288441 36.136191 
L 233.960773 36.265961 
L 234.633104 36.103175 
L 235.305436 36.105527 
L 235.977767 36.387188 
L 236.650099 36.304698 
L 237.322431 36.440737 
L 238.667094 36.454436 
L 239.339426 36.501387 
L 240.011757 36.412154 
L 241.35642 36.408749 
L 247.407405 35.971515 
L 248.079737 35.834954 
L 255.475384 35.716931 
L 256.147716 35.844106 
L 258.837043 35.952616 
L 262.871032 36.22265 
L 264.215696 36.198813 
L 264.888027 36.357443 
L 266.23269 36.374206 
L 266.905022 36.507431 
L 267.577354 36.393899 
L 268.249685 36.417021 
L 268.922017 36.577197 
L 269.594349 36.504729 
L 270.939012 36.562065 
L 276.989996 36.276679 
L 276.989996 36.276679 
" clip-path="url(#p3498bf541f)" style="fill: none; stroke: #1f77b4; stroke-width: 2; stroke-linecap: square"/>
   </g>
   <g id="line2d_15">
    <path d="M 41.673928 129.994514 
L 69.911857 129.935623 
L 70.584188 129.623201 
L 71.25652 128.163904 
L 71.928851 123.162111 
L 72.601183 111.056836 
L 73.273515 89.369559 
L 73.945846 62.598358 
L 74.618178 40.718479 
L 75.29051 29.256852 
L 75.962841 29.213072 
L 76.635173 35.683728 
L 79.324499 77.409588 
L 79.996831 85.073217 
L 80.669163 90.925386 
L 81.341494 95.530387 
L 82.013826 99.294967 
L 83.358489 103.990153 
L 84.703152 106.361022 
L 86.047816 107.909307 
L 87.392479 106.97869 
L 88.06481 106.61566 
L 88.737142 105.416109 
L 90.081805 103.692187 
L 90.754137 102.627722 
L 91.426468 101.81158 
L 92.0988 100.692439 
L 92.771132 99.812309 
L 94.788127 95.966366 
L 96.13279 92.30739 
L 96.805121 90.248402 
L 100.16678 77.669723 
L 101.511443 73.618202 
L 102.183774 71.987158 
L 103.528438 70.054885 
L 104.200769 68.649016 
L 104.873101 67.779386 
L 105.545433 66.303204 
L 106.217764 65.13002 
L 106.890096 63.627643 
L 108.234759 62.387688 
L 108.907091 62.519643 
L 109.579422 62.829376 
L 111.596417 67.548856 
L 113.613412 73.512092 
L 114.958075 76.82777 
L 116.302739 79.258163 
L 116.97507 80.054825 
L 117.647402 80.554782 
L 118.319733 80.722544 
L 119.664397 80.249312 
L 120.336728 79.93385 
L 121.681392 78.33764 
L 123.026055 75.883677 
L 125.715381 69.93531 
L 127.732376 64.651828 
L 129.077039 61.400943 
L 130.421703 58.427568 
L 131.766366 56.245314 
L 132.438697 55.258692 
L 133.111029 54.683049 
L 134.455692 53.927759 
L 135.128024 53.784047 
L 135.800356 53.998563 
L 136.472687 54.008284 
L 137.145019 54.620076 
L 137.81735 54.44724 
L 138.489682 54.918123 
L 139.162014 55.053587 
L 140.506677 56.097162 
L 141.179009 56.66037 
L 141.85134 56.80723 
L 144.540667 58.73566 
L 145.212998 58.922499 
L 145.88533 59.472922 
L 147.229993 59.842507 
L 147.902325 60.123408 
L 149.246988 60.052127 
L 149.91932 59.790899 
L 150.591651 59.669018 
L 152.608646 57.982115 
L 155.297973 54.290765 
L 157.314968 51.116689 
L 159.331962 48.19676 
L 160.676626 46.660525 
L 161.348957 46.020525 
L 162.021289 45.189315 
L 164.710615 43.765275 
L 165.382947 43.982335 
L 166.72761 43.805122 
L 174.123258 46.56365 
L 174.79559 46.640882 
L 176.140253 46.44854 
L 176.812585 46.436778 
L 177.484916 46.156184 
L 178.157248 46.245628 
L 180.174243 45.45139 
L 180.846574 45.023188 
L 181.518906 44.765868 
L 182.191238 44.255689 
L 182.863569 43.969977 
L 183.535901 43.55168 
L 184.880564 42.370641 
L 185.552896 42.128597 
L 186.897559 40.905272 
L 189.586885 38.868045 
L 190.259217 38.553374 
L 190.931549 38.055771 
L 192.276212 37.427581 
L 192.948544 37.180456 
L 193.620875 37.074218 
L 194.293207 37.123796 
L 194.965538 36.934153 
L 195.63787 37.043604 
L 196.310202 36.926886 
L 197.654865 37.066784 
L 198.327197 37.27489 
L 198.999528 37.292441 
L 200.344191 37.672586 
L 201.016523 37.649168 
L 201.688855 37.94923 
L 203.033518 37.995277 
L 203.70585 38.323081 
L 206.395176 38.588475 
L 207.067508 38.503741 
L 207.739839 38.539482 
L 208.412171 38.39832 
L 209.084503 38.391509 
L 213.118492 37.29328 
L 213.790824 37.148474 
L 215.135487 36.621226 
L 217.152482 36.105516 
L 218.497145 35.589399 
L 219.169477 35.630811 
L 219.841808 35.320991 
L 223.203467 34.996849 
L 223.875798 35.181335 
L 226.565125 35.400222 
L 227.237456 35.611483 
L 228.58212 35.430452 
L 229.926783 35.695099 
L 233.960773 36.003252 
L 235.305436 36.238615 
L 235.977767 36.176223 
L 237.994762 36.414425 
L 241.35642 36.440442 
L 243.373415 36.23408 
L 245.39041 36.019442 
L 246.062742 36.071686 
L 248.079737 35.874744 
L 250.769063 35.721484 
L 252.113726 35.697195 
L 254.130721 35.814606 
L 254.803053 35.966609 
L 255.475384 35.8936 
L 256.820048 36.149846 
L 258.164711 36.177806 
L 259.509374 36.297413 
L 262.198701 36.269574 
L 262.871032 36.356624 
L 263.543364 36.330087 
L 264.888027 36.452625 
L 266.23269 36.384814 
L 266.905022 36.523771 
L 267.577354 36.418448 
L 269.594349 36.514008 
L 270.26668 36.440315 
L 270.939012 36.539969 
L 272.283675 36.438326 
L 274.973002 36.389798 
L 275.645333 36.419567 
L 276.317665 36.321558 
L 276.989996 36.360889 
L 276.989996 36.360889 
" clip-path="url(#p3498bf541f)" style="fill: none; stroke: #ff7f0e; stroke-opacity: 0.7; stroke-linecap: square"/>
   </g>
   <g id="patch_3">
    <path d="M 29.908125 135.033586 
L 29.908125 24.174 
" style="fill: none; stroke: #000000; stroke-width: 0.8; stroke-linejoin: miter; stroke-linecap: square"/>
   </g>
   <g id="patch_4">
    <path d="M 288.7558 135.033586 
L 288.7558 24.174 
" style="fill: none; stroke: #000000; stroke-width: 0.8; stroke-linejoin: miter; stroke-linecap: square"/>
   </g>
   <g id="patch_5">
    <path d="M 29.908125 135.033586 
L 288.7558 135.033586 
" style="fill: none; stroke: #000000; stroke-width: 0.8; stroke-linejoin: miter; stroke-linecap: square"/>
   </g>
   <g id="patch_6">
    <path d="M 29.908125 24.174 
L 288.7558 24.174 
" style="fill: none; stroke: #000000; stroke-width: 0.8; stroke-linejoin: miter; stroke-linecap: square"/>
   </g>
   <g id="text_15">
    <!-- g -->
    <g transform="translate(16.965741 22.112416) scale(0.12 -0.12)">
     <defs>
      <path id="DejaVuSans-Bold-67" d="M 2919 594 
Q 2688 288 2409 144 
Q 2131 0 1766 0 
Q 1125 0 706 504 
Q 288 1009 288 1791 
Q 288 2575 706 3076 
Q 1125 3578 1766 3578 
Q 2131 3578 2409 3434 
Q 2688 3291 2919 2981 
L 2919 3500 
L 4044 3500 
L 4044 353 
Q 4044 -491 3511 -936 
Q 2978 -1381 1966 -1381 
Q 1638 -1381 1331 -1331 
Q 1025 -1281 716 -1178 
L 716 -306 
Q 1009 -475 1290 -558 
Q 1572 -641 1856 -641 
Q 2406 -641 2662 -400 
Q 2919 -159 2919 353 
L 2919 594 
z
M 2181 2772 
Q 1834 2772 1640 2515 
Q 1447 2259 1447 1791 
Q 1447 1309 1634 1061 
Q 1822 813 2181 813 
Q 2531 813 2725 1069 
Q 2919 1325 2919 1791 
Q 2919 2259 2725 2515 
Q 2531 2772 2181 2772 
z
" transform="scale(0.015625)"/>
     </defs>
     <use xlink:href="#DejaVuSans-Bold-67"/>
    </g>
   </g>
   <g id="text_16">
    <!-- Radial distribution function -->
    <g transform="translate(58.558603 11.13225) scale(0.13 -0.13)">
     <defs>
      <path id="DejaVuSans-Bold-52" d="M 2297 2597 
Q 2675 2597 2839 2737 
Q 3003 2878 3003 3200 
Q 3003 3519 2839 3656 
Q 2675 3794 2297 3794 
L 1791 3794 
L 1791 2597 
L 2297 2597 
z
M 1791 1766 
L 1791 0 
L 588 0 
L 588 4666 
L 2425 4666 
Q 3347 4666 3776 4356 
Q 4206 4047 4206 3378 
Q 4206 2916 3982 2619 
Q 3759 2322 3309 2181 
Q 3556 2125 3751 1926 
Q 3947 1728 4147 1325 
L 4800 0 
L 3519 0 
L 2950 1159 
Q 2778 1509 2601 1637 
Q 2425 1766 2131 1766 
L 1791 1766 
z
" transform="scale(0.015625)"/>
      <path id="DejaVuSans-Bold-6c" d="M 538 4863 
L 1656 4863 
L 1656 0 
L 538 0 
L 538 4863 
z
" transform="scale(0.015625)"/>
      <path id="DejaVuSans-Bold-74" d="M 1759 4494 
L 1759 3500 
L 2913 3500 
L 2913 2700 
L 1759 2700 
L 1759 1216 
Q 1759 972 1856 886 
Q 1953 800 2241 800 
L 2816 800 
L 2816 0 
L 1856 0 
Q 1194 0 917 276 
Q 641 553 641 1216 
L 641 2700 
L 84 2700 
L 84 3500 
L 641 3500 
L 641 4494 
L 1759 4494 
z
" transform="scale(0.015625)"/>
      <path id="DejaVuSans-Bold-62" d="M 2400 722 
Q 2759 722 2948 984 
Q 3138 1247 3138 1747 
Q 3138 2247 2948 2509 
Q 2759 2772 2400 2772 
Q 2041 2772 1848 2508 
Q 1656 2244 1656 1747 
Q 1656 1250 1848 986 
Q 2041 722 2400 722 
z
M 1656 2988 
Q 1888 3294 2169 3439 
Q 2450 3584 2816 3584 
Q 3463 3584 3878 3070 
Q 4294 2556 4294 1747 
Q 4294 938 3878 423 
Q 3463 -91 2816 -91 
Q 2450 -91 2169 54 
Q 1888 200 1656 506 
L 1656 0 
L 538 0 
L 538 4863 
L 1656 4863 
L 1656 2988 
z
" transform="scale(0.015625)"/>
      <path id="DejaVuSans-Bold-6f" d="M 2203 2784 
Q 1831 2784 1636 2517 
Q 1441 2250 1441 1747 
Q 1441 1244 1636 976 
Q 1831 709 2203 709 
Q 2569 709 2762 976 
Q 2956 1244 2956 1747 
Q 2956 2250 2762 2517 
Q 2569 2784 2203 2784 
z
M 2203 3584 
Q 3106 3584 3614 3096 
Q 4122 2609 4122 1747 
Q 4122 884 3614 396 
Q 3106 -91 2203 -91 
Q 1297 -91 786 396 
Q 275 884 275 1747 
Q 275 2609 786 3096 
Q 1297 3584 2203 3584 
z
" transform="scale(0.015625)"/>
      <path id="DejaVuSans-Bold-6e" d="M 4056 2131 
L 4056 0 
L 2931 0 
L 2931 347 
L 2931 1631 
Q 2931 2084 2911 2256 
Q 2891 2428 2841 2509 
Q 2775 2619 2662 2680 
Q 2550 2741 2406 2741 
Q 2056 2741 1856 2470 
Q 1656 2200 1656 1722 
L 1656 0 
L 538 0 
L 538 3500 
L 1656 3500 
L 1656 2988 
Q 1909 3294 2193 3439 
Q 2478 3584 2822 3584 
Q 3428 3584 3742 3212 
Q 4056 2841 4056 2131 
z
" transform="scale(0.015625)"/>
      <path id="DejaVuSans-Bold-66" d="M 2841 4863 
L 2841 4128 
L 2222 4128 
Q 1984 4128 1890 4042 
Q 1797 3956 1797 3744 
L 1797 3500 
L 2753 3500 
L 2753 2700 
L 1797 2700 
L 1797 0 
L 678 0 
L 678 2700 
L 122 2700 
L 122 3500 
L 678 3500 
L 678 3744 
Q 678 4316 997 4589 
Q 1316 4863 1984 4863 
L 2841 4863 
z
" transform="scale(0.015625)"/>
      <path id="DejaVuSans-Bold-63" d="M 3366 3391 
L 3366 2478 
Q 3138 2634 2908 2709 
Q 2678 2784 2431 2784 
Q 1963 2784 1702 2511 
Q 1441 2238 1441 1747 
Q 1441 1256 1702 982 
Q 1963 709 2431 709 
Q 2694 709 2930 787 
Q 3166 866 3366 1019 
L 3366 103 
Q 3103 6 2833 -42 
Q 2563 -91 2291 -91 
Q 1344 -91 809 395 
Q 275 881 275 1747 
Q 275 2613 809 3098 
Q 1344 3584 2291 3584 
Q 2566 3584 2833 3536 
Q 3100 3488 3366 3391 
z
" transform="scale(0.015625)"/>
     </defs>
     <use xlink:href="#DejaVuSans-Bold-52"/>
     <use xlink:href="#DejaVuSans-Bold-61" x="77.001953"/>
     <use xlink:href="#DejaVuSans-Bold-64" x="144.482422"/>
     <use xlink:href="#DejaVuSans-Bold-69" x="216.064453"/>
     <use xlink:href="#DejaVuSans-Bold-61" x="250.341797"/>
     <use xlink:href="#DejaVuSans-Bold-6c" x="317.822266"/>
     <use xlink:href="#DejaVuSans-Bold-20" x="352.099609"/>
     <use xlink:href="#DejaVuSans-Bold-64" x="386.914062"/>
     <use xlink:href="#DejaVuSans-Bold-69" x="458.496094"/>
     <use xlink:href="#DejaVuSans-Bold-73" x="492.773438"/>
     <use xlink:href="#DejaVuSans-Bold-74" x="552.294922"/>
     <use xlink:href="#DejaVuSans-Bold-72" x="600.097656"/>
     <use xlink:href="#DejaVuSans-Bold-69" x="649.414062"/>
     <use xlink:href="#DejaVuSans-Bold-62" x="683.691406"/>
     <use xlink:href="#DejaVuSans-Bold-75" x="755.273438"/>
     <use xlink:href="#DejaVuSans-Bold-74" x="826.464844"/>
     <use xlink:href="#DejaVuSans-Bold-69" x="874.267578"/>
     <use xlink:href="#DejaVuSans-Bold-6f" x="908.544922"/>
     <use xlink:href="#DejaVuSans-Bold-6e" x="977.246094"/>
     <use xlink:href="#DejaVuSans-Bold-20" x="1048.4375"/>
     <use xlink:href="#DejaVuSans-Bold-66" x="1083.251953"/>
     <use xlink:href="#DejaVuSans-Bold-75" x="1126.757812"/>
     <use xlink:href="#DejaVuSans-Bold-6e" x="1197.949219"/>
     <use xlink:href="#DejaVuSans-Bold-63" x="1269.140625"/>
     <use xlink:href="#DejaVuSans-Bold-74" x="1328.417969"/>
     <use xlink:href="#DejaVuSans-Bold-69" x="1376.220703"/>
     <use xlink:href="#DejaVuSans-Bold-6f" x="1410.498047"/>
     <use xlink:href="#DejaVuSans-Bold-6e" x="1479.199219"/>
    </g>
   </g>
   <g id="legend_1">
    <g id="patch_7">
     <path d="M 239.05455 131.033586 
L 283.1558 131.033586 
Q 284.7558 131.033586 284.7558 129.433586 
L 284.7558 106.748586 
Q 284.7558 105.148586 283.1558 105.148586 
L 239.05455 105.148586 
Q 237.45455 105.148586 237.45455 106.748586 
L 237.45455 129.433586 
Q 237.45455 131.033586 239.05455 131.033586 
z
" style="fill: #ffffff; opacity: 0.8; stroke: #cccccc; stroke-linejoin: miter"/>
    </g>
    <g id="line2d_16">
     <path d="M 240.65455 111.627336 
L 248.65455 111.627336 
L 256.65455 111.627336 
" style="fill: none; stroke: #1f77b4; stroke-width: 2; stroke-linecap: square"/>
    </g>
    <g id="text_17">
     <!-- BM -->
     <g transform="translate(263.05455 114.427336) scale(0.08 -0.08)">
      <defs>
       <path id="DejaVuSans-42" d="M 1259 2228 
L 1259 519 
L 2272 519 
Q 2781 519 3026 730 
Q 3272 941 3272 1375 
Q 3272 1813 3026 2020 
Q 2781 2228 2272 2228 
L 1259 2228 
z
M 1259 4147 
L 1259 2741 
L 2194 2741 
Q 2656 2741 2882 2914 
Q 3109 3088 3109 3444 
Q 3109 3797 2882 3972 
Q 2656 4147 2194 4147 
L 1259 4147 
z
M 628 4666 
L 2241 4666 
Q 2963 4666 3353 4366 
Q 3744 4066 3744 3513 
Q 3744 3084 3544 2831 
Q 3344 2578 2956 2516 
Q 3422 2416 3680 2098 
Q 3938 1781 3938 1306 
Q 3938 681 3513 340 
Q 3088 0 2303 0 
L 628 0 
L 628 4666 
z
" transform="scale(0.015625)"/>
       <path id="DejaVuSans-4d" d="M 628 4666 
L 1569 4666 
L 2759 1491 
L 3956 4666 
L 4897 4666 
L 4897 0 
L 4281 0 
L 4281 4097 
L 3078 897 
L 2444 897 
L 1241 4097 
L 1241 0 
L 628 0 
L 628 4666 
z
" transform="scale(0.015625)"/>
      </defs>
      <use xlink:href="#DejaVuSans-42"/>
      <use xlink:href="#DejaVuSans-4d" x="68.603516"/>
     </g>
    </g>
    <g id="line2d_17">
     <path d="M 240.65455 123.369836 
L 248.65455 123.369836 
L 256.65455 123.369836 
" style="fill: none; stroke: #ff7f0e; stroke-opacity: 0.7; stroke-linecap: square"/>
    </g>
    <g id="text_18">
     <!-- EdSr -->
     <g transform="translate(263.05455 126.169836) scale(0.08 -0.08)">
      <defs>
       <path id="DejaVuSans-45" d="M 628 4666 
L 3578 4666 
L 3578 4134 
L 1259 4134 
L 1259 2753 
L 3481 2753 
L 3481 2222 
L 1259 2222 
L 1259 531 
L 3634 531 
L 3634 0 
L 628 0 
L 628 4666 
z
" transform="scale(0.015625)"/>
       <path id="DejaVuSans-64" d="M 2906 2969 
L 2906 4863 
L 3481 4863 
L 3481 0 
L 2906 0 
L 2906 525 
Q 2725 213 2448 61 
Q 2172 -91 1784 -91 
Q 1150 -91 751 415 
Q 353 922 353 1747 
Q 353 2572 751 3078 
Q 1150 3584 1784 3584 
Q 2172 3584 2448 3432 
Q 2725 3281 2906 2969 
z
M 947 1747 
Q 947 1113 1208 752 
Q 1469 391 1925 391 
Q 2381 391 2643 752 
Q 2906 1113 2906 1747 
Q 2906 2381 2643 2742 
Q 2381 3103 1925 3103 
Q 1469 3103 1208 2742 
Q 947 2381 947 1747 
z
" transform="scale(0.015625)"/>
       <path id="DejaVuSans-53" d="M 3425 4513 
L 3425 3897 
Q 3066 4069 2747 4153 
Q 2428 4238 2131 4238 
Q 1616 4238 1336 4038 
Q 1056 3838 1056 3469 
Q 1056 3159 1242 3001 
Q 1428 2844 1947 2747 
L 2328 2669 
Q 3034 2534 3370 2195 
Q 3706 1856 3706 1288 
Q 3706 609 3251 259 
Q 2797 -91 1919 -91 
Q 1588 -91 1214 -16 
Q 841 59 441 206 
L 441 856 
Q 825 641 1194 531 
Q 1563 422 1919 422 
Q 2459 422 2753 634 
Q 3047 847 3047 1241 
Q 3047 1584 2836 1778 
Q 2625 1972 2144 2069 
L 1759 2144 
Q 1053 2284 737 2584 
Q 422 2884 422 3419 
Q 422 4038 858 4394 
Q 1294 4750 2059 4750 
Q 2388 4750 2728 4690 
Q 3069 4631 3425 4513 
z
" transform="scale(0.015625)"/>
       <path id="DejaVuSans-72" d="M 2631 2963 
Q 2534 3019 2420 3045 
Q 2306 3072 2169 3072 
Q 1681 3072 1420 2755 
Q 1159 2438 1159 1844 
L 1159 0 
L 581 0 
L 581 3500 
L 1159 3500 
L 1159 2956 
Q 1341 3275 1631 3429 
Q 1922 3584 2338 3584 
Q 2397 3584 2469 3576 
Q 2541 3569 2628 3553 
L 2631 2963 
z
" transform="scale(0.015625)"/>
      </defs>
      <use xlink:href="#DejaVuSans-45"/>
      <use xlink:href="#DejaVuSans-64" x="63.183594"/>
      <use xlink:href="#DejaVuSans-53" x="126.660156"/>
      <use xlink:href="#DejaVuSans-72" x="190.136719"/>
     </g>
    </g>
   </g>
  </g>
  <g id="axes_2">
   <g id="patch_8">
    <path d="M 315.158263 135.033586 
L 574.005938 135.033586 
L 574.005938 24.174 
L 315.158263 24.174 
z
" style="fill: #ffffff"/>
   </g>
   <g id="patch_9">
    <path d="M 268.852163 135.033586 
L 277.111311 135.033586 
L 277.111311 134.959414 
L 268.852163 134.959414 
z
" clip-path="url(#p7f1d7a0c5b)" style="fill: #0000ff; stroke: #ffffff; stroke-linejoin: miter"/>
   </g>
   <g id="patch_10">
    <path d="M 285.370459 135.033586 
L 293.629606 135.033586 
L 293.629606 134.885243 
L 285.370459 134.885243 
z
" clip-path="url(#p7f1d7a0c5b)" style="fill: #0000ff; stroke: #ffffff; stroke-linejoin: miter"/>
   </g>
   <g id="patch_11">
    <path d="M 301.888754 135.033586 
L 310.147902 135.033586 
L 310.147902 134.366042 
L 301.888754 134.366042 
z
" clip-path="url(#p7f1d7a0c5b)" style="fill: #0000ff; stroke: #ffffff; stroke-linejoin: miter"/>
   </g>
   <g id="patch_12">
    <path d="M 318.40705 135.033586 
L 326.666198 135.033586 
L 326.666198 133.030955 
L 318.40705 133.030955 
z
" clip-path="url(#p7f1d7a0c5b)" style="fill: #0000ff; stroke: #ffffff; stroke-linejoin: miter"/>
   </g>
   <g id="patch_13">
    <path d="M 334.925346 135.033586 
L 343.184493 135.033586 
L 343.184493 129.544895 
L 334.925346 129.544895 
z
" clip-path="url(#p7f1d7a0c5b)" style="fill: #0000ff; stroke: #ffffff; stroke-linejoin: miter"/>
   </g>
   <g id="patch_14">
    <path d="M 351.443641 135.033586 
L 359.702789 135.033586 
L 359.702789 122.795288 
L 351.443641 122.795288 
z
" clip-path="url(#p7f1d7a0c5b)" style="fill: #0000ff; stroke: #ffffff; stroke-linejoin: miter"/>
   </g>
   <g id="patch_15">
    <path d="M 367.961937 135.033586 
L 376.221085 135.033586 
L 376.221085 111.00202 
L 367.961937 111.00202 
z
" clip-path="url(#p7f1d7a0c5b)" style="fill: #0000ff; stroke: #ffffff; stroke-linejoin: miter"/>
   </g>
   <g id="patch_16">
    <path d="M 384.480232 135.033586 
L 392.73938 135.033586 
L 392.73938 89.418114 
L 384.480232 89.418114 
z
" clip-path="url(#p7f1d7a0c5b)" style="fill: #0000ff; stroke: #ffffff; stroke-linejoin: miter"/>
   </g>
   <g id="patch_17">
    <path d="M 400.998528 135.033586 
L 409.257676 135.033586 
L 409.257676 74.287128 
L 400.998528 74.287128 
z
" clip-path="url(#p7f1d7a0c5b)" style="fill: #0000ff; stroke: #ffffff; stroke-linejoin: miter"/>
   </g>
   <g id="patch_18">
    <path d="M 417.516824 135.033586 
L 425.775972 135.033586 
L 425.775972 50.626419 
L 417.516824 50.626419 
z
" clip-path="url(#p7f1d7a0c5b)" style="fill: #0000ff; stroke: #ffffff; stroke-linejoin: miter"/>
   </g>
   <g id="patch_19">
    <path d="M 434.035119 135.033586 
L 442.294267 135.033586 
L 442.294267 44.321842 
L 434.035119 44.321842 
z
" clip-path="url(#p7f1d7a0c5b)" style="fill: #0000ff; stroke: #ffffff; stroke-linejoin: miter"/>
   </g>
   <g id="patch_20">
    <path d="M 450.553415 135.033586 
L 458.812563 135.033586 
L 458.812563 49.66219 
L 450.553415 49.66219 
z
" clip-path="url(#p7f1d7a0c5b)" style="fill: #0000ff; stroke: #ffffff; stroke-linejoin: miter"/>
   </g>
   <g id="patch_21">
    <path d="M 467.071711 135.033586 
L 475.330858 135.033586 
L 475.330858 65.905748 
L 467.071711 65.905748 
z
" clip-path="url(#p7f1d7a0c5b)" style="fill: #0000ff; stroke: #ffffff; stroke-linejoin: miter"/>
   </g>
   <g id="patch_22">
    <path d="M 483.590006 135.033586 
L 491.849154 135.033586 
L 491.849154 83.78108 
L 483.590006 83.78108 
z
" clip-path="url(#p7f1d7a0c5b)" style="fill: #0000ff; stroke: #ffffff; stroke-linejoin: miter"/>
   </g>
   <g id="patch_23">
    <path d="M 500.108302 135.033586 
L 508.36745 135.033586 
L 508.36745 106.477559 
L 500.108302 106.477559 
z
" clip-path="url(#p7f1d7a0c5b)" style="fill: #0000ff; stroke: #ffffff; stroke-linejoin: miter"/>
   </g>
   <g id="patch_24">
    <path d="M 516.626598 135.033586 
L 524.885745 135.033586 
L 524.885745 119.828428 
L 516.626598 119.828428 
z
" clip-path="url(#p7f1d7a0c5b)" style="fill: #0000ff; stroke: #ffffff; stroke-linejoin: miter"/>
   </g>
   <g id="patch_25">
    <path d="M 533.144893 135.033586 
L 541.404041 135.033586 
L 541.404041 128.506494 
L 533.144893 128.506494 
z
" clip-path="url(#p7f1d7a0c5b)" style="fill: #0000ff; stroke: #ffffff; stroke-linejoin: miter"/>
   </g>
   <g id="patch_26">
    <path d="M 549.663189 135.033586 
L 557.922337 135.033586 
L 557.922337 132.363412 
L 549.663189 132.363412 
z
" clip-path="url(#p7f1d7a0c5b)" style="fill: #0000ff; stroke: #ffffff; stroke-linejoin: miter"/>
   </g>
   <g id="patch_27">
    <path d="M 566.181484 135.033586 
L 574.440632 135.033586 
L 574.440632 134.143528 
L 566.181484 134.143528 
z
" clip-path="url(#p7f1d7a0c5b)" style="fill: #0000ff; stroke: #ffffff; stroke-linejoin: miter"/>
   </g>
   <g id="patch_28">
    <path d="M 582.69978 135.033586 
L 590.958928 135.033586 
L 590.958928 134.662728 
L 582.69978 134.662728 
z
" clip-path="url(#p7f1d7a0c5b)" style="fill: #0000ff; stroke: #ffffff; stroke-linejoin: miter"/>
   </g>
   <g id="patch_29">
    <path d="M 277.111311 135.033586 
L 285.370459 135.033586 
L 285.370459 135.033586 
L 277.111311 135.033586 
z
" clip-path="url(#p7f1d7a0c5b)" style="fill: #ffa500; stroke: #ffffff; stroke-linejoin: miter"/>
   </g>
   <g id="patch_30">
    <path d="M 293.629606 135.033586 
L 301.888754 135.033586 
L 301.888754 135.033586 
L 293.629606 135.033586 
z
" clip-path="url(#p7f1d7a0c5b)" style="fill: #ffa500; stroke: #ffffff; stroke-linejoin: miter"/>
   </g>
   <g id="patch_31">
    <path d="M 310.147902 135.033586 
L 318.40705 135.033586 
L 318.40705 135.033586 
L 310.147902 135.033586 
z
" clip-path="url(#p7f1d7a0c5b)" style="fill: #ffa500; stroke: #ffffff; stroke-linejoin: miter"/>
   </g>
   <g id="patch_32">
    <path d="M 326.666198 135.033586 
L 334.925346 135.033586 
L 334.925346 134.143528 
L 326.666198 134.143528 
z
" clip-path="url(#p7f1d7a0c5b)" style="fill: #ffa500; stroke: #ffffff; stroke-linejoin: miter"/>
   </g>
   <g id="patch_33">
    <path d="M 343.184493 135.033586 
L 351.443641 135.033586 
L 351.443641 132.437583 
L 343.184493 132.437583 
z
" clip-path="url(#p7f1d7a0c5b)" style="fill: #ffa500; stroke: #ffffff; stroke-linejoin: miter"/>
   </g>
   <g id="patch_34">
    <path d="M 359.702789 135.033586 
L 367.961937 135.033586 
L 367.961937 127.245578 
L 359.702789 127.245578 
z
" clip-path="url(#p7f1d7a0c5b)" style="fill: #ffa500; stroke: #ffffff; stroke-linejoin: miter"/>
   </g>
   <g id="patch_35">
    <path d="M 376.221085 135.033586 
L 384.480232 135.033586 
L 384.480232 116.490711 
L 376.221085 116.490711 
z
" clip-path="url(#p7f1d7a0c5b)" style="fill: #ffa500; stroke: #ffffff; stroke-linejoin: miter"/>
   </g>
   <g id="patch_36">
    <path d="M 392.73938 135.033586 
L 400.998528 135.033586 
L 400.998528 97.65115 
L 392.73938 97.65115 
z
" clip-path="url(#p7f1d7a0c5b)" style="fill: #ffa500; stroke: #ffffff; stroke-linejoin: miter"/>
   </g>
   <g id="patch_37">
    <path d="M 409.257676 135.033586 
L 417.516824 135.033586 
L 417.516824 70.356038 
L 409.257676 70.356038 
z
" clip-path="url(#p7f1d7a0c5b)" style="fill: #ffa500; stroke: #ffffff; stroke-linejoin: miter"/>
   </g>
   <g id="patch_38">
    <path d="M 425.775972 135.033586 
L 434.035119 135.033586 
L 434.035119 42.76424 
L 425.775972 42.76424 
z
" clip-path="url(#p7f1d7a0c5b)" style="fill: #ffa500; stroke: #ffffff; stroke-linejoin: miter"/>
   </g>
   <g id="patch_39">
    <path d="M 442.294267 135.033586 
L 450.553415 135.033586 
L 450.553415 30.3776 
L 442.294267 30.3776 
z
" clip-path="url(#p7f1d7a0c5b)" style="fill: #ffa500; stroke: #ffffff; stroke-linejoin: miter"/>
   </g>
   <g id="patch_40">
    <path d="M 458.812563 135.033586 
L 467.071711 135.033586 
L 467.071711 30.3776 
L 458.812563 30.3776 
z
" clip-path="url(#p7f1d7a0c5b)" style="fill: #ffa500; stroke: #ffffff; stroke-linejoin: miter"/>
   </g>
   <g id="patch_41">
    <path d="M 475.330858 135.033586 
L 483.590006 135.033586 
L 483.590006 63.087231 
L 475.330858 63.087231 
z
" clip-path="url(#p7f1d7a0c5b)" style="fill: #ffa500; stroke: #ffffff; stroke-linejoin: miter"/>
   </g>
   <g id="patch_42">
    <path d="M 491.849154 135.033586 
L 500.108302 135.033586 
L 500.108302 92.236631 
L 491.849154 92.236631 
z
" clip-path="url(#p7f1d7a0c5b)" style="fill: #ffa500; stroke: #ffffff; stroke-linejoin: miter"/>
   </g>
   <g id="patch_43">
    <path d="M 508.36745 135.033586 
L 516.626598 135.033586 
L 516.626598 112.337107 
L 508.36745 112.337107 
z
" clip-path="url(#p7f1d7a0c5b)" style="fill: #ffa500; stroke: #ffffff; stroke-linejoin: miter"/>
   </g>
   <g id="patch_44">
    <path d="M 524.885745 135.033586 
L 533.144893 135.033586 
L 533.144893 125.317119 
L 524.885745 125.317119 
z
" clip-path="url(#p7f1d7a0c5b)" style="fill: #ffa500; stroke: #ffffff; stroke-linejoin: miter"/>
   </g>
   <g id="patch_45">
    <path d="M 541.404041 135.033586 
L 549.663189 135.033586 
L 549.663189 130.80581 
L 541.404041 130.80581 
z
" clip-path="url(#p7f1d7a0c5b)" style="fill: #ffa500; stroke: #ffffff; stroke-linejoin: miter"/>
   </g>
   <g id="patch_46">
    <path d="M 557.922337 135.033586 
L 566.181484 135.033586 
L 566.181484 133.846842 
L 557.922337 133.846842 
z
" clip-path="url(#p7f1d7a0c5b)" style="fill: #ffa500; stroke: #ffffff; stroke-linejoin: miter"/>
   </g>
   <g id="patch_47">
    <path d="M 574.440632 135.033586 
L 582.69978 135.033586 
L 582.69978 134.959414 
L 574.440632 134.959414 
z
" clip-path="url(#p7f1d7a0c5b)" style="fill: #ffa500; stroke: #ffffff; stroke-linejoin: miter"/>
   </g>
   <g id="patch_48">
    <path d="M 590.958928 135.033586 
L 599.218076 135.033586 
L 599.218076 135.033586 
L 590.958928 135.033586 
z
" clip-path="url(#p7f1d7a0c5b)" style="fill: #ffa500; stroke: #ffffff; stroke-linejoin: miter"/>
   </g>
   <g id="matplotlib.axis_3">
    <g id="xtick_9">
     <g id="line2d_18">
      <g>
       <use xlink:href="#mfc5b583ca8" x="331.052418" y="135.033586" style="stroke: #000000; stroke-width: 0.8"/>
      </g>
     </g>
     <g id="text_19">
      <!-- −0.005 -->
      <g transform="translate(312.548512 149.632023) scale(0.1 -0.1)">
       <defs>
        <path id="DejaVuSans-2212" d="M 678 2272 
L 4684 2272 
L 4684 1741 
L 678 1741 
L 678 2272 
z
" transform="scale(0.015625)"/>
       </defs>
       <use xlink:href="#DejaVuSans-2212"/>
       <use xlink:href="#DejaVuSans-30" x="83.789062"/>
       <use xlink:href="#DejaVuSans-2e" x="147.412109"/>
       <use xlink:href="#DejaVuSans-30" x="179.199219"/>
       <use xlink:href="#DejaVuSans-30" x="242.822266"/>
       <use xlink:href="#DejaVuSans-35" x="306.445312"/>
      </g>
     </g>
    </g>
    <g id="xtick_10">
     <g id="line2d_19">
      <g>
       <use xlink:href="#mfc5b583ca8" x="444.5821" y="135.033586" style="stroke: #000000; stroke-width: 0.8"/>
      </g>
     </g>
     <g id="text_20">
      <!-- 0.000 -->
      <g transform="translate(430.268038 149.632023) scale(0.1 -0.1)">
       <use xlink:href="#DejaVuSans-30"/>
       <use xlink:href="#DejaVuSans-2e" x="63.623047"/>
       <use xlink:href="#DejaVuSans-30" x="95.410156"/>
       <use xlink:href="#DejaVuSans-30" x="159.033203"/>
       <use xlink:href="#DejaVuSans-30" x="222.65625"/>
      </g>
     </g>
    </g>
    <g id="xtick_11">
     <g id="line2d_20">
      <g>
       <use xlink:href="#mfc5b583ca8" x="558.111782" y="135.033586" style="stroke: #000000; stroke-width: 0.8"/>
      </g>
     </g>
     <g id="text_21">
      <!-- 0.005 -->
      <g transform="translate(543.79772 149.632023) scale(0.1 -0.1)">
       <use xlink:href="#DejaVuSans-30"/>
       <use xlink:href="#DejaVuSans-2e" x="63.623047"/>
       <use xlink:href="#DejaVuSans-30" x="95.410156"/>
       <use xlink:href="#DejaVuSans-30" x="159.033203"/>
       <use xlink:href="#DejaVuSans-35" x="222.65625"/>
      </g>
     </g>
    </g>
    <g id="text_22">
     <!-- velocity ($\mathrm{\AA \cdot fs^{-1}}$) -->
     <g transform="translate(390.4021 166.871711) scale(0.12 -0.12)">
      <defs>
       <path id="DejaVuSans-Bold-76" d="M 97 3500 
L 1216 3500 
L 2088 1081 
L 2956 3500 
L 4078 3500 
L 2700 0 
L 1472 0 
L 97 3500 
z
" transform="scale(0.015625)"/>
       <path id="DejaVuSans-Bold-65" d="M 4031 1759 
L 4031 1441 
L 1416 1441 
Q 1456 1047 1700 850 
Q 1944 653 2381 653 
Q 2734 653 3104 758 
Q 3475 863 3866 1075 
L 3866 213 
Q 3469 63 3072 -14 
Q 2675 -91 2278 -91 
Q 1328 -91 801 392 
Q 275 875 275 1747 
Q 275 2603 792 3093 
Q 1309 3584 2216 3584 
Q 3041 3584 3536 3087 
Q 4031 2591 4031 1759 
z
M 2881 2131 
Q 2881 2450 2695 2645 
Q 2509 2841 2209 2841 
Q 1884 2841 1681 2658 
Q 1478 2475 1428 2131 
L 2881 2131 
z
" transform="scale(0.015625)"/>
       <path id="DejaVuSans-Bold-79" d="M 78 3500 
L 1197 3500 
L 2138 1125 
L 2938 3500 
L 4056 3500 
L 2584 -331 
Q 2363 -916 2067 -1148 
Q 1772 -1381 1288 -1381 
L 641 -1381 
L 641 -647 
L 991 -647 
Q 1275 -647 1404 -556 
Q 1534 -466 1606 -231 
L 1638 -134 
L 78 3500 
z
" transform="scale(0.015625)"/>
       <path id="DejaVuSans-22c5" d="M 684 2619 
L 1344 2619 
L 1344 1825 
L 684 1825 
L 684 2619 
z
" transform="scale(0.015625)"/>
       <path id="DejaVuSans-66" d="M 2375 4863 
L 2375 4384 
L 1825 4384 
Q 1516 4384 1395 4259 
Q 1275 4134 1275 3809 
L 1275 3500 
L 2222 3500 
L 2222 3053 
L 1275 3053 
L 1275 0 
L 697 0 
L 697 3053 
L 147 3053 
L 147 3500 
L 697 3500 
L 697 3744 
Q 697 4328 969 4595 
Q 1241 4863 1831 4863 
L 2375 4863 
z
" transform="scale(0.015625)"/>
       <path id="DejaVuSans-73" d="M 2834 3397 
L 2834 2853 
Q 2591 2978 2328 3040 
Q 2066 3103 1784 3103 
Q 1356 3103 1142 2972 
Q 928 2841 928 2578 
Q 928 2378 1081 2264 
Q 1234 2150 1697 2047 
L 1894 2003 
Q 2506 1872 2764 1633 
Q 3022 1394 3022 966 
Q 3022 478 2636 193 
Q 2250 -91 1575 -91 
Q 1294 -91 989 -36 
Q 684 19 347 128 
L 347 722 
Q 666 556 975 473 
Q 1284 391 1588 391 
Q 1994 391 2212 530 
Q 2431 669 2431 922 
Q 2431 1156 2273 1281 
Q 2116 1406 1581 1522 
L 1381 1569 
Q 847 1681 609 1914 
Q 372 2147 372 2553 
Q 372 3047 722 3315 
Q 1072 3584 1716 3584 
Q 2034 3584 2315 3537 
Q 2597 3491 2834 3397 
z
" transform="scale(0.015625)"/>
      </defs>
      <use xlink:href="#DejaVuSans-Bold-76" transform="translate(0 0.171875)"/>
      <use xlink:href="#DejaVuSans-Bold-65" transform="translate(65.185547 0.171875)"/>
      <use xlink:href="#DejaVuSans-Bold-6c" transform="translate(133.007812 0.171875)"/>
      <use xlink:href="#DejaVuSans-Bold-6f" transform="translate(167.285156 0.171875)"/>
      <use xlink:href="#DejaVuSans-Bold-63" transform="translate(235.986328 0.171875)"/>
      <use xlink:href="#DejaVuSans-Bold-69" transform="translate(295.263672 0.171875)"/>
      <use xlink:href="#DejaVuSans-Bold-74" transform="translate(329.541016 0.171875)"/>
      <use xlink:href="#DejaVuSans-Bold-79" transform="translate(377.34375 0.171875)"/>
      <use xlink:href="#DejaVuSans-Bold-20" transform="translate(442.529297 0.171875)"/>
      <use xlink:href="#DejaVuSans-Bold-28" transform="translate(477.34375 0.171875)"/>
      <use xlink:href="#DejaVuSans-c5" transform="translate(523.046875 0.171875)"/>
      <use xlink:href="#DejaVuSans-22c5" transform="translate(610.9375 0.171875)"/>
      <use xlink:href="#DejaVuSans-66" transform="translate(662.207031 0.171875)"/>
      <use xlink:href="#DejaVuSans-73" transform="translate(697.412109 0.171875)"/>
      <use xlink:href="#DejaVuSans-2212" transform="translate(750.46875 38.453125) scale(0.7)"/>
      <use xlink:href="#DejaVuSans-31" transform="translate(809.121094 38.453125) scale(0.7)"/>
      <use xlink:href="#DejaVuSans-Bold-29" transform="translate(856.391602 0.171875)"/>
     </g>
    </g>
   </g>
   <g id="matplotlib.axis_4">
    <g id="ytick_6">
     <g id="line2d_21">
      <g>
       <use xlink:href="#m118e094673" x="315.158263" y="135.033586" style="stroke: #000000; stroke-width: 0.8"/>
      </g>
     </g>
     <g id="text_23">
      <!-- 0 -->
      <g transform="translate(302.432013 138.452883) scale(0.09 -0.09)">
       <use xlink:href="#DejaVuSans-30"/>
      </g>
     </g>
    </g>
    <g id="ytick_7">
     <g id="line2d_22">
      <g>
       <use xlink:href="#m118e094673" x="315.158263" y="113.714435" style="stroke: #000000; stroke-width: 0.8"/>
      </g>
     </g>
     <g id="text_24">
      <!-- 50 -->
      <g transform="translate(296.705763 117.133732) scale(0.09 -0.09)">
       <use xlink:href="#DejaVuSans-35"/>
       <use xlink:href="#DejaVuSans-30" x="63.623047"/>
      </g>
     </g>
    </g>
    <g id="ytick_8">
     <g id="line2d_23">
      <g>
       <use xlink:href="#m118e094673" x="315.158263" y="92.395284" style="stroke: #000000; stroke-width: 0.8"/>
      </g>
     </g>
     <g id="text_25">
      <!-- 100 -->
      <g transform="translate(290.979513 95.814581) scale(0.09 -0.09)">
       <use xlink:href="#DejaVuSans-31"/>
       <use xlink:href="#DejaVuSans-30" x="63.623047"/>
       <use xlink:href="#DejaVuSans-30" x="127.246094"/>
      </g>
     </g>
    </g>
    <g id="ytick_9">
     <g id="line2d_24">
      <g>
       <use xlink:href="#m118e094673" x="315.158263" y="71.076133" style="stroke: #000000; stroke-width: 0.8"/>
      </g>
     </g>
     <g id="text_26">
      <!-- 150 -->
      <g transform="translate(290.979513 74.495429) scale(0.09 -0.09)">
       <use xlink:href="#DejaVuSans-31"/>
       <use xlink:href="#DejaVuSans-35" x="63.623047"/>
       <use xlink:href="#DejaVuSans-30" x="127.246094"/>
      </g>
     </g>
    </g>
    <g id="ytick_10">
     <g id="line2d_25">
      <g>
       <use xlink:href="#m118e094673" x="315.158263" y="49.756981" style="stroke: #000000; stroke-width: 0.8"/>
      </g>
     </g>
     <g id="text_27">
      <!-- 200 -->
      <g transform="translate(290.979513 53.176278) scale(0.09 -0.09)">
       <use xlink:href="#DejaVuSans-32"/>
       <use xlink:href="#DejaVuSans-30" x="63.623047"/>
       <use xlink:href="#DejaVuSans-30" x="127.246094"/>
      </g>
     </g>
    </g>
    <g id="ytick_11">
     <g id="line2d_26">
      <g>
       <use xlink:href="#m118e094673" x="315.158263" y="28.43783" style="stroke: #000000; stroke-width: 0.8"/>
      </g>
     </g>
     <g id="text_28">
      <!-- 250 -->
      <g transform="translate(290.979513 31.857127) scale(0.09 -0.09)">
       <use xlink:href="#DejaVuSans-32"/>
       <use xlink:href="#DejaVuSans-35" x="63.623047"/>
       <use xlink:href="#DejaVuSans-30" x="127.246094"/>
      </g>
     </g>
    </g>
   </g>
   <g id="patch_49">
    <path d="M 315.158263 135.033586 
L 315.158263 24.174 
" style="fill: none; stroke: #000000; stroke-width: 0.8; stroke-linejoin: miter; stroke-linecap: square"/>
   </g>
   <g id="patch_50">
    <path d="M 574.005938 135.033586 
L 574.005938 24.174 
" style="fill: none; stroke: #000000; stroke-width: 0.8; stroke-linejoin: miter; stroke-linecap: square"/>
   </g>
   <g id="patch_51">
    <path d="M 315.158263 135.033586 
L 574.005938 135.033586 
" style="fill: none; stroke: #000000; stroke-width: 0.8; stroke-linejoin: miter; stroke-linecap: square"/>
   </g>
   <g id="patch_52">
    <path d="M 315.158263 24.174 
L 574.005938 24.174 
" style="fill: none; stroke: #000000; stroke-width: 0.8; stroke-linejoin: miter; stroke-linecap: square"/>
   </g>
   <g id="text_29">
    <!-- h -->
    <g transform="translate(302.215879 22.206166) scale(0.12 -0.12)">
     <defs>
      <path id="DejaVuSans-Bold-68" d="M 4056 2131 
L 4056 0 
L 2931 0 
L 2931 347 
L 2931 1625 
Q 2931 2084 2911 2256 
Q 2891 2428 2841 2509 
Q 2775 2619 2662 2680 
Q 2550 2741 2406 2741 
Q 2056 2741 1856 2470 
Q 1656 2200 1656 1722 
L 1656 0 
L 538 0 
L 538 4863 
L 1656 4863 
L 1656 2988 
Q 1909 3294 2193 3439 
Q 2478 3584 2822 3584 
Q 3428 3584 3742 3212 
Q 4056 2841 4056 2131 
z
" transform="scale(0.015625)"/>
     </defs>
     <use xlink:href="#DejaVuSans-Bold-68"/>
    </g>
   </g>
   <g id="text_30">
    <!-- Velocity distribution -->
    <g transform="translate(370.120538 11.081468) scale(0.13 -0.13)">
     <defs>
      <path id="DejaVuSans-Bold-56" d="M 31 4666 
L 1241 4666 
L 2478 1222 
L 3713 4666 
L 4922 4666 
L 3194 0 
L 1759 0 
L 31 4666 
z
" transform="scale(0.015625)"/>
     </defs>
     <use xlink:href="#DejaVuSans-Bold-56"/>
     <use xlink:href="#DejaVuSans-Bold-65" x="71.892578"/>
     <use xlink:href="#DejaVuSans-Bold-6c" x="139.714844"/>
     <use xlink:href="#DejaVuSans-Bold-6f" x="173.992188"/>
     <use xlink:href="#DejaVuSans-Bold-63" x="242.693359"/>
     <use xlink:href="#DejaVuSans-Bold-69" x="301.970703"/>
     <use xlink:href="#DejaVuSans-Bold-74" x="336.248047"/>
     <use xlink:href="#DejaVuSans-Bold-79" x="384.050781"/>
     <use xlink:href="#DejaVuSans-Bold-20" x="449.236328"/>
     <use xlink:href="#DejaVuSans-Bold-64" x="484.050781"/>
     <use xlink:href="#DejaVuSans-Bold-69" x="555.632812"/>
     <use xlink:href="#DejaVuSans-Bold-73" x="589.910156"/>
     <use xlink:href="#DejaVuSans-Bold-74" x="649.431641"/>
     <use xlink:href="#DejaVuSans-Bold-72" x="697.234375"/>
     <use xlink:href="#DejaVuSans-Bold-69" x="746.550781"/>
     <use xlink:href="#DejaVuSans-Bold-62" x="780.828125"/>
     <use xlink:href="#DejaVuSans-Bold-75" x="852.410156"/>
     <use xlink:href="#DejaVuSans-Bold-74" x="923.601562"/>
     <use xlink:href="#DejaVuSans-Bold-69" x="971.404297"/>
     <use xlink:href="#DejaVuSans-Bold-6f" x="1005.681641"/>
     <use xlink:href="#DejaVuSans-Bold-6e" x="1074.382812"/>
    </g>
   </g>
   <g id="legend_2">
    <g id="patch_53">
     <path d="M 320.758263 54.059 
L 364.859513 54.059 
Q 366.459513 54.059 366.459513 52.459 
L 366.459513 29.774 
Q 366.459513 28.174 364.859513 28.174 
L 320.758263 28.174 
Q 319.158263 28.174 319.158263 29.774 
L 319.158263 52.459 
Q 319.158263 54.059 320.758263 54.059 
z
" style="fill: #ffffff; opacity: 0.8; stroke: #cccccc; stroke-linejoin: miter"/>
    </g>
    <g id="patch_54">
     <path d="M 322.358263 37.45275 
L 338.358263 37.45275 
L 338.358263 31.85275 
L 322.358263 31.85275 
z
" style="fill: #0000ff; stroke: #ffffff; stroke-linejoin: miter"/>
    </g>
    <g id="text_31">
     <!-- BM -->
     <g transform="translate(344.758263 37.45275) scale(0.08 -0.08)">
      <use xlink:href="#DejaVuSans-42"/>
      <use xlink:href="#DejaVuSans-4d" x="68.603516"/>
     </g>
    </g>
    <g id="patch_55">
     <path d="M 322.358263 49.19525 
L 338.358263 49.19525 
L 338.358263 43.59525 
L 322.358263 43.59525 
z
" style="fill: #ffa500; stroke: #ffffff; stroke-linejoin: miter"/>
    </g>
    <g id="text_32">
     <!-- EdSr -->
     <g transform="translate(344.758263 49.19525) scale(0.08 -0.08)">
      <use xlink:href="#DejaVuSans-45"/>
      <use xlink:href="#DejaVuSans-64" x="63.183594"/>
      <use xlink:href="#DejaVuSans-53" x="126.660156"/>
      <use xlink:href="#DejaVuSans-72" x="190.136719"/>
     </g>
    </g>
   </g>
  </g>
 </g>
 <defs>
  <clipPath id="p3498bf541f">
   <rect x="29.908125" y="24.174" width="258.847675" height="110.859586"/>
  </clipPath>
  <clipPath id="p7f1d7a0c5b">
   <rect x="315.158263" y="24.174" width="258.847675" height="110.859586"/>
  </clipPath>
 </defs>
</svg>
