<?xml version="1.0" encoding="utf-8" standalone="no"?>
<!DOCTYPE svg PUBLIC "-//W3C//DTD SVG 1.1//EN"
  "http://www.w3.org/Graphics/SVG/1.1/DTD/svg11.dtd">
<svg xmlns:xlink="http://www.w3.org/1999/xlink" width="576.28125pt" height="307.125pt" viewBox="0 0 576.28125 307.125" xmlns="http://www.w3.org/2000/svg" version="1.1">
 <metadata>
  <rdf:RDF xmlns:dc="http://purl.org/dc/elements/1.1/" xmlns:cc="http://creativecommons.org/ns#" xmlns:rdf="http://www.w3.org/1999/02/22-rdf-syntax-ns#">
   <cc:Work>
    <dc:type rdf:resource="http://purl.org/dc/dcmitype/StillImage"/>
    <dc:date>2024-12-03T17:05:53.464678</dc:date>
    <dc:format>image/svg+xml</dc:format>
    <dc:creator>
     <cc:Agent>
      <dc:title>Matplotlib v3.7.2, https://matplotlib.org/</dc:title>
     </cc:Agent>
    </dc:creator>
   </cc:Work>
  </rdf:RDF>
 </metadata>
 <defs>
  <style type="text/css">*{stroke-linejoin: round; stroke-linecap: butt}</style>
 </defs>
 <g id="figure_1">
  <g id="patch_1">
   <path d="M 0 307.125 
L 576.28125 307.125 
L 576.28125 0 
L 0 0 
z
" style="fill: #ffffff"/>
  </g>
  <g id="axes_1">
   <g id="patch_2">
    <path d="M 84.713344 135.530033 
L 500.212125 135.530033 
L 500.212125 24.262875 
L 84.713344 24.262875 
z
" style="fill: #ffffff"/>
   </g>
   <g id="patch_3">
    <path d="M 54.179919 135.530033 
L 63.212761 135.530033 
L 63.212761 135.530033 
L 54.179919 135.530033 
z
" clip-path="url(#p5f9b82a9f3)" style="fill: #0000ff; stroke: #ffffff; stroke-linejoin: miter"/>
   </g>
   <g id="patch_4">
    <path d="M 72.245602 135.530033 
L 81.278444 135.530033 
L 81.278444 135.530033 
L 72.245602 135.530033 
z
" clip-path="url(#p5f9b82a9f3)" style="fill: #0000ff; stroke: #ffffff; stroke-linejoin: miter"/>
   </g>
   <g id="patch_5">
    <path d="M 90.311285 135.530033 
L 99.344126 135.530033 
L 99.344126 131.756037 
L 90.311285 131.756037 
z
" clip-path="url(#p5f9b82a9f3)" style="fill: #0000ff; stroke: #ffffff; stroke-linejoin: miter"/>
   </g>
   <g id="patch_6">
    <path d="M 108.376968 135.530033 
L 117.409809 135.530033 
L 117.409809 131.756037 
L 108.376968 131.756037 
z
" clip-path="url(#p5f9b82a9f3)" style="fill: #0000ff; stroke: #ffffff; stroke-linejoin: miter"/>
   </g>
   <g id="patch_7">
    <path d="M 126.442651 135.530033 
L 135.475492 135.530033 
L 135.475492 125.466044 
L 126.442651 125.466044 
z
" clip-path="url(#p5f9b82a9f3)" style="fill: #0000ff; stroke: #ffffff; stroke-linejoin: miter"/>
   </g>
   <g id="patch_8">
    <path d="M 144.508333 135.530033 
L 153.541175 135.530033 
L 153.541175 121.692048 
L 144.508333 121.692048 
z
" clip-path="url(#p5f9b82a9f3)" style="fill: #0000ff; stroke: #ffffff; stroke-linejoin: miter"/>
   </g>
   <g id="patch_9">
    <path d="M 162.574016 135.530033 
L 171.606857 135.530033 
L 171.606857 100.30607 
L 162.574016 100.30607 
z
" clip-path="url(#p5f9b82a9f3)" style="fill: #0000ff; stroke: #ffffff; stroke-linejoin: miter"/>
   </g>
   <g id="patch_10">
    <path d="M 180.639699 135.530033 
L 189.67254 135.530033 
L 189.67254 86.468085 
L 180.639699 86.468085 
z
" clip-path="url(#p5f9b82a9f3)" style="fill: #0000ff; stroke: #ffffff; stroke-linejoin: miter"/>
   </g>
   <g id="patch_11">
    <path d="M 198.705382 135.530033 
L 207.738223 135.530033 
L 207.738223 63.824109 
L 198.705382 63.824109 
z
" clip-path="url(#p5f9b82a9f3)" style="fill: #0000ff; stroke: #ffffff; stroke-linejoin: miter"/>
   </g>
   <g id="patch_12">
    <path d="M 216.771064 135.530033 
L 225.803906 135.530033 
L 225.803906 29.858145 
L 216.771064 29.858145 
z
" clip-path="url(#p5f9b82a9f3)" style="fill: #0000ff; stroke: #ffffff; stroke-linejoin: miter"/>
   </g>
   <g id="patch_13">
    <path d="M 234.836747 135.530033 
L 243.869589 135.530033 
L 243.869589 48.728125 
L 234.836747 48.728125 
z
" clip-path="url(#p5f9b82a9f3)" style="fill: #0000ff; stroke: #ffffff; stroke-linejoin: miter"/>
   </g>
   <g id="patch_14">
    <path d="M 252.90243 135.530033 
L 261.935271 135.530033 
L 261.935271 56.276117 
L 252.90243 56.276117 
z
" clip-path="url(#p5f9b82a9f3)" style="fill: #0000ff; stroke: #ffffff; stroke-linejoin: miter"/>
   </g>
   <g id="patch_15">
    <path d="M 270.968113 135.530033 
L 280.000954 135.530033 
L 280.000954 81.43609 
L 270.968113 81.43609 
z
" clip-path="url(#p5f9b82a9f3)" style="fill: #0000ff; stroke: #ffffff; stroke-linejoin: miter"/>
   </g>
   <g id="patch_16">
    <path d="M 289.033796 135.530033 
L 298.066637 135.530033 
L 298.066637 92.758078 
L 289.033796 92.758078 
z
" clip-path="url(#p5f9b82a9f3)" style="fill: #0000ff; stroke: #ffffff; stroke-linejoin: miter"/>
   </g>
   <g id="patch_17">
    <path d="M 307.099478 135.530033 
L 316.13232 135.530033 
L 316.13232 105.338065 
L 307.099478 105.338065 
z
" clip-path="url(#p5f9b82a9f3)" style="fill: #0000ff; stroke: #ffffff; stroke-linejoin: miter"/>
   </g>
   <g id="patch_18">
    <path d="M 325.165161 135.530033 
L 334.198003 135.530033 
L 334.198003 121.692048 
L 325.165161 121.692048 
z
" clip-path="url(#p5f9b82a9f3)" style="fill: #0000ff; stroke: #ffffff; stroke-linejoin: miter"/>
   </g>
   <g id="patch_19">
    <path d="M 343.230844 135.530033 
L 352.263685 135.530033 
L 352.263685 124.208045 
L 343.230844 124.208045 
z
" clip-path="url(#p5f9b82a9f3)" style="fill: #0000ff; stroke: #ffffff; stroke-linejoin: miter"/>
   </g>
   <g id="patch_20">
    <path d="M 361.296527 135.530033 
L 370.329368 135.530033 
L 370.329368 134.272034 
L 361.296527 134.272034 
z
" clip-path="url(#p5f9b82a9f3)" style="fill: #0000ff; stroke: #ffffff; stroke-linejoin: miter"/>
   </g>
   <g id="patch_21">
    <path d="M 379.362209 135.530033 
L 388.395051 135.530033 
L 388.395051 134.272034 
L 379.362209 134.272034 
z
" clip-path="url(#p5f9b82a9f3)" style="fill: #0000ff; stroke: #ffffff; stroke-linejoin: miter"/>
   </g>
   <g id="patch_22">
    <path d="M 397.427892 135.530033 
L 406.460734 135.530033 
L 406.460734 134.272034 
L 397.427892 134.272034 
z
" clip-path="url(#p5f9b82a9f3)" style="fill: #0000ff; stroke: #ffffff; stroke-linejoin: miter"/>
   </g>
   <g id="patch_23">
    <path d="M 63.212761 135.530033 
L 72.245602 135.530033 
L 72.245602 135.530033 
L 63.212761 135.530033 
z
" clip-path="url(#p5f9b82a9f3)" style="fill: #ffa500; stroke: #ffffff; stroke-linejoin: miter"/>
   </g>
   <g id="patch_24">
    <path d="M 81.278444 135.530033 
L 90.311285 135.530033 
L 90.311285 135.530033 
L 81.278444 135.530033 
z
" clip-path="url(#p5f9b82a9f3)" style="fill: #ffa500; stroke: #ffffff; stroke-linejoin: miter"/>
   </g>
   <g id="patch_25">
    <path d="M 99.344126 135.530033 
L 108.376968 135.530033 
L 108.376968 135.530033 
L 99.344126 135.530033 
z
" clip-path="url(#p5f9b82a9f3)" style="fill: #ffa500; stroke: #ffffff; stroke-linejoin: miter"/>
   </g>
   <g id="patch_26">
    <path d="M 117.409809 135.530033 
L 126.442651 135.530033 
L 126.442651 131.756037 
L 117.409809 131.756037 
z
" clip-path="url(#p5f9b82a9f3)" style="fill: #ffa500; stroke: #ffffff; stroke-linejoin: miter"/>
   </g>
   <g id="patch_27">
    <path d="M 135.475492 135.530033 
L 144.508333 135.530033 
L 144.508333 126.724042 
L 135.475492 126.724042 
z
" clip-path="url(#p5f9b82a9f3)" style="fill: #ffa500; stroke: #ffffff; stroke-linejoin: miter"/>
   </g>
   <g id="patch_28">
    <path d="M 153.541175 135.530033 
L 162.574016 135.530033 
L 162.574016 122.950046 
L 153.541175 122.950046 
z
" clip-path="url(#p5f9b82a9f3)" style="fill: #ffa500; stroke: #ffffff; stroke-linejoin: miter"/>
   </g>
   <g id="patch_29">
    <path d="M 171.606857 135.530033 
L 180.639699 135.530033 
L 180.639699 99.048072 
L 171.606857 99.048072 
z
" clip-path="url(#p5f9b82a9f3)" style="fill: #ffa500; stroke: #ffffff; stroke-linejoin: miter"/>
   </g>
   <g id="patch_30">
    <path d="M 189.67254 135.530033 
L 198.705382 135.530033 
L 198.705382 76.404096 
L 189.67254 76.404096 
z
" clip-path="url(#p5f9b82a9f3)" style="fill: #ffa500; stroke: #ffffff; stroke-linejoin: miter"/>
   </g>
   <g id="patch_31">
    <path d="M 207.738223 135.530033 
L 216.771064 135.530033 
L 216.771064 66.340106 
L 207.738223 66.340106 
z
" clip-path="url(#p5f9b82a9f3)" style="fill: #ffa500; stroke: #ffffff; stroke-linejoin: miter"/>
   </g>
   <g id="patch_32">
    <path d="M 225.803906 135.530033 
L 234.836747 135.530033 
L 234.836747 55.018119 
L 225.803906 55.018119 
z
" clip-path="url(#p5f9b82a9f3)" style="fill: #ffa500; stroke: #ffffff; stroke-linejoin: miter"/>
   </g>
   <g id="patch_33">
    <path d="M 243.869589 135.530033 
L 252.90243 135.530033 
L 252.90243 36.148139 
L 243.869589 36.148139 
z
" clip-path="url(#p5f9b82a9f3)" style="fill: #ffa500; stroke: #ffffff; stroke-linejoin: miter"/>
   </g>
   <g id="patch_34">
    <path d="M 261.935271 135.530033 
L 270.968113 135.530033 
L 270.968113 49.986124 
L 261.935271 49.986124 
z
" clip-path="url(#p5f9b82a9f3)" style="fill: #ffa500; stroke: #ffffff; stroke-linejoin: miter"/>
   </g>
   <g id="patch_35">
    <path d="M 280.000954 135.530033 
L 289.033796 135.530033 
L 289.033796 66.340106 
L 280.000954 66.340106 
z
" clip-path="url(#p5f9b82a9f3)" style="fill: #ffa500; stroke: #ffffff; stroke-linejoin: miter"/>
   </g>
   <g id="patch_36">
    <path d="M 298.066637 135.530033 
L 307.099478 135.530033 
L 307.099478 96.532074 
L 298.066637 96.532074 
z
" clip-path="url(#p5f9b82a9f3)" style="fill: #ffa500; stroke: #ffffff; stroke-linejoin: miter"/>
   </g>
   <g id="patch_37">
    <path d="M 316.13232 135.530033 
L 325.165161 135.530033 
L 325.165161 104.080066 
L 316.13232 104.080066 
z
" clip-path="url(#p5f9b82a9f3)" style="fill: #ffa500; stroke: #ffffff; stroke-linejoin: miter"/>
   </g>
   <g id="patch_38">
    <path d="M 334.198003 135.530033 
L 343.230844 135.530033 
L 343.230844 121.692048 
L 334.198003 121.692048 
z
" clip-path="url(#p5f9b82a9f3)" style="fill: #ffa500; stroke: #ffffff; stroke-linejoin: miter"/>
   </g>
   <g id="patch_39">
    <path d="M 352.263685 135.530033 
L 361.296527 135.530033 
L 361.296527 130.498038 
L 352.263685 130.498038 
z
" clip-path="url(#p5f9b82a9f3)" style="fill: #ffa500; stroke: #ffffff; stroke-linejoin: miter"/>
   </g>
   <g id="patch_40">
    <path d="M 370.329368 135.530033 
L 379.362209 135.530033 
L 379.362209 134.272034 
L 370.329368 134.272034 
z
" clip-path="url(#p5f9b82a9f3)" style="fill: #ffa500; stroke: #ffffff; stroke-linejoin: miter"/>
   </g>
   <g id="patch_41">
    <path d="M 388.395051 135.530033 
L 397.427892 135.530033 
L 397.427892 135.530033 
L 388.395051 135.530033 
z
" clip-path="url(#p5f9b82a9f3)" style="fill: #ffa500; stroke: #ffffff; stroke-linejoin: miter"/>
   </g>
   <g id="patch_42">
    <path d="M 406.460734 135.530033 
L 415.493575 135.530033 
L 415.493575 135.530033 
L 406.460734 135.530033 
z
" clip-path="url(#p5f9b82a9f3)" style="fill: #ffa500; stroke: #ffffff; stroke-linejoin: miter"/>
   </g>
   <g id="matplotlib.axis_1">
    <g id="xtick_1">
     <g id="line2d_1">
      <defs>
       <path id="maa5f6dfd7c" d="M 0 0 
L 0 3.5 
" style="stroke: #000000; stroke-width: 0.8"/>
      </defs>
      <g>
       <use xlink:href="#maa5f6dfd7c" x="110.682018" y="135.530033" style="stroke: #000000; stroke-width: 0.8"/>
      </g>
     </g>
     <g id="text_1">
      <!-- −0.005 -->
      <g transform="translate(92.178111 150.12847) scale(0.1 -0.1)">
       <defs>
        <path id="DejaVuSans-2212" d="M 678 2272 
L 4684 2272 
L 4684 1741 
L 678 1741 
L 678 2272 
z
" transform="scale(0.015625)"/>
        <path id="DejaVuSans-30" d="M 2034 4250 
Q 1547 4250 1301 3770 
Q 1056 3291 1056 2328 
Q 1056 1369 1301 889 
Q 1547 409 2034 409 
Q 2525 409 2770 889 
Q 3016 1369 3016 2328 
Q 3016 3291 2770 3770 
Q 2525 4250 2034 4250 
z
M 2034 4750 
Q 2819 4750 3233 4129 
Q 3647 3509 3647 2328 
Q 3647 1150 3233 529 
Q 2819 -91 2034 -91 
Q 1250 -91 836 529 
Q 422 1150 422 2328 
Q 422 3509 836 4129 
Q 1250 4750 2034 4750 
z
" transform="scale(0.015625)"/>
        <path id="DejaVuSans-2e" d="M 684 794 
L 1344 794 
L 1344 0 
L 684 0 
L 684 794 
z
" transform="scale(0.015625)"/>
        <path id="DejaVuSans-35" d="M 691 4666 
L 3169 4666 
L 3169 4134 
L 1269 4134 
L 1269 2991 
Q 1406 3038 1543 3061 
Q 1681 3084 1819 3084 
Q 2600 3084 3056 2656 
Q 3513 2228 3513 1497 
Q 3513 744 3044 326 
Q 2575 -91 1722 -91 
Q 1428 -91 1123 -41 
Q 819 9 494 109 
L 494 744 
Q 775 591 1075 516 
Q 1375 441 1709 441 
Q 2250 441 2565 725 
Q 2881 1009 2881 1497 
Q 2881 1984 2565 2268 
Q 2250 2553 1709 2553 
Q 1456 2553 1204 2497 
Q 953 2441 691 2322 
L 691 4666 
z
" transform="scale(0.015625)"/>
       </defs>
       <use xlink:href="#DejaVuSans-2212"/>
       <use xlink:href="#DejaVuSans-30" x="83.789062"/>
       <use xlink:href="#DejaVuSans-2e" x="147.412109"/>
       <use xlink:href="#DejaVuSans-30" x="179.199219"/>
       <use xlink:href="#DejaVuSans-30" x="242.822266"/>
       <use xlink:href="#DejaVuSans-35" x="306.445312"/>
      </g>
     </g>
    </g>
    <g id="xtick_2">
     <g id="line2d_2">
      <g>
       <use xlink:href="#maa5f6dfd7c" x="240.525387" y="135.530033" style="stroke: #000000; stroke-width: 0.8"/>
      </g>
     </g>
     <g id="text_2">
      <!-- 0.000 -->
      <g transform="translate(226.211324 150.12847) scale(0.1 -0.1)">
       <use xlink:href="#DejaVuSans-30"/>
       <use xlink:href="#DejaVuSans-2e" x="63.623047"/>
       <use xlink:href="#DejaVuSans-30" x="95.410156"/>
       <use xlink:href="#DejaVuSans-30" x="159.033203"/>
       <use xlink:href="#DejaVuSans-30" x="222.65625"/>
      </g>
     </g>
    </g>
    <g id="xtick_3">
     <g id="line2d_3">
      <g>
       <use xlink:href="#maa5f6dfd7c" x="370.368756" y="135.530033" style="stroke: #000000; stroke-width: 0.8"/>
      </g>
     </g>
     <g id="text_3">
      <!-- 0.005 -->
      <g transform="translate(356.054693 150.12847) scale(0.1 -0.1)">
       <use xlink:href="#DejaVuSans-30"/>
       <use xlink:href="#DejaVuSans-2e" x="63.623047"/>
       <use xlink:href="#DejaVuSans-30" x="95.410156"/>
       <use xlink:href="#DejaVuSans-30" x="159.033203"/>
       <use xlink:href="#DejaVuSans-35" x="222.65625"/>
      </g>
     </g>
    </g>
   </g>
   <g id="matplotlib.axis_2">
    <g id="ytick_1">
     <g id="line2d_4">
      <defs>
       <path id="mceaefbc3c3" d="M 0 0 
L -3.5 0 
" style="stroke: #000000; stroke-width: 0.8"/>
      </defs>
      <g>
       <use xlink:href="#mceaefbc3c3" x="84.713344" y="135.530033" style="stroke: #000000; stroke-width: 0.8"/>
      </g>
     </g>
     <g id="text_4">
      <!-- 0 -->
      <g transform="translate(71.987094 138.94933) scale(0.09 -0.09)">
       <use xlink:href="#DejaVuSans-30"/>
      </g>
     </g>
    </g>
    <g id="ytick_2">
     <g id="line2d_5">
      <g>
       <use xlink:href="#mceaefbc3c3" x="84.713344" y="114.132503" style="stroke: #000000; stroke-width: 0.8"/>
      </g>
     </g>
     <g id="text_5">
      <!-- 50 -->
      <g transform="translate(66.260844 117.551799) scale(0.09 -0.09)">
       <use xlink:href="#DejaVuSans-35"/>
       <use xlink:href="#DejaVuSans-30" x="63.623047"/>
      </g>
     </g>
    </g>
    <g id="ytick_3">
     <g id="line2d_6">
      <g>
       <use xlink:href="#mceaefbc3c3" x="84.713344" y="92.734972" style="stroke: #000000; stroke-width: 0.8"/>
      </g>
     </g>
     <g id="text_6">
      <!-- 100 -->
      <g transform="translate(60.534594 96.154269) scale(0.09 -0.09)">
       <defs>
        <path id="DejaVuSans-31" d="M 794 531 
L 1825 531 
L 1825 4091 
L 703 3866 
L 703 4441 
L 1819 4666 
L 2450 4666 
L 2450 531 
L 3481 531 
L 3481 0 
L 794 0 
L 794 531 
z
" transform="scale(0.015625)"/>
       </defs>
       <use xlink:href="#DejaVuSans-31"/>
       <use xlink:href="#DejaVuSans-30" x="63.623047"/>
       <use xlink:href="#DejaVuSans-30" x="127.246094"/>
      </g>
     </g>
    </g>
    <g id="ytick_4">
     <g id="line2d_7">
      <g>
       <use xlink:href="#mceaefbc3c3" x="84.713344" y="71.337442" style="stroke: #000000; stroke-width: 0.8"/>
      </g>
     </g>
     <g id="text_7">
      <!-- 150 -->
      <g transform="translate(60.534594 74.756739) scale(0.09 -0.09)">
       <use xlink:href="#DejaVuSans-31"/>
       <use xlink:href="#DejaVuSans-35" x="63.623047"/>
       <use xlink:href="#DejaVuSans-30" x="127.246094"/>
      </g>
     </g>
    </g>
    <g id="ytick_5">
     <g id="line2d_8">
      <g>
       <use xlink:href="#mceaefbc3c3" x="84.713344" y="49.939911" style="stroke: #000000; stroke-width: 0.8"/>
      </g>
     </g>
     <g id="text_8">
      <!-- 200 -->
      <g transform="translate(60.534594 53.359208) scale(0.09 -0.09)">
       <defs>
        <path id="DejaVuSans-32" d="M 1228 531 
L 3431 531 
L 3431 0 
L 469 0 
L 469 531 
Q 828 903 1448 1529 
Q 2069 2156 2228 2338 
Q 2531 2678 2651 2914 
Q 2772 3150 2772 3378 
Q 2772 3750 2511 3984 
Q 2250 4219 1831 4219 
Q 1534 4219 1204 4116 
Q 875 4013 500 3803 
L 500 4441 
Q 881 4594 1212 4672 
Q 1544 4750 1819 4750 
Q 2544 4750 2975 4387 
Q 3406 4025 3406 3419 
Q 3406 3131 3298 2873 
Q 3191 2616 2906 2266 
Q 2828 2175 2409 1742 
Q 1991 1309 1228 531 
z
" transform="scale(0.015625)"/>
       </defs>
       <use xlink:href="#DejaVuSans-32"/>
       <use xlink:href="#DejaVuSans-30" x="63.623047"/>
       <use xlink:href="#DejaVuSans-30" x="127.246094"/>
      </g>
     </g>
    </g>
    <g id="ytick_6">
     <g id="line2d_9">
      <g>
       <use xlink:href="#mceaefbc3c3" x="84.713344" y="28.542381" style="stroke: #000000; stroke-width: 0.8"/>
      </g>
     </g>
     <g id="text_9">
      <!-- 250 -->
      <g transform="translate(60.534594 31.961678) scale(0.09 -0.09)">
       <use xlink:href="#DejaVuSans-32"/>
       <use xlink:href="#DejaVuSans-35" x="63.623047"/>
       <use xlink:href="#DejaVuSans-30" x="127.246094"/>
      </g>
     </g>
    </g>
   </g>
   <g id="patch_43">
    <path d="M 84.713344 135.530033 
L 84.713344 24.262875 
" style="fill: none; stroke: #000000; stroke-width: 0.8; stroke-linejoin: miter; stroke-linecap: square"/>
   </g>
   <g id="patch_44">
    <path d="M 500.212125 135.530033 
L 500.212125 24.262875 
" style="fill: none; stroke: #000000; stroke-width: 0.8; stroke-linejoin: miter; stroke-linecap: square"/>
   </g>
   <g id="patch_45">
    <path d="M 84.713344 135.530033 
L 500.212125 135.530033 
" style="fill: none; stroke: #000000; stroke-width: 0.8; stroke-linejoin: miter; stroke-linecap: square"/>
   </g>
   <g id="patch_46">
    <path d="M 84.713344 24.262875 
L 500.212125 24.262875 
" style="fill: none; stroke: #000000; stroke-width: 0.8; stroke-linejoin: miter; stroke-linecap: square"/>
   </g>
   <g id="text_10">
    <!-- a -->
    <g transform="translate(63.938405 22.254284) scale(0.12 -0.12)">
     <defs>
      <path id="DejaVuSans-Bold-61" d="M 2106 1575 
Q 1756 1575 1579 1456 
Q 1403 1338 1403 1106 
Q 1403 894 1545 773 
Q 1688 653 1941 653 
Q 2256 653 2472 879 
Q 2688 1106 2688 1447 
L 2688 1575 
L 2106 1575 
z
M 3816 1997 
L 3816 0 
L 2688 0 
L 2688 519 
Q 2463 200 2181 54 
Q 1900 -91 1497 -91 
Q 953 -91 614 226 
Q 275 544 275 1050 
Q 275 1666 698 1953 
Q 1122 2241 2028 2241 
L 2688 2241 
L 2688 2328 
Q 2688 2594 2478 2717 
Q 2269 2841 1825 2841 
Q 1466 2841 1156 2769 
Q 847 2697 581 2553 
L 581 3406 
Q 941 3494 1303 3539 
Q 1666 3584 2028 3584 
Q 2975 3584 3395 3211 
Q 3816 2838 3816 1997 
z
" transform="scale(0.015625)"/>
     </defs>
     <use xlink:href="#DejaVuSans-Bold-61"/>
    </g>
   </g>
   <g id="text_11">
    <!-- Velocity distribution -->
    <g transform="translate(218.001172 11.109208) scale(0.13 -0.13)">
     <defs>
      <path id="DejaVuSans-Bold-56" d="M 31 4666 
L 1241 4666 
L 2478 1222 
L 3713 4666 
L 4922 4666 
L 3194 0 
L 1759 0 
L 31 4666 
z
" transform="scale(0.015625)"/>
      <path id="DejaVuSans-Bold-65" d="M 4031 1759 
L 4031 1441 
L 1416 1441 
Q 1456 1047 1700 850 
Q 1944 653 2381 653 
Q 2734 653 3104 758 
Q 3475 863 3866 1075 
L 3866 213 
Q 3469 63 3072 -14 
Q 2675 -91 2278 -91 
Q 1328 -91 801 392 
Q 275 875 275 1747 
Q 275 2603 792 3093 
Q 1309 3584 2216 3584 
Q 3041 3584 3536 3087 
Q 4031 2591 4031 1759 
z
M 2881 2131 
Q 2881 2450 2695 2645 
Q 2509 2841 2209 2841 
Q 1884 2841 1681 2658 
Q 1478 2475 1428 2131 
L 2881 2131 
z
" transform="scale(0.015625)"/>
      <path id="DejaVuSans-Bold-6c" d="M 538 4863 
L 1656 4863 
L 1656 0 
L 538 0 
L 538 4863 
z
" transform="scale(0.015625)"/>
      <path id="DejaVuSans-Bold-6f" d="M 2203 2784 
Q 1831 2784 1636 2517 
Q 1441 2250 1441 1747 
Q 1441 1244 1636 976 
Q 1831 709 2203 709 
Q 2569 709 2762 976 
Q 2956 1244 2956 1747 
Q 2956 2250 2762 2517 
Q 2569 2784 2203 2784 
z
M 2203 3584 
Q 3106 3584 3614 3096 
Q 4122 2609 4122 1747 
Q 4122 884 3614 396 
Q 3106 -91 2203 -91 
Q 1297 -91 786 396 
Q 275 884 275 1747 
Q 275 2609 786 3096 
Q 1297 3584 2203 3584 
z
" transform="scale(0.015625)"/>
      <path id="DejaVuSans-Bold-63" d="M 3366 3391 
L 3366 2478 
Q 3138 2634 2908 2709 
Q 2678 2784 2431 2784 
Q 1963 2784 1702 2511 
Q 1441 2238 1441 1747 
Q 1441 1256 1702 982 
Q 1963 709 2431 709 
Q 2694 709 2930 787 
Q 3166 866 3366 1019 
L 3366 103 
Q 3103 6 2833 -42 
Q 2563 -91 2291 -91 
Q 1344 -91 809 395 
Q 275 881 275 1747 
Q 275 2613 809 3098 
Q 1344 3584 2291 3584 
Q 2566 3584 2833 3536 
Q 3100 3488 3366 3391 
z
" transform="scale(0.015625)"/>
      <path id="DejaVuSans-Bold-69" d="M 538 3500 
L 1656 3500 
L 1656 0 
L 538 0 
L 538 3500 
z
M 538 4863 
L 1656 4863 
L 1656 3950 
L 538 3950 
L 538 4863 
z
" transform="scale(0.015625)"/>
      <path id="DejaVuSans-Bold-74" d="M 1759 4494 
L 1759 3500 
L 2913 3500 
L 2913 2700 
L 1759 2700 
L 1759 1216 
Q 1759 972 1856 886 
Q 1953 800 2241 800 
L 2816 800 
L 2816 0 
L 1856 0 
Q 1194 0 917 276 
Q 641 553 641 1216 
L 641 2700 
L 84 2700 
L 84 3500 
L 641 3500 
L 641 4494 
L 1759 4494 
z
" transform="scale(0.015625)"/>
      <path id="DejaVuSans-Bold-79" d="M 78 3500 
L 1197 3500 
L 2138 1125 
L 2938 3500 
L 4056 3500 
L 2584 -331 
Q 2363 -916 2067 -1148 
Q 1772 -1381 1288 -1381 
L 641 -1381 
L 641 -647 
L 991 -647 
Q 1275 -647 1404 -556 
Q 1534 -466 1606 -231 
L 1638 -134 
L 78 3500 
z
" transform="scale(0.015625)"/>
      <path id="DejaVuSans-Bold-20" transform="scale(0.015625)"/>
      <path id="DejaVuSans-Bold-64" d="M 2919 2988 
L 2919 4863 
L 4044 4863 
L 4044 0 
L 2919 0 
L 2919 506 
Q 2688 197 2409 53 
Q 2131 -91 1766 -91 
Q 1119 -91 703 423 
Q 288 938 288 1747 
Q 288 2556 703 3070 
Q 1119 3584 1766 3584 
Q 2128 3584 2408 3439 
Q 2688 3294 2919 2988 
z
M 2181 722 
Q 2541 722 2730 984 
Q 2919 1247 2919 1747 
Q 2919 2247 2730 2509 
Q 2541 2772 2181 2772 
Q 1825 2772 1636 2509 
Q 1447 2247 1447 1747 
Q 1447 1247 1636 984 
Q 1825 722 2181 722 
z
" transform="scale(0.015625)"/>
      <path id="DejaVuSans-Bold-73" d="M 3272 3391 
L 3272 2541 
Q 2913 2691 2578 2766 
Q 2244 2841 1947 2841 
Q 1628 2841 1473 2761 
Q 1319 2681 1319 2516 
Q 1319 2381 1436 2309 
Q 1553 2238 1856 2203 
L 2053 2175 
Q 2913 2066 3209 1816 
Q 3506 1566 3506 1031 
Q 3506 472 3093 190 
Q 2681 -91 1863 -91 
Q 1516 -91 1145 -36 
Q 775 19 384 128 
L 384 978 
Q 719 816 1070 734 
Q 1422 653 1784 653 
Q 2113 653 2278 743 
Q 2444 834 2444 1013 
Q 2444 1163 2330 1236 
Q 2216 1309 1875 1350 
L 1678 1375 
Q 931 1469 631 1722 
Q 331 1975 331 2491 
Q 331 3047 712 3315 
Q 1094 3584 1881 3584 
Q 2191 3584 2531 3537 
Q 2872 3491 3272 3391 
z
" transform="scale(0.015625)"/>
      <path id="DejaVuSans-Bold-72" d="M 3138 2547 
Q 2991 2616 2845 2648 
Q 2700 2681 2553 2681 
Q 2122 2681 1889 2404 
Q 1656 2128 1656 1613 
L 1656 0 
L 538 0 
L 538 3500 
L 1656 3500 
L 1656 2925 
Q 1872 3269 2151 3426 
Q 2431 3584 2822 3584 
Q 2878 3584 2943 3579 
Q 3009 3575 3134 3559 
L 3138 2547 
z
" transform="scale(0.015625)"/>
      <path id="DejaVuSans-Bold-62" d="M 2400 722 
Q 2759 722 2948 984 
Q 3138 1247 3138 1747 
Q 3138 2247 2948 2509 
Q 2759 2772 2400 2772 
Q 2041 2772 1848 2508 
Q 1656 2244 1656 1747 
Q 1656 1250 1848 986 
Q 2041 722 2400 722 
z
M 1656 2988 
Q 1888 3294 2169 3439 
Q 2450 3584 2816 3584 
Q 3463 3584 3878 3070 
Q 4294 2556 4294 1747 
Q 4294 938 3878 423 
Q 3463 -91 2816 -91 
Q 2450 -91 2169 54 
Q 1888 200 1656 506 
L 1656 0 
L 538 0 
L 538 4863 
L 1656 4863 
L 1656 2988 
z
" transform="scale(0.015625)"/>
      <path id="DejaVuSans-Bold-75" d="M 500 1363 
L 500 3500 
L 1625 3500 
L 1625 3150 
Q 1625 2866 1622 2436 
Q 1619 2006 1619 1863 
Q 1619 1441 1641 1255 
Q 1663 1069 1716 984 
Q 1784 875 1895 815 
Q 2006 756 2150 756 
Q 2500 756 2700 1025 
Q 2900 1294 2900 1772 
L 2900 3500 
L 4019 3500 
L 4019 0 
L 2900 0 
L 2900 506 
Q 2647 200 2364 54 
Q 2081 -91 1741 -91 
Q 1134 -91 817 281 
Q 500 653 500 1363 
z
" transform="scale(0.015625)"/>
      <path id="DejaVuSans-Bold-6e" d="M 4056 2131 
L 4056 0 
L 2931 0 
L 2931 347 
L 2931 1631 
Q 2931 2084 2911 2256 
Q 2891 2428 2841 2509 
Q 2775 2619 2662 2680 
Q 2550 2741 2406 2741 
Q 2056 2741 1856 2470 
Q 1656 2200 1656 1722 
L 1656 0 
L 538 0 
L 538 3500 
L 1656 3500 
L 1656 2988 
Q 1909 3294 2193 3439 
Q 2478 3584 2822 3584 
Q 3428 3584 3742 3212 
Q 4056 2841 4056 2131 
z
" transform="scale(0.015625)"/>
     </defs>
     <use xlink:href="#DejaVuSans-Bold-56"/>
     <use xlink:href="#DejaVuSans-Bold-65" x="71.892578"/>
     <use xlink:href="#DejaVuSans-Bold-6c" x="139.714844"/>
     <use xlink:href="#DejaVuSans-Bold-6f" x="173.992188"/>
     <use xlink:href="#DejaVuSans-Bold-63" x="242.693359"/>
     <use xlink:href="#DejaVuSans-Bold-69" x="301.970703"/>
     <use xlink:href="#DejaVuSans-Bold-74" x="336.248047"/>
     <use xlink:href="#DejaVuSans-Bold-79" x="384.050781"/>
     <use xlink:href="#DejaVuSans-Bold-20" x="449.236328"/>
     <use xlink:href="#DejaVuSans-Bold-64" x="484.050781"/>
     <use xlink:href="#DejaVuSans-Bold-69" x="555.632812"/>
     <use xlink:href="#DejaVuSans-Bold-73" x="589.910156"/>
     <use xlink:href="#DejaVuSans-Bold-74" x="649.431641"/>
     <use xlink:href="#DejaVuSans-Bold-72" x="697.234375"/>
     <use xlink:href="#DejaVuSans-Bold-69" x="746.550781"/>
     <use xlink:href="#DejaVuSans-Bold-62" x="780.828125"/>
     <use xlink:href="#DejaVuSans-Bold-75" x="852.410156"/>
     <use xlink:href="#DejaVuSans-Bold-74" x="923.601562"/>
     <use xlink:href="#DejaVuSans-Bold-69" x="971.404297"/>
     <use xlink:href="#DejaVuSans-Bold-6f" x="1005.681641"/>
     <use xlink:href="#DejaVuSans-Bold-6e" x="1074.382812"/>
    </g>
   </g>
   <g id="legend_1">
    <g id="patch_47">
     <path d="M 90.313344 54.147875 
L 134.414594 54.147875 
Q 136.014594 54.147875 136.014594 52.547875 
L 136.014594 29.862875 
Q 136.014594 28.262875 134.414594 28.262875 
L 90.313344 28.262875 
Q 88.713344 28.262875 88.713344 29.862875 
L 88.713344 52.547875 
Q 88.713344 54.147875 90.313344 54.147875 
z
" style="fill: #ffffff; opacity: 0.8; stroke: #cccccc; stroke-linejoin: miter"/>
    </g>
    <g id="patch_48">
     <path d="M 91.913344 37.541625 
L 107.913344 37.541625 
L 107.913344 31.941625 
L 91.913344 31.941625 
z
" style="fill: #0000ff; stroke: #ffffff; stroke-linejoin: miter"/>
    </g>
    <g id="text_12">
     <!-- BM -->
     <g transform="translate(114.313344 37.541625) scale(0.08 -0.08)">
      <defs>
       <path id="DejaVuSans-42" d="M 1259 2228 
L 1259 519 
L 2272 519 
Q 2781 519 3026 730 
Q 3272 941 3272 1375 
Q 3272 1813 3026 2020 
Q 2781 2228 2272 2228 
L 1259 2228 
z
M 1259 4147 
L 1259 2741 
L 2194 2741 
Q 2656 2741 2882 2914 
Q 3109 3088 3109 3444 
Q 3109 3797 2882 3972 
Q 2656 4147 2194 4147 
L 1259 4147 
z
M 628 4666 
L 2241 4666 
Q 2963 4666 3353 4366 
Q 3744 4066 3744 3513 
Q 3744 3084 3544 2831 
Q 3344 2578 2956 2516 
Q 3422 2416 3680 2098 
Q 3938 1781 3938 1306 
Q 3938 681 3513 340 
Q 3088 0 2303 0 
L 628 0 
L 628 4666 
z
" transform="scale(0.015625)"/>
       <path id="DejaVuSans-4d" d="M 628 4666 
L 1569 4666 
L 2759 1491 
L 3956 4666 
L 4897 4666 
L 4897 0 
L 4281 0 
L 4281 4097 
L 3078 897 
L 2444 897 
L 1241 4097 
L 1241 0 
L 628 0 
L 628 4666 
z
" transform="scale(0.015625)"/>
      </defs>
      <use xlink:href="#DejaVuSans-42"/>
      <use xlink:href="#DejaVuSans-4d" x="68.603516"/>
     </g>
    </g>
    <g id="patch_49">
     <path d="M 91.913344 49.284125 
L 107.913344 49.284125 
L 107.913344 43.684125 
L 91.913344 43.684125 
z
" style="fill: #ffa500; stroke: #ffffff; stroke-linejoin: miter"/>
    </g>
    <g id="text_13">
     <!-- EdSr -->
     <g transform="translate(114.313344 49.284125) scale(0.08 -0.08)">
      <defs>
       <path id="DejaVuSans-45" d="M 628 4666 
L 3578 4666 
L 3578 4134 
L 1259 4134 
L 1259 2753 
L 3481 2753 
L 3481 2222 
L 1259 2222 
L 1259 531 
L 3634 531 
L 3634 0 
L 628 0 
L 628 4666 
z
" transform="scale(0.015625)"/>
       <path id="DejaVuSans-64" d="M 2906 2969 
L 2906 4863 
L 3481 4863 
L 3481 0 
L 2906 0 
L 2906 525 
Q 2725 213 2448 61 
Q 2172 -91 1784 -91 
Q 1150 -91 751 415 
Q 353 922 353 1747 
Q 353 2572 751 3078 
Q 1150 3584 1784 3584 
Q 2172 3584 2448 3432 
Q 2725 3281 2906 2969 
z
M 947 1747 
Q 947 1113 1208 752 
Q 1469 391 1925 391 
Q 2381 391 2643 752 
Q 2906 1113 2906 1747 
Q 2906 2381 2643 2742 
Q 2381 3103 1925 3103 
Q 1469 3103 1208 2742 
Q 947 2381 947 1747 
z
" transform="scale(0.015625)"/>
       <path id="DejaVuSans-53" d="M 3425 4513 
L 3425 3897 
Q 3066 4069 2747 4153 
Q 2428 4238 2131 4238 
Q 1616 4238 1336 4038 
Q 1056 3838 1056 3469 
Q 1056 3159 1242 3001 
Q 1428 2844 1947 2747 
L 2328 2669 
Q 3034 2534 3370 2195 
Q 3706 1856 3706 1288 
Q 3706 609 3251 259 
Q 2797 -91 1919 -91 
Q 1588 -91 1214 -16 
Q 841 59 441 206 
L 441 856 
Q 825 641 1194 531 
Q 1563 422 1919 422 
Q 2459 422 2753 634 
Q 3047 847 3047 1241 
Q 3047 1584 2836 1778 
Q 2625 1972 2144 2069 
L 1759 2144 
Q 1053 2284 737 2584 
Q 422 2884 422 3419 
Q 422 4038 858 4394 
Q 1294 4750 2059 4750 
Q 2388 4750 2728 4690 
Q 3069 4631 3425 4513 
z
" transform="scale(0.015625)"/>
       <path id="DejaVuSans-72" d="M 2631 2963 
Q 2534 3019 2420 3045 
Q 2306 3072 2169 3072 
Q 1681 3072 1420 2755 
Q 1159 2438 1159 1844 
L 1159 0 
L 581 0 
L 581 3500 
L 1159 3500 
L 1159 2956 
Q 1341 3275 1631 3429 
Q 1922 3584 2338 3584 
Q 2397 3584 2469 3576 
Q 2541 3569 2628 3553 
L 2631 2963 
z
" transform="scale(0.015625)"/>
      </defs>
      <use xlink:href="#DejaVuSans-45"/>
      <use xlink:href="#DejaVuSans-64" x="63.183594"/>
      <use xlink:href="#DejaVuSans-53" x="126.660156"/>
      <use xlink:href="#DejaVuSans-72" x="190.136719"/>
     </g>
    </g>
   </g>
  </g>
  <g id="axes_2">
   <g id="patch_50">
    <path d="M 344.039906 107.888783 
L 493.873031 107.888783 
L 493.873031 31.107533 
L 344.039906 31.107533 
z
" style="fill: #ffffff"/>
   </g>
   <g id="patch_51">
    <path d="M 342.215135 107.888783 
L 345.826037 107.888783 
L 345.826037 107.888783 
L 342.215135 107.888783 
z
" clip-path="url(#pfe99593636)" style="fill: #0000ff; stroke: #ffffff; stroke-linejoin: miter"/>
   </g>
   <g id="patch_52">
    <path d="M 349.43694 107.888783 
L 353.047842 107.888783 
L 353.047842 107.888783 
L 349.43694 107.888783 
z
" clip-path="url(#pfe99593636)" style="fill: #0000ff; stroke: #ffffff; stroke-linejoin: miter"/>
   </g>
   <g id="patch_53">
    <path d="M 356.658744 107.888783 
L 360.269647 107.888783 
L 360.269647 105.284491 
L 356.658744 105.284491 
z
" clip-path="url(#pfe99593636)" style="fill: #0000ff; stroke: #ffffff; stroke-linejoin: miter"/>
   </g>
   <g id="patch_54">
    <path d="M 363.880549 107.888783 
L 367.491451 107.888783 
L 367.491451 105.284491 
L 363.880549 105.284491 
z
" clip-path="url(#pfe99593636)" style="fill: #0000ff; stroke: #ffffff; stroke-linejoin: miter"/>
   </g>
   <g id="patch_55">
    <path d="M 371.102353 107.888783 
L 374.713256 107.888783 
L 374.713256 100.944005 
L 371.102353 100.944005 
z
" clip-path="url(#pfe99593636)" style="fill: #0000ff; stroke: #ffffff; stroke-linejoin: miter"/>
   </g>
   <g id="patch_56">
    <path d="M 378.324158 107.888783 
L 381.93506 107.888783 
L 381.93506 98.339714 
L 378.324158 98.339714 
z
" clip-path="url(#pfe99593636)" style="fill: #0000ff; stroke: #ffffff; stroke-linejoin: miter"/>
   </g>
   <g id="patch_57">
    <path d="M 385.545963 107.888783 
L 389.156865 107.888783 
L 389.156865 83.582061 
L 385.545963 83.582061 
z
" clip-path="url(#pfe99593636)" style="fill: #0000ff; stroke: #ffffff; stroke-linejoin: miter"/>
   </g>
   <g id="patch_58">
    <path d="M 392.767767 107.888783 
L 396.378669 107.888783 
L 396.378669 74.032992 
L 392.767767 74.032992 
z
" clip-path="url(#pfe99593636)" style="fill: #0000ff; stroke: #ffffff; stroke-linejoin: miter"/>
   </g>
   <g id="patch_59">
    <path d="M 399.989572 107.888783 
L 403.600474 107.888783 
L 403.600474 58.407242 
L 399.989572 58.407242 
z
" clip-path="url(#pfe99593636)" style="fill: #0000ff; stroke: #ffffff; stroke-linejoin: miter"/>
   </g>
   <g id="patch_60">
    <path d="M 407.211376 107.888783 
L 410.822279 107.888783 
L 410.822279 34.968617 
L 407.211376 34.968617 
z
" clip-path="url(#pfe99593636)" style="fill: #0000ff; stroke: #ffffff; stroke-linejoin: miter"/>
   </g>
   <g id="patch_61">
    <path d="M 414.433181 107.888783 
L 418.044083 107.888783 
L 418.044083 47.990075 
L 414.433181 47.990075 
z
" clip-path="url(#pfe99593636)" style="fill: #0000ff; stroke: #ffffff; stroke-linejoin: miter"/>
   </g>
   <g id="patch_62">
    <path d="M 421.654985 107.888783 
L 425.265888 107.888783 
L 425.265888 53.198658 
L 421.654985 53.198658 
z
" clip-path="url(#pfe99593636)" style="fill: #0000ff; stroke: #ffffff; stroke-linejoin: miter"/>
   </g>
   <g id="patch_63">
    <path d="M 428.87679 107.888783 
L 432.487692 107.888783 
L 432.487692 70.560603 
L 428.87679 70.560603 
z
" clip-path="url(#pfe99593636)" style="fill: #0000ff; stroke: #ffffff; stroke-linejoin: miter"/>
   </g>
   <g id="patch_64">
    <path d="M 436.098595 107.888783 
L 439.709497 107.888783 
L 439.709497 78.373478 
L 436.098595 78.373478 
z
" clip-path="url(#pfe99593636)" style="fill: #0000ff; stroke: #ffffff; stroke-linejoin: miter"/>
   </g>
   <g id="patch_65">
    <path d="M 443.320399 107.888783 
L 446.931301 107.888783 
L 446.931301 87.05445 
L 443.320399 87.05445 
z
" clip-path="url(#pfe99593636)" style="fill: #0000ff; stroke: #ffffff; stroke-linejoin: miter"/>
   </g>
   <g id="patch_66">
    <path d="M 450.542204 107.888783 
L 454.153106 107.888783 
L 454.153106 98.339714 
L 450.542204 98.339714 
z
" clip-path="url(#pfe99593636)" style="fill: #0000ff; stroke: #ffffff; stroke-linejoin: miter"/>
   </g>
   <g id="patch_67">
    <path d="M 457.764008 107.888783 
L 461.374911 107.888783 
L 461.374911 100.075908 
L 457.764008 100.075908 
z
" clip-path="url(#pfe99593636)" style="fill: #0000ff; stroke: #ffffff; stroke-linejoin: miter"/>
   </g>
   <g id="patch_68">
    <path d="M 464.985813 107.888783 
L 468.596715 107.888783 
L 468.596715 107.020686 
L 464.985813 107.020686 
z
" clip-path="url(#pfe99593636)" style="fill: #0000ff; stroke: #ffffff; stroke-linejoin: miter"/>
   </g>
   <g id="patch_69">
    <path d="M 472.207618 107.888783 
L 475.81852 107.888783 
L 475.81852 107.020686 
L 472.207618 107.020686 
z
" clip-path="url(#pfe99593636)" style="fill: #0000ff; stroke: #ffffff; stroke-linejoin: miter"/>
   </g>
   <g id="patch_70">
    <path d="M 479.429422 107.888783 
L 483.040324 107.888783 
L 483.040324 107.020686 
L 479.429422 107.020686 
z
" clip-path="url(#pfe99593636)" style="fill: #0000ff; stroke: #ffffff; stroke-linejoin: miter"/>
   </g>
   <g id="patch_71">
    <path d="M 345.826037 107.888783 
L 349.43694 107.888783 
L 349.43694 107.020686 
L 345.826037 107.020686 
z
" clip-path="url(#pfe99593636)" style="fill: #ff0000; stroke: #ffffff; stroke-linejoin: miter"/>
   </g>
   <g id="patch_72">
    <path d="M 353.047842 107.888783 
L 356.658744 107.888783 
L 356.658744 107.888783 
L 353.047842 107.888783 
z
" clip-path="url(#pfe99593636)" style="fill: #ff0000; stroke: #ffffff; stroke-linejoin: miter"/>
   </g>
   <g id="patch_73">
    <path d="M 360.269647 107.888783 
L 363.880549 107.888783 
L 363.880549 107.888783 
L 360.269647 107.888783 
z
" clip-path="url(#pfe99593636)" style="fill: #ff0000; stroke: #ffffff; stroke-linejoin: miter"/>
   </g>
   <g id="patch_74">
    <path d="M 367.491451 107.888783 
L 371.102353 107.888783 
L 371.102353 102.6802 
L 367.491451 102.6802 
z
" clip-path="url(#pfe99593636)" style="fill: #ff0000; stroke: #ffffff; stroke-linejoin: miter"/>
   </g>
   <g id="patch_75">
    <path d="M 374.713256 107.888783 
L 378.324158 107.888783 
L 378.324158 105.284491 
L 374.713256 105.284491 
z
" clip-path="url(#pfe99593636)" style="fill: #ff0000; stroke: #ffffff; stroke-linejoin: miter"/>
   </g>
   <g id="patch_76">
    <path d="M 381.93506 107.888783 
L 385.545963 107.888783 
L 385.545963 98.339714 
L 381.93506 98.339714 
z
" clip-path="url(#pfe99593636)" style="fill: #ff0000; stroke: #ffffff; stroke-linejoin: miter"/>
   </g>
   <g id="patch_77">
    <path d="M 389.156865 107.888783 
L 392.767767 107.888783 
L 392.767767 79.241575 
L 389.156865 79.241575 
z
" clip-path="url(#pfe99593636)" style="fill: #ff0000; stroke: #ffffff; stroke-linejoin: miter"/>
   </g>
   <g id="patch_78">
    <path d="M 396.378669 107.888783 
L 399.989572 107.888783 
L 399.989572 69.692506 
L 396.378669 69.692506 
z
" clip-path="url(#pfe99593636)" style="fill: #ff0000; stroke: #ffffff; stroke-linejoin: miter"/>
   </g>
   <g id="patch_79">
    <path d="M 403.600474 107.888783 
L 407.211376 107.888783 
L 407.211376 52.330561 
L 403.600474 52.330561 
z
" clip-path="url(#pfe99593636)" style="fill: #ff0000; stroke: #ffffff; stroke-linejoin: miter"/>
   </g>
   <g id="patch_80">
    <path d="M 410.822279 107.888783 
L 414.433181 107.888783 
L 414.433181 52.330561 
L 410.822279 52.330561 
z
" clip-path="url(#pfe99593636)" style="fill: #ff0000; stroke: #ffffff; stroke-linejoin: miter"/>
   </g>
   <g id="patch_81">
    <path d="M 418.044083 107.888783 
L 421.654985 107.888783 
L 421.654985 56.671047 
L 418.044083 56.671047 
z
" clip-path="url(#pfe99593636)" style="fill: #ff0000; stroke: #ffffff; stroke-linejoin: miter"/>
   </g>
   <g id="patch_82">
    <path d="M 425.265888 107.888783 
L 428.87679 107.888783 
L 428.87679 51.462464 
L 425.265888 51.462464 
z
" clip-path="url(#pfe99593636)" style="fill: #ff0000; stroke: #ffffff; stroke-linejoin: miter"/>
   </g>
   <g id="patch_83">
    <path d="M 432.487692 107.888783 
L 436.098595 107.888783 
L 436.098595 54.934853 
L 432.487692 54.934853 
z
" clip-path="url(#pfe99593636)" style="fill: #ff0000; stroke: #ffffff; stroke-linejoin: miter"/>
   </g>
   <g id="patch_84">
    <path d="M 439.709497 107.888783 
L 443.320399 107.888783 
L 443.320399 76.637283 
L 439.709497 76.637283 
z
" clip-path="url(#pfe99593636)" style="fill: #ff0000; stroke: #ffffff; stroke-linejoin: miter"/>
   </g>
   <g id="patch_85">
    <path d="M 446.931301 107.888783 
L 450.542204 107.888783 
L 450.542204 85.318255 
L 446.931301 85.318255 
z
" clip-path="url(#pfe99593636)" style="fill: #ff0000; stroke: #ffffff; stroke-linejoin: miter"/>
   </g>
   <g id="patch_86">
    <path d="M 454.153106 107.888783 
L 457.764008 107.888783 
L 457.764008 101.812102 
L 454.153106 101.812102 
z
" clip-path="url(#pfe99593636)" style="fill: #ff0000; stroke: #ffffff; stroke-linejoin: miter"/>
   </g>
   <g id="patch_87">
    <path d="M 461.374911 107.888783 
L 464.985813 107.888783 
L 464.985813 102.6802 
L 461.374911 102.6802 
z
" clip-path="url(#pfe99593636)" style="fill: #ff0000; stroke: #ffffff; stroke-linejoin: miter"/>
   </g>
   <g id="patch_88">
    <path d="M 468.596715 107.888783 
L 472.207618 107.888783 
L 472.207618 107.020686 
L 468.596715 107.020686 
z
" clip-path="url(#pfe99593636)" style="fill: #ff0000; stroke: #ffffff; stroke-linejoin: miter"/>
   </g>
   <g id="patch_89">
    <path d="M 475.81852 107.888783 
L 479.429422 107.888783 
L 479.429422 107.020686 
L 475.81852 107.020686 
z
" clip-path="url(#pfe99593636)" style="fill: #ff0000; stroke: #ffffff; stroke-linejoin: miter"/>
   </g>
   <g id="patch_90">
    <path d="M 483.040324 107.888783 
L 486.651227 107.888783 
L 486.651227 107.020686 
L 483.040324 107.020686 
z
" clip-path="url(#pfe99593636)" style="fill: #ff0000; stroke: #ffffff; stroke-linejoin: miter"/>
   </g>
   <g id="matplotlib.axis_3">
    <g id="xtick_4">
     <g id="line2d_10">
      <g>
       <use xlink:href="#maa5f6dfd7c" x="364.801999" y="107.888783" style="stroke: #000000; stroke-width: 0.8"/>
      </g>
     </g>
     <g id="text_14">
      <!-- −0.005 -->
      <g transform="translate(351.849264 120.207689) scale(0.07 -0.07)">
       <use xlink:href="#DejaVuSans-2212"/>
       <use xlink:href="#DejaVuSans-30" x="83.789062"/>
       <use xlink:href="#DejaVuSans-2e" x="147.412109"/>
       <use xlink:href="#DejaVuSans-30" x="179.199219"/>
       <use xlink:href="#DejaVuSans-30" x="242.822266"/>
       <use xlink:href="#DejaVuSans-35" x="306.445312"/>
      </g>
     </g>
    </g>
    <g id="xtick_5">
     <g id="line2d_11">
      <g>
       <use xlink:href="#maa5f6dfd7c" x="416.70723" y="107.888783" style="stroke: #000000; stroke-width: 0.8"/>
      </g>
     </g>
     <g id="text_15">
      <!-- 0.000 -->
      <g transform="translate(406.687386 120.207689) scale(0.07 -0.07)">
       <use xlink:href="#DejaVuSans-30"/>
       <use xlink:href="#DejaVuSans-2e" x="63.623047"/>
       <use xlink:href="#DejaVuSans-30" x="95.410156"/>
       <use xlink:href="#DejaVuSans-30" x="159.033203"/>
       <use xlink:href="#DejaVuSans-30" x="222.65625"/>
      </g>
     </g>
    </g>
    <g id="xtick_6">
     <g id="line2d_12">
      <g>
       <use xlink:href="#maa5f6dfd7c" x="468.612461" y="107.888783" style="stroke: #000000; stroke-width: 0.8"/>
      </g>
     </g>
     <g id="text_16">
      <!-- 0.005 -->
      <g transform="translate(458.592617 120.207689) scale(0.07 -0.07)">
       <use xlink:href="#DejaVuSans-30"/>
       <use xlink:href="#DejaVuSans-2e" x="63.623047"/>
       <use xlink:href="#DejaVuSans-30" x="95.410156"/>
       <use xlink:href="#DejaVuSans-30" x="159.033203"/>
       <use xlink:href="#DejaVuSans-35" x="222.65625"/>
      </g>
     </g>
    </g>
   </g>
   <g id="matplotlib.axis_4">
    <g id="ytick_7">
     <g id="line2d_13">
      <g>
       <use xlink:href="#mceaefbc3c3" x="344.039906" y="107.888783" style="stroke: #000000; stroke-width: 0.8"/>
      </g>
     </g>
     <g id="text_17">
      <!-- 0 -->
      <g transform="translate(332.586156 110.548236) scale(0.07 -0.07)">
       <use xlink:href="#DejaVuSans-30"/>
      </g>
     </g>
    </g>
    <g id="ytick_8">
     <g id="line2d_14">
      <g>
       <use xlink:href="#mceaefbc3c3" x="344.039906" y="78.357533" style="stroke: #000000; stroke-width: 0.8"/>
      </g>
     </g>
     <g id="text_18">
      <!-- 100 -->
      <g transform="translate(323.678656 81.016986) scale(0.07 -0.07)">
       <use xlink:href="#DejaVuSans-31"/>
       <use xlink:href="#DejaVuSans-30" x="63.623047"/>
       <use xlink:href="#DejaVuSans-30" x="127.246094"/>
      </g>
     </g>
    </g>
    <g id="ytick_9">
     <g id="line2d_15">
      <g>
       <use xlink:href="#mceaefbc3c3" x="344.039906" y="48.826283" style="stroke: #000000; stroke-width: 0.8"/>
      </g>
     </g>
     <g id="text_19">
      <!-- 200 -->
      <g transform="translate(323.678656 51.485736) scale(0.07 -0.07)">
       <use xlink:href="#DejaVuSans-32"/>
       <use xlink:href="#DejaVuSans-30" x="63.623047"/>
       <use xlink:href="#DejaVuSans-30" x="127.246094"/>
      </g>
     </g>
    </g>
   </g>
   <g id="patch_91">
    <path d="M 344.039906 107.888783 
L 344.039906 31.107533 
" style="fill: none; stroke: #000000; stroke-width: 0.8; stroke-linejoin: miter; stroke-linecap: square"/>
   </g>
   <g id="patch_92">
    <path d="M 493.873031 107.888783 
L 493.873031 31.107533 
" style="fill: none; stroke: #000000; stroke-width: 0.8; stroke-linejoin: miter; stroke-linecap: square"/>
   </g>
   <g id="patch_93">
    <path d="M 344.039906 107.888783 
L 493.873031 107.888783 
" style="fill: none; stroke: #000000; stroke-width: 0.8; stroke-linejoin: miter; stroke-linecap: square"/>
   </g>
   <g id="patch_94">
    <path d="M 344.039906 31.107533 
L 493.873031 31.107533 
" style="fill: none; stroke: #000000; stroke-width: 0.8; stroke-linejoin: miter; stroke-linecap: square"/>
   </g>
   <g id="legend_2">
    <g id="patch_95">
     <path d="M 449.610531 60.992533 
L 488.273031 60.992533 
Q 489.873031 60.992533 489.873031 59.392533 
L 489.873031 36.707533 
Q 489.873031 35.107533 488.273031 35.107533 
L 449.610531 35.107533 
Q 448.010531 35.107533 448.010531 36.707533 
L 448.010531 59.392533 
Q 448.010531 60.992533 449.610531 60.992533 
z
" style="fill: #ffffff; opacity: 0.8; stroke: #cccccc; stroke-linejoin: miter"/>
    </g>
    <g id="patch_96">
     <path d="M 451.210531 44.386283 
L 467.210531 44.386283 
L 467.210531 38.786283 
L 451.210531 38.786283 
z
" style="fill: #0000ff; stroke: #ffffff; stroke-linejoin: miter"/>
    </g>
    <g id="text_20">
     <!-- BM -->
     <g transform="translate(473.610531 44.386283) scale(0.08 -0.08)">
      <use xlink:href="#DejaVuSans-42"/>
      <use xlink:href="#DejaVuSans-4d" x="68.603516"/>
     </g>
    </g>
    <g id="patch_97">
     <path d="M 451.210531 56.128783 
L 467.210531 56.128783 
L 467.210531 50.528783 
L 451.210531 50.528783 
z
" style="fill: #ff0000; stroke: #ffffff; stroke-linejoin: miter"/>
    </g>
    <g id="text_21">
     <!-- MD -->
     <g transform="translate(473.610531 56.128783) scale(0.08 -0.08)">
      <defs>
       <path id="DejaVuSans-44" d="M 1259 4147 
L 1259 519 
L 2022 519 
Q 2988 519 3436 956 
Q 3884 1394 3884 2338 
Q 3884 3275 3436 3711 
Q 2988 4147 2022 4147 
L 1259 4147 
z
M 628 4666 
L 1925 4666 
Q 3281 4666 3915 4102 
Q 4550 3538 4550 2338 
Q 4550 1131 3912 565 
Q 3275 0 1925 0 
L 628 0 
L 628 4666 
z
" transform="scale(0.015625)"/>
      </defs>
      <use xlink:href="#DejaVuSans-4d"/>
      <use xlink:href="#DejaVuSans-44" x="86.279297"/>
     </g>
    </g>
   </g>
  </g>
  <g id="axes_3">
   <g id="patch_98">
    <path d="M 84.713344 271.4985 
L 500.212125 271.4985 
L 500.212125 160.231342 
L 84.713344 160.231342 
z
" style="fill: #ffffff"/>
   </g>
   <g id="patch_99">
    <path d="M 107.612867 271.4985 
L 117.254122 271.4985 
L 117.254122 270.175146 
L 107.612867 270.175146 
z
" clip-path="url(#pfa555cf7de)" style="fill: #0000ff; stroke: #ffffff; stroke-linejoin: miter"/>
   </g>
   <g id="patch_100">
    <path d="M 126.895378 271.4985 
L 136.536634 271.4985 
L 136.536634 271.4985 
L 126.895378 271.4985 
z
" clip-path="url(#pfa555cf7de)" style="fill: #0000ff; stroke: #ffffff; stroke-linejoin: miter"/>
   </g>
   <g id="patch_101">
    <path d="M 146.177889 271.4985 
L 155.819145 271.4985 
L 155.819145 267.528438 
L 146.177889 267.528438 
z
" clip-path="url(#pfa555cf7de)" style="fill: #0000ff; stroke: #ffffff; stroke-linejoin: miter"/>
   </g>
   <g id="patch_102">
    <path d="M 165.4604 271.4985 
L 175.101656 271.4985 
L 175.101656 262.235021 
L 165.4604 262.235021 
z
" clip-path="url(#pfa555cf7de)" style="fill: #0000ff; stroke: #ffffff; stroke-linejoin: miter"/>
   </g>
   <g id="patch_103">
    <path d="M 184.742911 271.4985 
L 194.384167 271.4985 
L 194.384167 258.264958 
L 184.742911 258.264958 
z
" clip-path="url(#pfa555cf7de)" style="fill: #0000ff; stroke: #ffffff; stroke-linejoin: miter"/>
   </g>
   <g id="patch_104">
    <path d="M 204.025422 271.4985 
L 213.666678 271.4985 
L 213.666678 250.324833 
L 204.025422 250.324833 
z
" clip-path="url(#pfa555cf7de)" style="fill: #0000ff; stroke: #ffffff; stroke-linejoin: miter"/>
   </g>
   <g id="patch_105">
    <path d="M 223.307934 271.4985 
L 232.949189 271.4985 
L 232.949189 247.678125 
L 223.307934 247.678125 
z
" clip-path="url(#pfa555cf7de)" style="fill: #0000ff; stroke: #ffffff; stroke-linejoin: miter"/>
   </g>
   <g id="patch_106">
    <path d="M 242.590445 271.4985 
L 252.2317 271.4985 
L 252.2317 209.300854 
L 242.590445 209.300854 
z
" clip-path="url(#pfa555cf7de)" style="fill: #0000ff; stroke: #ffffff; stroke-linejoin: miter"/>
   </g>
   <g id="patch_107">
    <path d="M 261.872956 271.4985 
L 271.514211 271.4985 
L 271.514211 210.624209 
L 261.872956 210.624209 
z
" clip-path="url(#pfa555cf7de)" style="fill: #0000ff; stroke: #ffffff; stroke-linejoin: miter"/>
   </g>
   <g id="patch_108">
    <path d="M 281.155467 271.4985 
L 290.796723 271.4985 
L 290.796723 162.983459 
L 281.155467 162.983459 
z
" clip-path="url(#pfa555cf7de)" style="fill: #0000ff; stroke: #ffffff; stroke-linejoin: miter"/>
   </g>
   <g id="patch_109">
    <path d="M 300.437978 271.4985 
L 310.079234 271.4985 
L 310.079234 196.067313 
L 300.437978 196.067313 
z
" clip-path="url(#pfa555cf7de)" style="fill: #0000ff; stroke: #ffffff; stroke-linejoin: miter"/>
   </g>
   <g id="patch_110">
    <path d="M 319.720489 271.4985 
L 329.361745 271.4985 
L 329.361745 200.037375 
L 319.720489 200.037375 
z
" clip-path="url(#pfa555cf7de)" style="fill: #0000ff; stroke: #ffffff; stroke-linejoin: miter"/>
   </g>
   <g id="patch_111">
    <path d="M 339.003 271.4985 
L 348.644256 271.4985 
L 348.644256 200.037375 
L 339.003 200.037375 
z
" clip-path="url(#pfa555cf7de)" style="fill: #0000ff; stroke: #ffffff; stroke-linejoin: miter"/>
   </g>
   <g id="patch_112">
    <path d="M 358.285512 271.4985 
L 367.926767 271.4985 
L 367.926767 225.181104 
L 358.285512 225.181104 
z
" clip-path="url(#pfa555cf7de)" style="fill: #0000ff; stroke: #ffffff; stroke-linejoin: miter"/>
   </g>
   <g id="patch_113">
    <path d="M 377.568023 271.4985 
L 387.209278 271.4985 
L 387.209278 241.061354 
L 377.568023 241.061354 
z
" clip-path="url(#pfa555cf7de)" style="fill: #0000ff; stroke: #ffffff; stroke-linejoin: miter"/>
   </g>
   <g id="patch_114">
    <path d="M 396.850534 271.4985 
L 406.491789 271.4985 
L 406.491789 242.384708 
L 396.850534 242.384708 
z
" clip-path="url(#pfa555cf7de)" style="fill: #0000ff; stroke: #ffffff; stroke-linejoin: miter"/>
   </g>
   <g id="patch_115">
    <path d="M 416.133045 271.4985 
L 425.7743 271.4985 
L 425.7743 263.558375 
L 416.133045 263.558375 
z
" clip-path="url(#pfa555cf7de)" style="fill: #0000ff; stroke: #ffffff; stroke-linejoin: miter"/>
   </g>
   <g id="patch_116">
    <path d="M 435.415556 271.4985 
L 445.056812 271.4985 
L 445.056812 266.205083 
L 435.415556 266.205083 
z
" clip-path="url(#pfa555cf7de)" style="fill: #0000ff; stroke: #ffffff; stroke-linejoin: miter"/>
   </g>
   <g id="patch_117">
    <path d="M 454.698067 271.4985 
L 464.339323 271.4985 
L 464.339323 270.175146 
L 454.698067 270.175146 
z
" clip-path="url(#pfa555cf7de)" style="fill: #0000ff; stroke: #ffffff; stroke-linejoin: miter"/>
   </g>
   <g id="patch_118">
    <path d="M 473.980578 271.4985 
L 483.621834 271.4985 
L 483.621834 267.528438 
L 473.980578 267.528438 
z
" clip-path="url(#pfa555cf7de)" style="fill: #0000ff; stroke: #ffffff; stroke-linejoin: miter"/>
   </g>
   <g id="patch_119">
    <path d="M 117.254122 271.4985 
L 126.895378 271.4985 
L 126.895378 270.175146 
L 117.254122 270.175146 
z
" clip-path="url(#pfa555cf7de)" style="fill: #ffa500; stroke: #ffffff; stroke-linejoin: miter"/>
   </g>
   <g id="patch_120">
    <path d="M 136.536634 271.4985 
L 146.177889 271.4985 
L 146.177889 270.175146 
L 136.536634 270.175146 
z
" clip-path="url(#pfa555cf7de)" style="fill: #ffa500; stroke: #ffffff; stroke-linejoin: miter"/>
   </g>
   <g id="patch_121">
    <path d="M 155.819145 271.4985 
L 165.4604 271.4985 
L 165.4604 270.175146 
L 155.819145 270.175146 
z
" clip-path="url(#pfa555cf7de)" style="fill: #ffa500; stroke: #ffffff; stroke-linejoin: miter"/>
   </g>
   <g id="patch_122">
    <path d="M 175.101656 271.4985 
L 184.742911 271.4985 
L 184.742911 267.528438 
L 175.101656 267.528438 
z
" clip-path="url(#pfa555cf7de)" style="fill: #ffa500; stroke: #ffffff; stroke-linejoin: miter"/>
   </g>
   <g id="patch_123">
    <path d="M 194.384167 271.4985 
L 204.025422 271.4985 
L 204.025422 259.588313 
L 194.384167 259.588313 
z
" clip-path="url(#pfa555cf7de)" style="fill: #ffa500; stroke: #ffffff; stroke-linejoin: miter"/>
   </g>
   <g id="patch_124">
    <path d="M 213.666678 271.4985 
L 223.307934 271.4985 
L 223.307934 252.971542 
L 213.666678 252.971542 
z
" clip-path="url(#pfa555cf7de)" style="fill: #ffa500; stroke: #ffffff; stroke-linejoin: miter"/>
   </g>
   <g id="patch_125">
    <path d="M 232.949189 271.4985 
L 242.590445 271.4985 
L 242.590445 235.767938 
L 232.949189 235.767938 
z
" clip-path="url(#pfa555cf7de)" style="fill: #ffa500; stroke: #ffffff; stroke-linejoin: miter"/>
   </g>
   <g id="patch_126">
    <path d="M 252.2317 271.4985 
L 261.872956 271.4985 
L 261.872956 225.181104 
L 252.2317 225.181104 
z
" clip-path="url(#pfa555cf7de)" style="fill: #ffa500; stroke: #ffffff; stroke-linejoin: miter"/>
   </g>
   <g id="patch_127">
    <path d="M 271.514211 271.4985 
L 281.155467 271.4985 
L 281.155467 200.037375 
L 271.514211 200.037375 
z
" clip-path="url(#pfa555cf7de)" style="fill: #ffa500; stroke: #ffffff; stroke-linejoin: miter"/>
   </g>
   <g id="patch_128">
    <path d="M 290.796723 271.4985 
L 300.437978 271.4985 
L 300.437978 169.60023 
L 290.796723 169.60023 
z
" clip-path="url(#pfa555cf7de)" style="fill: #ffa500; stroke: #ffffff; stroke-linejoin: miter"/>
   </g>
   <g id="patch_129">
    <path d="M 310.079234 271.4985 
L 319.720489 271.4985 
L 319.720489 194.743959 
L 310.079234 194.743959 
z
" clip-path="url(#pfa555cf7de)" style="fill: #ffa500; stroke: #ffffff; stroke-linejoin: miter"/>
   </g>
   <g id="patch_130">
    <path d="M 329.361745 271.4985 
L 339.003 271.4985 
L 339.003 193.420604 
L 329.361745 193.420604 
z
" clip-path="url(#pfa555cf7de)" style="fill: #ffa500; stroke: #ffffff; stroke-linejoin: miter"/>
   </g>
   <g id="patch_131">
    <path d="M 348.644256 271.4985 
L 358.285512 271.4985 
L 358.285512 188.127188 
L 348.644256 188.127188 
z
" clip-path="url(#pfa555cf7de)" style="fill: #ffa500; stroke: #ffffff; stroke-linejoin: miter"/>
   </g>
   <g id="patch_132">
    <path d="M 367.926767 271.4985 
L 377.568023 271.4985 
L 377.568023 221.211042 
L 367.926767 221.211042 
z
" clip-path="url(#pfa555cf7de)" style="fill: #ffa500; stroke: #ffffff; stroke-linejoin: miter"/>
   </g>
   <g id="patch_133">
    <path d="M 387.209278 271.4985 
L 396.850534 271.4985 
L 396.850534 231.797875 
L 387.209278 231.797875 
z
" clip-path="url(#pfa555cf7de)" style="fill: #ffa500; stroke: #ffffff; stroke-linejoin: miter"/>
   </g>
   <g id="patch_134">
    <path d="M 406.491789 271.4985 
L 416.133045 271.4985 
L 416.133045 258.264958 
L 406.491789 258.264958 
z
" clip-path="url(#pfa555cf7de)" style="fill: #ffa500; stroke: #ffffff; stroke-linejoin: miter"/>
   </g>
   <g id="patch_135">
    <path d="M 425.7743 271.4985 
L 435.415556 271.4985 
L 435.415556 262.235021 
L 425.7743 262.235021 
z
" clip-path="url(#pfa555cf7de)" style="fill: #ffa500; stroke: #ffffff; stroke-linejoin: miter"/>
   </g>
   <g id="patch_136">
    <path d="M 445.056812 271.4985 
L 454.698067 271.4985 
L 454.698067 270.175146 
L 445.056812 270.175146 
z
" clip-path="url(#pfa555cf7de)" style="fill: #ffa500; stroke: #ffffff; stroke-linejoin: miter"/>
   </g>
   <g id="patch_137">
    <path d="M 464.339323 271.4985 
L 473.980578 271.4985 
L 473.980578 270.175146 
L 464.339323 270.175146 
z
" clip-path="url(#pfa555cf7de)" style="fill: #ffa500; stroke: #ffffff; stroke-linejoin: miter"/>
   </g>
   <g id="patch_138">
    <path d="M 483.621834 271.4985 
L 493.263089 271.4985 
L 493.263089 271.4985 
L 483.621834 271.4985 
z
" clip-path="url(#pfa555cf7de)" style="fill: #ffa500; stroke: #ffffff; stroke-linejoin: miter"/>
   </g>
   <g id="matplotlib.axis_5">
    <g id="xtick_7">
     <g id="line2d_16">
      <g>
       <use xlink:href="#maa5f6dfd7c" x="148.636233" y="271.4985" style="stroke: #000000; stroke-width: 0.8"/>
      </g>
     </g>
     <g id="text_22">
      <!-- −0.005 -->
      <g transform="translate(130.132327 286.096938) scale(0.1 -0.1)">
       <use xlink:href="#DejaVuSans-2212"/>
       <use xlink:href="#DejaVuSans-30" x="83.789062"/>
       <use xlink:href="#DejaVuSans-2e" x="147.412109"/>
       <use xlink:href="#DejaVuSans-30" x="179.199219"/>
       <use xlink:href="#DejaVuSans-30" x="242.822266"/>
       <use xlink:href="#DejaVuSans-35" x="306.445312"/>
      </g>
     </g>
    </g>
    <g id="xtick_8">
     <g id="line2d_17">
      <g>
       <use xlink:href="#maa5f6dfd7c" x="308.443457" y="271.4985" style="stroke: #000000; stroke-width: 0.8"/>
      </g>
     </g>
     <g id="text_23">
      <!-- 0.000 -->
      <g transform="translate(294.129394 286.096938) scale(0.1 -0.1)">
       <use xlink:href="#DejaVuSans-30"/>
       <use xlink:href="#DejaVuSans-2e" x="63.623047"/>
       <use xlink:href="#DejaVuSans-30" x="95.410156"/>
       <use xlink:href="#DejaVuSans-30" x="159.033203"/>
       <use xlink:href="#DejaVuSans-30" x="222.65625"/>
      </g>
     </g>
    </g>
    <g id="xtick_9">
     <g id="line2d_18">
      <g>
       <use xlink:href="#maa5f6dfd7c" x="468.25068" y="271.4985" style="stroke: #000000; stroke-width: 0.8"/>
      </g>
     </g>
     <g id="text_24">
      <!-- 0.005 -->
      <g transform="translate(453.936618 286.096938) scale(0.1 -0.1)">
       <use xlink:href="#DejaVuSans-30"/>
       <use xlink:href="#DejaVuSans-2e" x="63.623047"/>
       <use xlink:href="#DejaVuSans-30" x="95.410156"/>
       <use xlink:href="#DejaVuSans-30" x="159.033203"/>
       <use xlink:href="#DejaVuSans-35" x="222.65625"/>
      </g>
     </g>
    </g>
    <g id="text_25">
     <!-- velocity ($\mathrm{\AA \cdot fs^{-1}}$) -->
     <g transform="translate(238.282734 303.336625) scale(0.12 -0.12)">
      <defs>
       <path id="DejaVuSans-Bold-76" d="M 97 3500 
L 1216 3500 
L 2088 1081 
L 2956 3500 
L 4078 3500 
L 2700 0 
L 1472 0 
L 97 3500 
z
" transform="scale(0.015625)"/>
       <path id="DejaVuSans-Bold-28" d="M 2413 -844 
L 1484 -844 
Q 1006 -72 778 623 
Q 550 1319 550 2003 
Q 550 2688 779 3389 
Q 1009 4091 1484 4856 
L 2413 4856 
Q 2013 4116 1813 3408 
Q 1613 2700 1613 2009 
Q 1613 1319 1811 609 
Q 2009 -100 2413 -844 
z
" transform="scale(0.015625)"/>
       <path id="DejaVuSans-c5" d="M 2663 5081 
Q 2663 5278 2523 5417 
Q 2384 5556 2188 5556 
Q 1988 5556 1852 5420 
Q 1716 5284 1716 5081 
Q 1716 4884 1853 4746 
Q 1991 4609 2188 4609 
Q 2384 4609 2523 4746 
Q 2663 4884 2663 5081 
z
M 2188 4044 
L 1338 1722 
L 3041 1722 
L 2188 4044 
z
M 1716 4366 
Q 1525 4494 1428 4673 
Q 1331 4853 1331 5081 
Q 1331 5441 1579 5691 
Q 1828 5941 2188 5941 
Q 2544 5941 2795 5689 
Q 3047 5438 3047 5081 
Q 3047 4863 2948 4678 
Q 2850 4494 2663 4366 
L 4325 0 
L 3669 0 
L 3244 1197 
L 1141 1197 
L 716 0 
L 50 0 
L 1716 4366 
z
" transform="scale(0.015625)"/>
       <path id="DejaVuSans-22c5" d="M 684 2619 
L 1344 2619 
L 1344 1825 
L 684 1825 
L 684 2619 
z
" transform="scale(0.015625)"/>
       <path id="DejaVuSans-66" d="M 2375 4863 
L 2375 4384 
L 1825 4384 
Q 1516 4384 1395 4259 
Q 1275 4134 1275 3809 
L 1275 3500 
L 2222 3500 
L 2222 3053 
L 1275 3053 
L 1275 0 
L 697 0 
L 697 3053 
L 147 3053 
L 147 3500 
L 697 3500 
L 697 3744 
Q 697 4328 969 4595 
Q 1241 4863 1831 4863 
L 2375 4863 
z
" transform="scale(0.015625)"/>
       <path id="DejaVuSans-73" d="M 2834 3397 
L 2834 2853 
Q 2591 2978 2328 3040 
Q 2066 3103 1784 3103 
Q 1356 3103 1142 2972 
Q 928 2841 928 2578 
Q 928 2378 1081 2264 
Q 1234 2150 1697 2047 
L 1894 2003 
Q 2506 1872 2764 1633 
Q 3022 1394 3022 966 
Q 3022 478 2636 193 
Q 2250 -91 1575 -91 
Q 1294 -91 989 -36 
Q 684 19 347 128 
L 347 722 
Q 666 556 975 473 
Q 1284 391 1588 391 
Q 1994 391 2212 530 
Q 2431 669 2431 922 
Q 2431 1156 2273 1281 
Q 2116 1406 1581 1522 
L 1381 1569 
Q 847 1681 609 1914 
Q 372 2147 372 2553 
Q 372 3047 722 3315 
Q 1072 3584 1716 3584 
Q 2034 3584 2315 3537 
Q 2597 3491 2834 3397 
z
" transform="scale(0.015625)"/>
       <path id="DejaVuSans-Bold-29" d="M 513 -844 
Q 913 -100 1113 609 
Q 1313 1319 1313 2009 
Q 1313 2700 1113 3408 
Q 913 4116 513 4856 
L 1441 4856 
Q 1916 4091 2145 3389 
Q 2375 2688 2375 2003 
Q 2375 1319 2147 623 
Q 1919 -72 1441 -844 
L 513 -844 
z
" transform="scale(0.015625)"/>
      </defs>
      <use xlink:href="#DejaVuSans-Bold-76" transform="translate(0 0.171875)"/>
      <use xlink:href="#DejaVuSans-Bold-65" transform="translate(65.185547 0.171875)"/>
      <use xlink:href="#DejaVuSans-Bold-6c" transform="translate(133.007812 0.171875)"/>
      <use xlink:href="#DejaVuSans-Bold-6f" transform="translate(167.285156 0.171875)"/>
      <use xlink:href="#DejaVuSans-Bold-63" transform="translate(235.986328 0.171875)"/>
      <use xlink:href="#DejaVuSans-Bold-69" transform="translate(295.263672 0.171875)"/>
      <use xlink:href="#DejaVuSans-Bold-74" transform="translate(329.541016 0.171875)"/>
      <use xlink:href="#DejaVuSans-Bold-79" transform="translate(377.34375 0.171875)"/>
      <use xlink:href="#DejaVuSans-Bold-20" transform="translate(442.529297 0.171875)"/>
      <use xlink:href="#DejaVuSans-Bold-28" transform="translate(477.34375 0.171875)"/>
      <use xlink:href="#DejaVuSans-c5" transform="translate(523.046875 0.171875)"/>
      <use xlink:href="#DejaVuSans-22c5" transform="translate(610.9375 0.171875)"/>
      <use xlink:href="#DejaVuSans-66" transform="translate(662.207031 0.171875)"/>
      <use xlink:href="#DejaVuSans-73" transform="translate(697.412109 0.171875)"/>
      <use xlink:href="#DejaVuSans-2212" transform="translate(750.46875 38.453125) scale(0.7)"/>
      <use xlink:href="#DejaVuSans-31" transform="translate(809.121094 38.453125) scale(0.7)"/>
      <use xlink:href="#DejaVuSans-Bold-29" transform="translate(856.391602 0.171875)"/>
     </g>
    </g>
   </g>
   <g id="matplotlib.axis_6">
    <g id="ytick_10">
     <g id="line2d_19">
      <g>
       <use xlink:href="#mceaefbc3c3" x="84.713344" y="271.4985" style="stroke: #000000; stroke-width: 0.8"/>
      </g>
     </g>
     <g id="text_26">
      <!-- 0 -->
      <g transform="translate(71.987094 274.917797) scale(0.09 -0.09)">
       <use xlink:href="#DejaVuSans-30"/>
      </g>
     </g>
    </g>
    <g id="ytick_11">
     <g id="line2d_20">
      <g>
       <use xlink:href="#mceaefbc3c3" x="84.713344" y="251.977946" style="stroke: #000000; stroke-width: 0.8"/>
      </g>
     </g>
     <g id="text_27">
      <!-- 50 -->
      <g transform="translate(66.260844 255.397243) scale(0.09 -0.09)">
       <use xlink:href="#DejaVuSans-35"/>
       <use xlink:href="#DejaVuSans-30" x="63.623047"/>
      </g>
     </g>
    </g>
    <g id="ytick_12">
     <g id="line2d_21">
      <g>
       <use xlink:href="#mceaefbc3c3" x="84.713344" y="232.457392" style="stroke: #000000; stroke-width: 0.8"/>
      </g>
     </g>
     <g id="text_28">
      <!-- 100 -->
      <g transform="translate(60.534594 235.876689) scale(0.09 -0.09)">
       <use xlink:href="#DejaVuSans-31"/>
       <use xlink:href="#DejaVuSans-30" x="63.623047"/>
       <use xlink:href="#DejaVuSans-30" x="127.246094"/>
      </g>
     </g>
    </g>
    <g id="ytick_13">
     <g id="line2d_22">
      <g>
       <use xlink:href="#mceaefbc3c3" x="84.713344" y="212.936838" style="stroke: #000000; stroke-width: 0.8"/>
      </g>
     </g>
     <g id="text_29">
      <!-- 150 -->
      <g transform="translate(60.534594 216.356135) scale(0.09 -0.09)">
       <use xlink:href="#DejaVuSans-31"/>
       <use xlink:href="#DejaVuSans-35" x="63.623047"/>
       <use xlink:href="#DejaVuSans-30" x="127.246094"/>
      </g>
     </g>
    </g>
    <g id="ytick_14">
     <g id="line2d_23">
      <g>
       <use xlink:href="#mceaefbc3c3" x="84.713344" y="193.416284" style="stroke: #000000; stroke-width: 0.8"/>
      </g>
     </g>
     <g id="text_30">
      <!-- 200 -->
      <g transform="translate(60.534594 196.835581) scale(0.09 -0.09)">
       <use xlink:href="#DejaVuSans-32"/>
       <use xlink:href="#DejaVuSans-30" x="63.623047"/>
       <use xlink:href="#DejaVuSans-30" x="127.246094"/>
      </g>
     </g>
    </g>
    <g id="ytick_15">
     <g id="line2d_24">
      <g>
       <use xlink:href="#mceaefbc3c3" x="84.713344" y="173.89573" style="stroke: #000000; stroke-width: 0.8"/>
      </g>
     </g>
     <g id="text_31">
      <!-- 250 -->
      <g transform="translate(60.534594 177.315027) scale(0.09 -0.09)">
       <use xlink:href="#DejaVuSans-32"/>
       <use xlink:href="#DejaVuSans-35" x="63.623047"/>
       <use xlink:href="#DejaVuSans-30" x="127.246094"/>
      </g>
     </g>
    </g>
   </g>
   <g id="patch_139">
    <path d="M 84.713344 271.4985 
L 84.713344 160.231342 
" style="fill: none; stroke: #000000; stroke-width: 0.8; stroke-linejoin: miter; stroke-linecap: square"/>
   </g>
   <g id="patch_140">
    <path d="M 500.212125 271.4985 
L 500.212125 160.231342 
" style="fill: none; stroke: #000000; stroke-width: 0.8; stroke-linejoin: miter; stroke-linecap: square"/>
   </g>
   <g id="patch_141">
    <path d="M 84.713344 271.4985 
L 500.212125 271.4985 
" style="fill: none; stroke: #000000; stroke-width: 0.8; stroke-linejoin: miter; stroke-linecap: square"/>
   </g>
   <g id="patch_142">
    <path d="M 84.713344 160.231342 
L 500.212125 160.231342 
" style="fill: none; stroke: #000000; stroke-width: 0.8; stroke-linejoin: miter; stroke-linecap: square"/>
   </g>
   <g id="text_32">
    <!-- b -->
    <g transform="translate(63.938405 158.222751) scale(0.12 -0.12)">
     <use xlink:href="#DejaVuSans-Bold-62"/>
    </g>
   </g>
   <g id="legend_3">
    <g id="patch_143">
     <path d="M 90.313344 190.116342 
L 134.414594 190.116342 
Q 136.014594 190.116342 136.014594 188.516342 
L 136.014594 165.831342 
Q 136.014594 164.231342 134.414594 164.231342 
L 90.313344 164.231342 
Q 88.713344 164.231342 88.713344 165.831342 
L 88.713344 188.516342 
Q 88.713344 190.116342 90.313344 190.116342 
z
" style="fill: #ffffff; opacity: 0.8; stroke: #cccccc; stroke-linejoin: miter"/>
    </g>
    <g id="patch_144">
     <path d="M 91.913344 173.510092 
L 107.913344 173.510092 
L 107.913344 167.910092 
L 91.913344 167.910092 
z
" style="fill: #0000ff; stroke: #ffffff; stroke-linejoin: miter"/>
    </g>
    <g id="text_33">
     <!-- BM -->
     <g transform="translate(114.313344 173.510092) scale(0.08 -0.08)">
      <use xlink:href="#DejaVuSans-42"/>
      <use xlink:href="#DejaVuSans-4d" x="68.603516"/>
     </g>
    </g>
    <g id="patch_145">
     <path d="M 91.913344 185.252592 
L 107.913344 185.252592 
L 107.913344 179.652592 
L 91.913344 179.652592 
z
" style="fill: #ffa500; stroke: #ffffff; stroke-linejoin: miter"/>
    </g>
    <g id="text_34">
     <!-- EdSr -->
     <g transform="translate(114.313344 185.252592) scale(0.08 -0.08)">
      <use xlink:href="#DejaVuSans-45"/>
      <use xlink:href="#DejaVuSans-64" x="63.183594"/>
      <use xlink:href="#DejaVuSans-53" x="126.660156"/>
      <use xlink:href="#DejaVuSans-72" x="190.136719"/>
     </g>
    </g>
   </g>
  </g>
 </g>
 <defs>
  <clipPath id="p5f9b82a9f3">
   <rect x="84.713344" y="24.262875" width="415.498781" height="111.267158"/>
  </clipPath>
  <clipPath id="pfe99593636">
   <rect x="344.039906" y="31.107533" width="149.833125" height="76.78125"/>
  </clipPath>
  <clipPath id="pfa555cf7de">
   <rect x="84.713344" y="160.231342" width="415.498781" height="111.267158"/>
  </clipPath>
 </defs>
</svg>
